{"glyphs":{"0":{"ha":751,"x_min":0,"x_max":720,"o":"m 621 639 q 592 492 621 557 q 515 375 564 427 q 404 285 467 323 q 269 221 340 247 q 208 198 241 210 q 146 184 175 186 l 132 184 l 131 184 q 114 190 121 184 q 104 202 108 195 q 99 219 100 210 q 98 237 98 229 q 110 280 98 254 q 142 338 122 306 q 189 408 163 371 q 244 481 216 444 q 302 554 273 518 q 357 622 332 591 q 404 678 383 653 q 436 717 425 703 q 445 731 441 723 q 449 749 449 739 q 443 771 449 760 q 508 762 476 768 q 565 742 540 756 q 605 703 590 728 q 621 639 621 679 m 720 639 q 695 748 720 704 q 629 820 670 793 q 534 859 587 847 q 422 871 480 871 q 380 859 398 871 q 363 819 363 848 q 374 790 363 804 q 353 770 368 787 q 318 731 338 754 q 277 682 299 709 q 236 632 256 656 q 202 589 217 608 q 182 564 187 570 q 151 523 170 547 q 113 470 133 498 q 72 409 92 441 q 36 347 52 378 q 10 288 20 317 q 0 237 0 260 q 8 179 0 206 q 34 131 17 151 q 76 98 50 110 q 135 86 101 86 q 210 96 170 86 q 293 122 251 106 q 378 161 336 139 q 460 208 421 183 q 532 259 499 233 q 587 309 564 285 q 686 460 652 376 q 720 639 720 545 z "},"1":{"ha":467,"x_min":-1,"x_max":500,"o":"m 500 857 q 486 892 500 878 q 450 907 471 907 q 420 897 433 907 q 403 869 408 886 q 388 837 398 857 q 363 794 377 817 q 333 747 349 771 q 301 699 317 722 q 272 657 286 676 q 250 625 259 637 q 190 538 223 585 q 125 441 157 491 q 66 342 93 392 q 22 248 39 293 q 5 191 12 220 q -1 134 -1 163 q 1 109 -1 121 q 9 89 3 98 q 25 75 16 80 q 49 69 35 69 q 83 84 68 69 q 98 118 98 98 q 98 122 98 120 q 97 126 97 124 l 97 136 q 114 209 97 166 q 160 303 132 252 q 224 409 189 353 q 298 520 260 465 q 372 629 336 576 q 437 726 408 682 q 483 805 465 771 q 500 857 500 839 z "},"2":{"ha":739,"x_min":5,"x_max":704,"o":"m 704 211 q 694 242 704 231 q 669 259 684 253 q 636 266 654 264 q 604 268 618 268 q 537 263 570 268 q 472 252 504 259 q 409 236 441 245 q 345 216 377 227 q 309 205 334 213 q 258 189 285 197 q 207 174 231 180 q 174 168 183 168 l 171 168 q 246 240 202 198 q 338 331 290 281 q 433 434 386 380 q 517 542 480 488 q 578 647 555 595 q 602 742 602 699 q 585 808 602 780 q 540 856 568 837 q 478 885 513 876 q 410 895 444 895 q 338 883 377 895 q 260 858 298 871 q 186 832 221 844 q 127 821 152 821 q 92 806 106 821 q 78 771 78 792 q 92 737 78 751 q 127 722 106 722 q 196 733 160 722 q 269 758 233 745 q 341 783 306 772 q 408 794 377 794 q 435 792 419 794 q 466 784 451 789 q 491 768 480 778 q 501 745 501 759 q 485 677 501 713 q 445 607 469 642 q 395 542 421 572 q 349 489 368 511 q 307 443 331 469 q 255 388 282 417 q 198 330 227 359 q 141 273 169 300 q 87 223 113 245 q 41 187 62 201 q 16 164 27 177 q 5 131 5 151 q 17 95 5 108 q 47 77 29 83 q 85 70 65 71 q 122 69 106 69 q 246 85 186 69 q 365 119 306 100 q 484 154 424 138 q 607 170 543 170 l 610 170 q 622 169 616 170 q 633 167 628 169 q 644 163 639 165 q 656 161 649 161 q 690 176 675 161 q 704 211 704 191 z "},"3":{"ha":725,"x_min":-3,"x_max":778,"o":"m 351 918 l 350 918 l 351 918 m 778 872 q 763 916 778 897 q 725 950 748 936 q 676 972 703 964 q 628 979 650 979 q 587 975 610 979 q 537 964 563 970 q 485 949 511 957 q 433 934 458 941 q 389 923 409 927 q 355 918 368 918 l 350 918 q 344 920 347 920 q 338 920 341 920 q 303 905 318 920 q 288 869 288 891 q 293 846 288 856 q 308 831 298 837 q 328 822 317 825 q 351 819 339 819 q 421 829 385 819 q 492 850 456 838 q 562 871 528 861 q 628 880 597 880 q 652 878 640 880 q 673 865 664 876 q 651 833 666 852 q 616 790 635 813 q 575 744 597 768 q 532 701 553 721 q 492 666 511 681 q 460 646 473 651 q 424 624 439 637 q 408 587 408 611 q 416 557 408 570 q 436 537 424 545 q 465 522 449 528 q 497 510 481 516 q 527 498 513 505 q 551 484 541 492 q 554 470 553 477 q 554 456 554 463 q 536 363 554 408 q 487 280 517 318 q 417 212 456 242 q 338 164 378 182 q 300 148 321 156 q 259 133 280 140 q 217 122 238 127 q 176 118 196 118 q 139 124 157 118 q 109 144 122 130 q 136 157 121 153 q 160 175 151 162 q 170 204 170 189 q 165 223 170 214 q 155 239 161 232 q 139 250 148 246 q 119 254 130 254 q 80 245 102 254 q 41 220 59 235 q 10 186 22 205 q -3 149 -3 168 q 16 96 -3 120 q 62 56 35 73 q 119 29 89 39 q 174 20 150 20 q 225 24 199 20 q 278 36 252 28 q 329 54 304 44 q 378 74 355 64 q 483 137 433 98 q 571 226 532 176 q 632 334 609 276 q 654 456 654 393 q 649 506 654 485 q 631 542 643 526 q 601 570 619 558 q 555 593 582 582 q 591 624 570 604 q 638 669 613 644 q 688 722 663 694 q 733 778 713 750 q 765 830 753 805 q 778 872 778 854 z "},"4":{"ha":936,"x_min":-4,"x_max":1003,"o":"m 1003 1173 q 988 1207 1003 1193 q 953 1222 974 1222 q 929 1216 938 1222 q 911 1198 920 1210 q 884 1162 898 1183 q 858 1118 871 1141 q 832 1073 844 1095 q 808 1032 819 1050 q 703 861 755 946 q 600 689 651 776 l 545 591 q 498 578 526 587 q 437 561 470 570 q 368 543 404 552 q 300 527 333 534 q 240 515 268 519 q 195 510 212 510 q 150 514 173 510 q 107 529 127 519 q 129 563 117 541 q 156 612 142 585 q 183 670 170 640 q 207 728 196 700 q 224 780 218 756 q 231 818 231 804 q 228 837 231 827 q 220 854 225 846 q 206 867 214 862 q 187 872 198 872 q 151 862 164 872 q 132 829 138 852 q 116 773 128 809 q 89 700 104 738 q 56 630 73 663 q 25 585 39 598 q 4 559 12 572 q -4 526 -4 545 q 6 488 -4 505 q 33 458 16 471 q 71 436 50 446 q 114 422 92 427 q 157 414 136 416 q 195 411 178 411 q 263 417 227 411 q 335 432 299 423 q 407 451 372 441 q 473 469 442 461 q 447 423 465 454 q 408 353 429 392 q 365 272 387 315 q 325 190 343 229 q 295 117 307 150 q 283 65 283 84 q 288 40 283 52 q 299 20 292 28 q 317 5 307 11 q 342 0 328 0 q 372 9 355 0 q 402 33 388 19 q 425 63 416 47 q 435 92 435 79 q 428 117 435 104 q 408 135 421 130 q 505 324 452 232 q 610 509 557 416 q 647 518 624 513 q 692 531 671 523 q 730 553 714 540 q 746 586 746 566 q 731 620 746 606 q 696 635 715 635 q 690 635 692 635 q 684 633 687 635 q 840 890 760 763 q 994 1146 920 1017 q 1003 1173 1003 1158 z "},"5":{"ha":833,"x_min":-4,"x_max":893,"o":"m 821 810 l 819 810 l 818 811 l 821 810 m 893 854 q 881 887 893 875 q 850 904 868 899 q 813 911 833 910 q 778 913 793 913 q 690 909 734 913 q 604 901 647 905 q 522 894 564 897 q 440 890 481 890 q 401 879 425 890 q 350 851 378 868 q 293 812 322 833 q 237 771 264 791 q 190 734 211 751 q 158 708 169 717 q 143 689 149 701 q 134 664 138 677 q 129 638 131 651 q 127 614 127 625 q 162 495 127 547 q 258 418 197 444 q 289 404 270 414 q 327 381 309 394 q 359 353 345 368 q 372 322 372 338 q 358 285 372 304 q 320 248 343 266 q 268 214 297 230 q 211 187 239 199 q 157 168 182 175 q 115 161 132 161 q 105 162 110 161 q 96 164 100 162 l 96 167 q 99 183 96 175 q 102 201 102 192 q 87 236 102 221 q 52 250 73 250 q 24 242 35 250 q 7 221 13 234 q -2 194 1 209 q -4 167 -4 180 q 6 121 -4 140 q 32 88 16 101 q 70 69 48 75 q 117 62 92 62 q 185 72 147 62 q 262 99 223 82 q 339 141 302 117 q 406 194 377 165 q 453 255 435 222 q 471 322 471 288 q 454 387 471 357 q 411 440 437 416 q 353 482 385 464 q 293 511 321 500 q 243 552 260 525 q 227 614 227 578 q 227 626 227 621 q 229 637 228 632 q 253 656 236 643 q 292 686 270 669 q 338 721 313 703 q 385 754 363 739 q 423 780 406 770 q 446 791 439 791 q 529 798 486 797 q 612 803 572 799 q 696 810 654 806 q 781 814 739 814 l 789 814 q 805 813 798 814 q 819 810 812 813 q 831 806 825 808 q 843 804 837 804 q 862 808 853 804 q 878 819 871 812 q 889 835 885 826 q 893 854 893 844 z "},"6":{"ha":428,"x_min":3,"x_max":458,"o":"m 273 163 q 263 151 273 155 q 240 145 253 147 q 215 142 227 143 q 199 142 203 142 q 164 144 180 142 q 137 153 149 146 q 119 173 125 160 q 110 205 112 185 q 144 219 127 214 q 180 224 161 224 q 210 220 194 224 q 240 210 227 217 q 264 191 254 203 q 273 163 273 179 m 458 811 q 454 830 458 821 q 443 846 450 839 q 427 857 436 853 q 408 861 418 861 q 374 846 388 861 q 328 801 355 829 q 271 740 301 773 q 209 669 240 706 q 150 596 177 631 q 101 531 122 562 q 72 479 81 500 q 33 370 50 427 q 11 257 16 313 q 5 245 7 252 q 3 231 3 238 q 9 205 3 217 q 67 82 16 122 q 199 43 117 43 q 259 48 228 43 q 315 66 290 53 q 356 103 340 80 q 372 163 372 127 q 356 231 372 201 q 312 281 339 261 q 251 312 285 302 q 180 322 216 322 q 151 320 166 322 q 121 315 136 319 q 140 380 130 348 q 164 444 151 413 q 191 489 172 462 q 236 548 210 516 q 293 614 262 580 q 352 679 323 648 q 405 736 380 710 q 444 777 429 762 q 458 811 458 792 z "},"7":{"ha":557,"x_min":-7,"x_max":597,"o":"m 12 87 l 9 86 l 11 87 l 12 87 m 597 842 q 586 876 597 863 q 558 894 575 888 q 523 901 542 900 q 488 903 504 903 q 403 898 446 903 q 319 887 361 892 q 234 876 277 881 q 150 871 192 871 q 139 871 144 871 q 127 873 133 871 q 119 876 123 875 q 109 876 114 876 q 74 862 89 876 q 60 828 60 848 q 69 798 60 809 q 92 782 78 787 q 122 774 106 776 q 151 772 138 772 q 232 777 192 772 q 313 787 273 781 q 392 798 353 793 q 472 804 432 803 q 393 694 435 747 q 309 587 351 641 q 237 498 274 543 q 172 404 201 453 q 148 360 162 388 q 119 300 134 333 q 87 234 104 268 q 57 170 71 199 q 30 118 42 140 q 11 87 18 96 q -2 70 3 80 q -7 50 -7 60 q 8 15 -7 29 q 43 0 22 0 q 59 3 52 0 q 74 11 66 5 q 99 42 84 18 q 131 98 114 66 q 165 168 147 130 q 200 241 183 205 q 232 307 217 277 q 257 354 247 337 q 319 441 284 399 q 386 526 353 484 q 415 562 395 538 q 457 616 434 586 q 506 679 481 646 q 551 743 531 712 q 585 801 572 774 q 597 842 597 827 z "},"8":{"ha":599,"x_min":0,"x_max":642,"o":"m 408 286 q 389 230 408 252 q 342 194 370 208 q 282 176 314 181 q 222 171 250 171 q 190 173 211 171 q 149 180 170 175 q 114 196 129 186 q 98 221 98 205 q 112 250 98 230 q 148 295 126 270 q 195 347 170 320 q 245 399 221 374 q 287 441 269 423 q 311 465 305 459 q 345 428 328 449 q 376 384 362 408 q 399 336 391 361 q 408 286 408 311 m 542 787 q 529 747 542 767 q 496 707 516 726 q 450 670 475 688 q 398 636 424 652 q 350 608 372 621 q 311 586 327 595 q 289 599 301 591 q 264 616 276 607 q 245 637 253 626 q 237 661 237 649 q 251 702 237 682 q 286 740 264 722 q 335 774 308 758 q 391 802 363 790 q 446 820 419 813 q 492 827 472 827 q 528 820 515 827 q 542 787 542 813 m 642 785 q 631 846 642 819 q 600 890 620 872 q 552 917 580 908 q 492 926 525 926 q 421 917 460 926 q 343 890 382 907 q 267 848 304 873 q 202 794 231 824 q 156 731 174 765 q 139 661 139 698 q 146 618 139 638 q 165 580 153 597 q 193 548 177 562 q 228 521 210 533 q 190 484 213 506 q 142 436 167 462 q 91 381 117 410 q 45 323 66 352 q 13 267 25 294 q 0 216 0 239 q 22 148 0 176 q 77 103 44 120 q 149 79 111 86 q 221 72 188 72 q 321 84 271 72 q 414 121 372 96 q 481 188 455 147 q 507 286 507 229 q 498 352 507 319 q 473 414 488 384 q 438 471 458 444 q 396 521 418 498 q 474 567 431 541 q 554 626 517 593 q 616 698 591 659 q 642 785 642 738 z "},"9":{"ha":514,"x_min":-3,"x_max":525,"o":"m 425 757 q 424 735 425 745 q 421 718 423 726 q 415 701 418 709 q 407 681 412 692 q 363 655 386 670 q 317 625 340 640 q 269 601 293 611 q 220 591 244 591 q 189 597 206 591 q 157 612 172 602 q 132 635 142 622 q 122 663 122 648 q 129 692 122 675 q 147 725 136 709 q 169 756 157 742 q 189 779 180 771 q 256 827 218 810 q 336 844 294 844 q 404 824 383 844 q 425 757 425 803 m 525 757 q 512 836 525 801 q 475 894 499 870 q 415 930 450 918 q 336 943 380 943 q 247 929 290 943 q 167 891 203 916 q 101 831 130 866 q 50 755 71 797 q 32 710 39 734 q 24 663 24 686 q 41 595 24 626 q 86 542 58 564 q 148 506 113 519 q 216 493 182 493 q 276 502 247 493 q 334 522 306 511 q 271 415 304 467 q 201 317 239 363 q 119 229 163 270 q 22 153 75 187 q 3 134 9 144 q -3 110 -3 124 q 12 74 -3 89 q 46 60 26 60 q 71 66 57 60 q 196 162 138 104 q 303 286 254 219 q 393 426 353 353 q 465 567 433 498 q 492 626 478 595 q 515 688 506 656 q 523 722 521 705 q 525 757 525 739 z "}," ":{"ha":218,"x_min":0,"x_max":0,"o":""},"ý":{"ha":383,"x_min":-187,"x_max":496,"o":"m 339 345 q 323 383 339 368 q 283 399 307 399 q 242 388 267 399 q 193 362 218 377 q 142 333 167 348 q 102 310 118 318 q 114 356 106 331 q 132 407 122 381 q 154 455 142 432 q 178 496 165 479 q 184 511 182 503 q 187 526 187 518 q 173 561 187 546 q 139 576 159 576 q 103 558 121 576 q 71 512 86 541 q 42 449 56 484 q 20 381 29 414 q 5 320 11 348 q 0 278 0 292 q 4 247 0 262 q 17 221 8 233 q 39 204 26 210 q 69 197 52 197 q 102 203 85 197 q 137 216 119 208 q 170 234 154 224 q 199 250 186 243 q 180 212 193 239 q 148 149 166 185 q 106 70 129 113 q 60 -15 83 28 q 12 -97 36 -58 q -32 -168 -12 -137 q -70 -216 -53 -198 q -97 -235 -87 -235 q -101 -232 -98 -235 q -110 -225 -104 -229 q -122 -218 -115 -221 q -139 -215 -130 -215 q -173 -230 -159 -215 q -187 -265 -187 -245 q -178 -294 -187 -281 q -156 -315 -170 -307 q -126 -329 -142 -324 q -97 -334 -111 -334 q -89 -333 -93 -334 q -81 -332 -85 -333 q -28 -310 -53 -327 q 17 -270 -4 -293 q 54 -220 37 -246 q 83 -170 71 -193 q 120 -103 96 -146 q 173 -10 144 -61 q 231 96 201 41 q 284 200 260 151 q 324 288 309 250 q 339 345 339 326 m 492 906 q 446 937 476 937 q 433 935 439 937 q 420 930 427 934 q 378 895 397 918 q 343 844 359 872 q 314 788 328 817 q 288 736 300 759 q 281 725 283 730 q 277 718 279 721 q 275 713 276 715 q 272 710 273 711 q 266 706 270 708 q 253 695 262 703 q 232 656 232 680 q 234 641 232 648 q 239 627 235 634 q 255 611 245 615 q 277 606 266 606 q 293 608 286 606 q 308 613 300 610 q 338 638 324 621 q 363 677 351 655 q 387 723 376 699 q 410 770 398 747 q 435 812 422 793 q 465 842 449 831 q 487 861 477 848 q 496 888 496 873 q 492 906 496 898 z "},"Þ":{"ha":406,"x_min":-61,"x_max":496,"o":"m 397 597 q 393 551 397 573 q 378 513 389 530 q 350 486 368 496 q 304 476 332 476 q 269 479 287 476 q 233 485 251 481 q 198 492 216 489 q 163 494 180 494 q 149 494 156 494 q 136 492 142 493 q 144 545 140 517 q 154 601 148 573 q 172 654 161 629 q 199 699 182 680 q 240 730 216 719 q 298 742 264 742 q 346 728 327 742 q 376 693 365 714 q 393 647 388 672 q 397 597 397 621 m 261 953 q 227 957 243 962 q 197 938 210 951 q 172 908 183 925 q 154 875 161 890 l 149 865 q 116 800 132 832 q 84 727 99 768 q 57 630 69 686 q 36 493 44 574 q 31 432 33 457 q 26 387 29 406 q 19 352 24 368 q 7 319 15 336 q -15 281 -1 302 q -50 229 -29 260 q -61 199 -61 216 q -57 180 -61 189 q -46 164 -53 171 q -30 153 -39 157 q -11 149 -21 149 q 9 154 -1 149 q 26 168 19 159 q 73 226 57 203 q 98 273 90 250 q 111 324 106 296 q 122 397 115 353 q 144 393 132 393 q 153 395 149 393 q 161 396 157 396 q 197 393 179 396 q 232 386 214 390 q 268 379 250 382 q 304 376 286 376 q 389 394 353 376 q 449 441 425 411 q 484 511 473 471 q 496 596 496 551 q 484 686 496 642 q 448 764 473 730 q 387 819 424 798 q 298 840 349 840 q 270 839 284 840 q 243 835 256 838 q 254 852 248 843 q 265 867 259 861 q 275 875 271 871 q 282 886 280 880 q 288 905 287 895 q 285 923 288 914 q 276 940 282 932 q 261 953 270 948 z "},"þ":{"ha":383,"x_min":-111,"x_max":339,"o":"m 236 354 q 216 339 228 347 q 191 323 204 330 q 164 311 178 315 q 140 306 151 306 q 130 307 134 306 q 125 310 127 308 q 121 314 123 311 q 114 319 119 317 q 133 369 123 343 q 157 418 143 395 q 177 406 166 414 q 200 390 189 399 q 220 372 211 381 q 236 354 230 362 m 257 722 q 222 726 239 732 q 193 708 206 721 q 168 677 179 694 q 150 644 157 660 l 146 635 q 112 566 127 596 q 85 510 97 536 q 62 459 73 484 q 40 405 52 434 q 15 338 28 375 q -15 253 2 302 q -55 140 -33 204 q -107 -8 -77 76 q -107 -27 -111 -18 q -96 -43 -103 -36 q -78 -54 -88 -50 q -57 -58 -67 -58 q -20 -40 -35 -58 q -6 -16 -14 -35 q 12 28 2 3 q 31 82 21 53 q 51 138 41 111 q 67 188 60 165 q 78 222 74 211 q 107 210 92 214 q 138 207 122 207 q 175 212 154 207 q 218 227 196 218 q 262 250 241 237 q 301 279 284 264 q 329 313 318 295 q 339 349 339 330 q 328 391 339 369 q 297 435 316 414 q 254 474 278 456 q 207 504 231 492 q 214 527 212 517 q 218 546 216 536 q 223 566 220 555 q 235 591 227 577 l 235 595 q 247 616 240 604 q 262 636 254 629 q 279 656 273 643 q 282 693 289 673 q 257 722 276 713 z "},"Ž":{"ha":596,"x_min":-12,"x_max":554,"o":"m 554 262 q 539 297 554 282 q 505 311 525 311 q 484 307 494 311 l 479 304 l 484 307 q 443 297 469 302 q 383 289 416 293 q 313 282 350 285 q 243 276 277 279 q 182 273 210 274 q 138 272 154 272 q 189 327 163 300 q 240 380 214 353 q 272 382 252 382 q 318 385 293 382 q 368 391 342 387 q 415 402 394 395 q 449 423 436 410 q 463 454 463 435 q 448 488 463 474 q 412 503 433 503 q 390 497 400 503 l 386 494 q 388 496 387 496 q 390 497 389 496 q 365 492 378 493 q 339 489 351 490 q 378 535 355 508 q 421 592 401 562 q 456 653 442 622 q 471 711 471 684 q 461 750 471 733 q 437 779 452 768 q 402 797 422 791 q 363 803 383 803 q 310 797 337 803 q 256 780 283 790 q 204 758 230 770 q 157 734 179 745 q 131 722 144 728 q 103 711 117 715 l 107 711 l 102 710 l 103 711 q 71 695 84 709 q 57 661 57 681 q 61 642 57 651 q 72 626 65 633 q 88 615 79 619 q 107 611 97 611 q 160 626 128 611 q 228 658 193 640 q 299 691 264 676 q 361 705 334 705 q 366 705 363 705 q 371 704 369 705 q 357 672 368 691 q 329 632 345 654 q 293 587 313 610 q 255 543 273 564 q 220 504 236 522 q 195 476 204 486 q 112 474 155 474 q 31 467 69 474 q 0 449 12 463 q -12 416 -12 436 q 1 383 -12 398 q 35 368 15 368 l 37 368 l 45 368 q 70 370 57 370 q 94 372 82 371 q 69 346 85 362 q 38 310 53 329 q 11 272 22 291 q 0 239 0 254 q 13 203 0 216 q 44 183 25 190 q 84 175 62 177 q 123 174 105 174 q 133 174 129 174 q 140 175 137 175 q 189 176 157 175 q 260 180 220 178 q 342 186 300 182 q 423 195 385 190 q 490 206 460 200 q 530 220 519 212 q 554 262 554 234 m 390 497 q 388 496 389 496 q 386 494 387 496 l 390 497 m 450 998 q 435 1033 450 1018 q 401 1048 420 1048 q 367 1042 381 1048 q 339 1024 353 1036 q 312 996 326 1013 q 276 960 297 980 q 259 981 266 972 q 247 995 253 989 q 234 1008 241 1002 q 212 1025 226 1015 q 185 1045 195 1038 q 168 1057 176 1051 q 153 1070 161 1063 q 129 1094 144 1078 q 112 1107 121 1103 q 92 1112 104 1112 q 72 1108 81 1112 q 56 1097 63 1104 q 45 1081 50 1090 q 41 1062 41 1072 q 52 1030 41 1045 q 97 985 72 1004 q 143 950 121 966 q 181 920 165 934 q 199 890 197 906 q 198 883 198 888 q 202 862 198 872 q 214 844 207 852 q 232 832 222 837 q 252 827 241 827 q 299 840 281 827 q 334 870 317 852 q 370 911 350 889 q 423 955 390 934 q 442 973 435 962 q 450 998 450 985 z "},"ž":{"ha":393,"x_min":0,"x_max":408,"o":"m 358 144 q 345 207 358 181 q 309 248 332 232 q 258 273 287 264 q 197 286 229 282 q 233 333 210 304 q 277 391 255 361 q 314 452 298 422 q 330 503 330 481 q 325 527 330 516 q 310 547 319 538 q 289 559 301 555 q 264 564 277 564 q 214 554 238 564 q 166 533 189 545 q 119 510 142 522 q 71 496 95 499 q 50 500 60 500 q 15 486 29 500 q 0 452 0 471 q 6 428 0 438 q 21 410 12 417 q 42 399 31 403 q 66 396 54 396 q 97 400 81 396 q 127 409 112 404 q 156 421 142 414 q 184 433 171 427 q 156 396 174 419 q 120 349 138 374 q 91 300 103 324 q 78 257 78 275 q 91 218 78 232 q 125 198 104 205 q 168 190 145 192 q 212 183 191 187 q 245 171 232 179 q 258 144 258 162 q 252 104 258 127 q 233 54 245 80 q 206 0 221 27 q 174 -50 191 -26 q 139 -90 157 -73 q 106 -115 121 -108 q 80 -133 90 -119 q 69 -163 69 -147 q 84 -198 69 -184 q 118 -212 98 -212 q 124 -212 121 -212 q 131 -211 127 -212 q 181 -184 156 -205 q 231 -136 207 -164 q 276 -73 255 -107 q 314 -4 297 -39 q 341 61 330 30 q 355 117 352 93 q 357 131 357 124 q 358 144 358 137 m 408 789 q 394 824 408 809 q 359 840 379 840 q 326 833 340 840 q 298 815 311 827 q 270 787 285 804 q 235 751 256 771 q 218 772 224 764 q 206 786 212 780 q 192 799 200 793 q 171 816 184 806 q 144 836 153 829 q 127 848 134 842 q 111 861 119 854 q 87 885 103 869 q 71 899 79 894 q 50 903 62 903 q 31 899 40 903 q 15 888 22 895 q 4 872 8 881 q 0 853 0 863 q 11 821 0 836 q 55 776 31 795 q 102 741 80 757 q 140 711 124 725 q 158 681 156 697 q 157 674 157 680 q 161 653 157 663 q 173 635 165 643 q 190 623 180 628 q 211 618 200 618 q 258 631 240 618 q 292 662 276 643 q 329 703 309 680 q 382 746 349 725 q 401 764 393 753 q 408 789 408 776 z "},"½":{"ha":614,"x_min":-29,"x_max":599,"o":"m 272 989 q 261 1016 272 1004 q 235 1028 250 1028 q 212 1021 220 1028 q 199 1002 204 1013 q 164 941 184 969 q 125 884 144 913 q 86 828 108 859 q 44 765 64 798 q 12 699 25 732 q -1 635 -1 665 q 8 603 -1 617 q 37 589 18 589 q 65 601 53 589 q 77 628 77 612 q 76 632 77 630 q 75 636 75 634 q 90 685 75 655 q 126 749 104 714 q 174 820 148 783 q 221 889 199 857 q 257 949 243 922 q 272 989 272 975 m 43 118 q 42 126 43 122 q 41 135 41 130 q 56 200 41 161 q 97 290 71 240 q 156 396 122 339 q 228 512 190 452 q 307 633 267 572 q 386 751 347 694 q 458 860 424 808 q 517 954 492 912 q 557 1026 543 996 q 572 1071 572 1057 q 562 1096 572 1086 q 536 1107 551 1107 q 515 1099 522 1107 q 501 1078 508 1090 q 467 1007 486 1042 q 426 937 448 972 q 381 869 404 903 q 336 804 358 836 q 244 665 290 734 q 154 526 198 596 q 112 462 136 498 q 66 388 89 426 q 24 312 44 350 q -7 243 5 275 q -23 189 -16 216 q -29 134 -29 162 q -22 99 -29 115 q 7 83 -15 83 q 32 94 22 83 q 43 118 43 104 m 599 144 q 593 165 599 157 q 577 178 587 173 q 557 184 568 182 q 536 186 546 186 q 453 174 494 186 q 371 150 412 163 q 423 201 393 170 q 481 267 453 232 q 529 338 509 302 q 549 404 549 374 q 539 443 549 426 q 514 470 530 459 q 479 487 499 481 q 440 493 460 493 q 403 487 421 493 q 367 475 385 481 q 334 463 350 469 q 302 457 317 457 q 275 446 287 457 q 264 419 264 435 q 275 393 264 404 q 302 382 287 382 q 339 387 321 382 q 373 399 356 393 q 406 411 389 406 q 440 416 422 416 q 449 416 444 416 q 459 415 454 416 q 468 412 465 414 q 472 406 472 410 q 459 369 472 391 q 426 320 446 346 q 381 267 406 294 q 332 216 356 240 q 286 173 307 192 q 253 144 265 154 q 235 128 242 137 q 228 106 228 119 q 235 83 228 92 q 253 69 242 74 q 276 63 264 64 q 300 61 289 61 q 360 69 330 61 q 419 86 389 77 q 478 103 448 96 q 539 111 508 111 q 550 109 545 111 q 561 107 555 107 q 588 118 576 107 q 599 144 599 130 z "},"¼":{"ha":742,"x_min":-29,"x_max":742,"o":"m 272 989 q 261 1016 272 1004 q 235 1028 250 1028 q 212 1021 220 1028 q 199 1002 204 1013 q 164 941 184 969 q 125 884 144 913 q 86 828 108 859 q 44 765 64 798 q 12 699 25 732 q -1 635 -1 665 q 8 603 -1 617 q 37 589 18 589 q 65 601 53 589 q 77 628 77 612 q 76 632 77 630 q 75 636 75 634 q 90 685 75 655 q 126 749 104 714 q 174 820 148 783 q 221 889 199 857 q 257 949 243 922 q 272 989 272 975 m 43 118 q 42 126 43 122 q 41 135 41 130 q 56 200 41 161 q 97 290 71 240 q 156 396 122 339 q 228 512 190 452 q 307 633 267 572 q 386 751 347 694 q 458 860 424 808 q 517 954 492 912 q 557 1026 543 996 q 572 1071 572 1057 q 562 1096 572 1086 q 536 1107 551 1107 q 515 1099 522 1107 q 501 1078 508 1090 q 467 1007 486 1042 q 426 937 448 972 q 381 869 404 903 q 336 804 358 836 q 244 665 290 734 q 154 526 198 596 q 112 462 136 498 q 66 388 89 426 q 24 312 44 350 q -7 243 5 275 q -23 189 -16 216 q -29 134 -29 162 q -22 99 -29 115 q 7 83 -15 83 q 32 94 22 83 q 43 118 43 104 m 742 623 q 730 649 742 638 q 703 660 718 660 q 686 656 692 660 q 672 644 679 652 q 644 603 655 625 q 619 559 633 581 q 556 454 588 507 q 493 349 524 401 q 456 337 477 344 q 413 325 435 331 q 369 315 391 319 q 332 311 348 311 q 320 312 326 311 q 310 314 315 312 q 325 342 316 324 q 342 379 334 359 q 357 417 351 399 q 363 449 363 436 q 354 476 363 463 q 328 489 345 489 q 301 481 310 489 q 288 457 293 473 q 279 429 284 445 q 268 397 274 413 q 254 367 262 381 q 237 343 246 353 q 225 326 230 334 q 221 306 221 318 q 233 274 221 287 q 261 252 244 260 q 297 239 278 243 q 332 235 317 235 q 386 241 359 235 q 439 254 413 247 q 426 232 434 245 q 410 201 418 218 q 393 168 401 185 q 377 133 384 150 q 365 103 370 117 q 361 79 361 89 q 373 47 361 60 q 404 33 385 33 q 424 39 414 33 q 444 53 435 44 q 458 72 452 62 q 464 92 464 82 q 453 118 464 107 q 497 202 474 161 q 545 285 521 243 q 567 290 555 287 q 590 299 579 293 q 608 313 600 304 q 615 335 615 322 q 609 355 615 345 q 593 368 604 364 q 611 398 598 378 q 641 445 625 419 q 676 499 658 471 q 708 553 694 528 q 732 597 723 578 q 742 623 742 616 z "},"¹":{"ha":257,"x_min":-1,"x_max":272,"o":"m 272 989 q 261 1016 272 1004 q 235 1028 250 1028 q 212 1021 220 1028 q 199 1002 204 1013 q 164 941 184 969 q 125 884 144 913 q 86 828 108 859 q 44 765 64 798 q 12 699 25 732 q -1 635 -1 665 q 8 603 -1 617 q 37 589 18 589 q 65 601 53 589 q 77 628 77 612 q 76 632 77 630 q 75 636 75 634 q 90 685 75 655 q 126 749 104 714 q 174 820 148 783 q 221 889 199 857 q 257 949 243 922 q 272 989 272 975 z "},"¾":{"ha":924,"x_min":0,"x_max":922,"o":"m 224 118 q 223 126 224 122 q 222 135 222 130 q 237 200 222 161 q 278 290 252 240 q 337 396 303 339 q 410 512 372 452 q 488 633 448 572 q 567 751 529 694 q 639 860 605 808 q 699 954 673 912 q 739 1026 724 996 q 754 1071 754 1057 q 743 1096 754 1086 q 718 1107 732 1107 q 696 1099 703 1107 q 684 1078 689 1090 q 607 937 652 1006 q 518 804 562 868 q 426 665 472 734 q 335 526 380 596 q 294 462 317 498 q 248 388 271 426 q 206 312 226 350 q 175 243 186 275 q 158 189 165 216 q 151 134 151 162 q 159 99 151 115 q 189 83 168 83 q 213 94 203 83 q 224 118 224 104 m 922 623 q 911 649 922 638 q 885 660 901 660 q 867 656 874 660 q 854 644 861 652 q 826 603 838 625 q 802 559 814 581 q 738 454 770 507 q 675 349 707 401 q 637 337 659 344 q 594 325 616 331 q 550 315 572 319 q 513 311 529 311 q 502 312 507 311 q 492 314 497 312 q 507 342 498 324 q 525 379 516 359 q 539 417 533 399 q 545 449 545 436 q 535 476 545 463 q 510 489 526 489 q 483 481 492 489 q 469 457 473 473 q 461 429 466 445 q 450 397 456 413 q 436 367 444 381 q 419 343 428 353 q 407 326 411 334 q 403 306 403 318 q 414 274 403 287 q 443 252 426 260 q 478 239 459 243 q 513 235 498 235 q 568 241 541 235 q 621 254 595 247 q 600 217 613 241 q 574 168 587 193 q 552 118 562 142 q 543 79 543 94 q 554 47 543 60 q 585 33 566 33 q 605 39 594 33 q 624 53 615 44 q 638 72 633 62 q 644 92 644 82 q 635 118 644 109 q 679 202 656 161 q 725 285 702 243 q 748 290 735 287 q 771 299 760 293 q 790 313 783 304 q 798 335 798 322 q 791 355 798 345 q 775 368 785 364 q 794 398 781 378 q 823 445 807 419 q 857 499 840 471 q 889 553 875 528 q 913 597 903 578 q 922 623 922 616 m 410 958 q 401 986 410 974 q 380 1006 393 998 q 352 1019 367 1015 q 322 1023 336 1023 q 289 1019 305 1023 q 255 1009 272 1015 q 222 999 239 1003 q 189 994 205 994 l 180 994 q 153 983 165 994 q 142 957 142 972 q 156 928 142 937 q 187 918 170 918 q 222 923 205 918 q 255 933 239 928 q 288 944 271 939 q 322 947 304 948 l 323 947 q 306 926 317 939 q 282 900 294 913 q 257 876 269 886 q 235 860 244 865 q 211 844 220 853 q 201 818 201 836 q 209 793 201 802 q 227 779 216 785 q 250 770 237 774 q 272 760 262 766 l 273 754 q 266 712 275 732 q 243 675 258 692 q 211 645 229 659 q 175 624 193 632 q 139 609 158 616 q 102 603 119 602 l 98 603 q 113 631 113 612 q 101 657 113 646 q 74 668 90 668 q 49 663 62 668 q 25 648 36 657 q 7 627 14 639 q 0 603 0 615 q 10 572 0 586 q 35 547 20 557 q 67 532 50 537 q 100 526 85 526 q 154 534 126 526 q 205 554 182 543 q 261 588 235 568 q 306 634 287 608 q 337 690 326 660 q 349 754 349 721 q 341 794 349 777 q 313 823 334 812 q 339 850 323 833 q 372 886 356 867 q 398 925 387 905 q 410 958 410 944 z "},"³":{"ha":383,"x_min":-1,"x_max":408,"o":"m 408 958 q 400 986 408 974 q 378 1006 391 998 q 350 1019 366 1015 q 321 1023 335 1023 q 287 1019 304 1023 q 254 1009 271 1015 q 221 999 237 1003 q 187 994 204 994 l 179 994 q 153 983 163 994 q 142 957 142 972 q 155 928 142 937 q 186 918 168 918 q 220 923 203 918 q 254 933 237 928 q 287 944 271 939 q 321 947 304 948 l 322 947 q 304 926 315 939 q 280 900 293 913 q 255 876 268 886 q 233 860 243 865 q 209 844 218 853 q 200 818 200 836 q 208 793 200 802 q 226 779 215 785 q 249 770 237 774 q 272 760 262 766 l 272 754 q 265 712 273 732 q 243 675 257 692 q 211 645 229 659 q 174 624 193 632 q 138 609 157 616 q 100 603 119 602 l 98 603 q 111 631 111 613 q 99 657 111 646 q 72 668 87 668 q 47 663 60 668 q 24 648 35 657 q 6 627 13 639 q -1 603 -1 615 q 8 572 -1 586 q 33 547 18 557 q 66 532 48 537 q 98 526 83 526 q 154 534 126 526 q 204 554 181 543 q 259 588 233 568 q 306 634 286 608 q 337 690 326 660 q 349 754 349 721 q 340 794 349 777 q 311 823 332 812 q 338 850 321 833 q 370 886 355 867 q 397 925 386 905 q 408 958 408 944 z "},"²":{"ha":390,"x_min":3,"x_max":374,"o":"m 374 672 q 368 693 374 684 q 352 706 361 701 q 331 713 342 711 q 310 715 320 715 q 227 703 267 715 q 146 677 186 690 q 179 710 160 691 q 217 750 197 728 q 255 795 237 771 q 289 842 274 819 q 313 889 304 866 q 322 933 322 913 q 313 971 322 955 q 288 998 303 987 q 254 1015 273 1009 q 215 1021 235 1021 q 178 1015 197 1021 q 142 1003 159 1010 q 107 991 124 997 q 77 986 91 986 q 50 975 61 986 q 39 947 39 963 q 50 921 39 932 q 77 909 61 909 q 112 915 95 909 q 146 927 130 920 q 179 939 163 934 q 214 945 196 945 q 222 945 217 945 q 233 944 228 945 q 242 941 238 943 q 245 935 245 939 q 233 897 245 920 q 200 848 220 874 q 155 795 180 823 q 106 744 130 768 q 60 701 81 720 q 26 672 39 682 q 9 656 16 665 q 3 633 3 648 q 10 611 3 619 q 27 597 17 602 q 51 590 38 592 q 74 589 63 589 q 135 596 105 589 q 194 614 164 604 q 253 631 223 623 q 313 639 282 639 q 324 637 319 639 q 335 635 330 635 q 362 646 351 635 q 374 672 374 658 z "},"¦":{"ha":241,"x_min":18,"x_max":244,"o":"m 244 1158 q 240 1179 244 1169 q 225 1196 235 1188 q 211 1203 218 1201 q 196 1206 203 1206 q 155 1186 172 1206 q 135 1129 141 1166 q 127 1044 129 1091 q 125 943 125 996 q 123 837 125 889 q 115 737 121 784 q 93 656 109 690 q 91 652 92 654 q 90 648 90 651 q 87 633 87 640 q 90 618 88 625 q 122 586 99 595 q 153 586 141 582 q 175 604 166 591 q 189 632 184 617 q 203 692 197 657 q 215 767 210 727 q 224 850 220 807 q 231 935 228 893 q 241 1137 238 1031 q 243 1145 242 1141 q 244 1152 243 1149 q 244 1158 244 1156 m 175 450 q 171 470 175 460 q 155 488 166 480 q 141 495 149 493 q 126 497 134 497 q 104 492 115 497 q 86 478 94 488 q 66 421 72 458 q 58 336 60 383 q 56 234 56 288 q 54 128 56 180 q 45 29 52 76 q 24 -53 39 -18 q 22 -56 22 -55 q 21 -60 21 -58 q 18 -75 18 -68 q 21 -90 19 -83 q 53 -122 29 -114 q 83 -122 71 -126 q 106 -104 97 -117 q 119 -77 115 -91 q 134 -17 127 -52 q 145 59 140 18 q 155 142 151 99 q 161 227 159 185 q 172 429 169 323 q 174 437 173 433 q 175 444 174 440 q 175 450 175 448 z "},"−":{"ha":359,"x_min":9,"x_max":326,"o":"m 326 503 q 316 534 326 522 q 291 551 306 545 q 258 558 276 557 q 227 559 241 559 q 187 559 207 559 q 147 557 167 558 q 116 555 132 555 q 86 554 101 554 q 79 555 83 554 q 74 557 76 557 q 72 555 72 557 q 65 557 68 557 q 58 557 62 557 q 24 543 39 557 q 9 509 9 530 q 17 481 9 492 q 35 465 24 471 q 60 457 46 459 q 87 456 74 456 q 157 458 122 456 q 228 461 192 461 q 253 458 241 461 q 277 454 264 454 q 312 469 298 454 q 326 503 326 483 z "},"×":{"ha":339,"x_min":-3,"x_max":309,"o":"m 182 374 l 182 375 l 182 376 l 182 374 m 249 497 l 245 497 l 249 497 m 294 602 q 264 614 282 614 q 232 606 249 614 q 200 588 216 599 q 170 564 184 576 q 146 542 156 552 q 135 549 140 545 q 123 558 130 553 q 119 564 121 562 q 114 570 116 566 q 96 589 108 582 q 71 596 84 596 q 52 592 61 596 q 36 582 43 588 q 24 565 28 574 q 21 549 21 557 q 31 517 21 533 q 54 489 41 501 q 70 473 64 479 q 82 461 77 467 q 74 452 78 457 q 64 439 69 446 q 58 433 63 438 q 48 424 54 429 q 37 414 42 418 q 31 408 32 410 q 6 384 16 401 q -3 349 -3 366 q 0 334 -3 341 q 8 321 3 326 q 22 310 15 313 q 37 307 30 307 q 58 311 47 307 q 77 321 68 315 q 96 334 87 327 q 111 349 104 342 q 134 371 125 362 q 148 387 143 380 q 156 397 153 393 q 160 404 158 401 q 172 389 166 397 q 182 375 178 381 q 186 363 183 369 q 195 351 189 357 q 231 338 208 338 q 248 341 239 338 q 264 350 256 344 q 276 367 273 358 q 279 385 279 375 q 274 411 279 397 q 260 436 268 424 q 242 460 252 449 q 224 479 232 471 q 236 490 230 486 q 249 497 242 495 q 258 503 252 498 q 271 513 264 507 q 284 523 278 518 q 293 530 290 528 q 304 548 300 538 q 309 567 309 557 q 304 585 309 576 q 294 602 300 594 z "},"Ý":{"ha":503,"x_min":0,"x_max":538,"o":"m 493 673 l 494 674 q 494 676 494 675 q 479 709 494 695 q 444 722 463 722 q 410 708 425 722 q 393 689 400 700 q 379 668 387 677 q 351 628 368 652 q 313 580 334 605 q 270 530 293 555 q 223 486 247 505 q 175 454 199 466 q 129 441 151 441 q 115 443 121 441 q 103 447 109 445 q 98 459 100 452 q 97 472 97 466 q 104 525 97 496 q 121 585 111 554 q 144 644 132 615 q 166 697 156 673 q 184 738 177 721 q 191 758 191 754 q 176 794 191 779 q 140 808 161 808 q 118 803 127 808 q 100 786 109 797 q 77 748 89 772 q 54 695 65 724 q 34 634 43 667 q 16 572 24 602 q 4 516 9 542 q 0 472 0 490 q 34 377 0 410 q 129 343 67 343 q 195 356 163 343 q 257 388 227 368 q 312 433 286 408 q 359 482 338 458 q 344 396 352 443 q 324 303 336 350 q 294 214 312 257 q 249 138 277 171 q 183 85 222 105 q 90 65 144 65 l 81 65 q 58 64 70 65 q 35 59 45 63 q 19 46 25 54 q 12 22 12 37 q 19 -8 12 3 q 36 -25 25 -19 q 60 -32 46 -31 q 90 -33 75 -33 q 212 -8 157 -33 q 308 58 267 16 q 376 155 349 100 q 418 271 404 210 q 446 407 433 338 q 471 543 458 475 q 484 604 477 574 q 493 665 490 635 l 493 673 m 534 1073 q 488 1103 518 1103 q 475 1102 481 1103 q 463 1097 469 1101 q 420 1062 439 1085 q 386 1011 401 1039 q 356 955 370 983 q 330 903 342 926 q 323 892 326 897 q 319 885 321 888 q 317 880 318 882 q 314 877 315 878 q 308 872 312 875 q 295 862 304 870 q 274 823 274 847 q 276 808 274 815 q 281 793 277 801 q 297 778 287 782 q 319 773 308 773 q 335 775 328 773 q 350 780 342 777 q 380 805 366 788 q 406 844 393 822 q 429 890 418 865 q 452 937 440 914 q 477 979 464 960 q 507 1009 491 998 q 529 1027 519 1015 q 538 1055 538 1040 q 534 1073 538 1065 z "},"!":{"ha":332,"x_min":0,"x_max":355,"o":"m 97 244 q 91 247 94 245 q 86 249 88 248 q 97 244 93 249 m 176 241 q 172 276 176 258 q 158 309 167 294 q 134 334 149 324 q 102 343 120 343 q 62 335 81 343 q 30 314 44 328 q 8 283 16 301 q 0 244 0 265 q 6 210 0 227 q 23 179 12 193 q 50 158 35 166 q 85 150 66 150 q 120 157 104 150 q 150 177 137 164 q 169 206 162 189 q 176 241 176 222 m 355 978 q 341 1014 355 999 q 306 1029 327 1029 q 271 1015 283 1029 q 257 979 259 1000 q 250 954 256 972 q 236 913 244 935 q 220 871 228 891 q 210 843 213 851 q 190 790 201 821 q 166 724 178 759 q 141 652 153 689 q 119 579 129 614 q 103 512 109 544 q 97 457 97 481 q 100 433 97 445 q 108 412 102 421 q 123 397 114 403 q 147 392 133 392 q 183 406 168 392 q 197 441 197 420 q 208 531 197 484 q 235 627 219 578 q 269 722 251 675 q 302 808 288 768 q 315 844 307 821 q 333 893 324 867 q 349 942 342 919 q 355 978 355 966 z "},"\"":{"ha":297,"x_min":9,"x_max":319,"o":"m 16 922 l 16 921 l 16 922 m 218 922 l 216 921 l 218 922 m 16 922 l 16 921 l 16 922 m 218 922 l 216 921 l 218 922 m 117 979 q 115 993 115 987 q 115 1003 115 998 l 115 1018 q 115 1032 115 1022 q 111 1067 115 1042 q 111 1069 111 1068 q 110 1072 110 1070 q 111 1076 110 1074 q 111 1080 111 1078 q 113 1086 113 1084 q 113 1092 113 1088 q 98 1126 113 1112 q 62 1141 83 1141 l 61 1141 q 36 1134 45 1141 q 21 1118 26 1128 q 14 1095 16 1107 q 12 1069 12 1082 l 12 1061 q 14 1010 14 1025 q 14 990 14 996 l 14 989 l 14 987 q 15 985 14 987 q 16 981 16 984 q 18 971 17 977 q 19 962 18 966 q 20 953 20 957 q 19 936 20 945 q 16 921 18 927 q 11 909 12 916 q 9 897 9 903 l 9 896 q 24 862 9 876 q 58 848 39 848 l 60 848 q 90 859 79 849 q 107 885 101 869 q 115 918 113 900 q 117 953 117 936 l 117 979 m 318 979 q 317 994 318 987 q 317 1003 317 1000 q 317 1012 317 1009 q 318 1018 318 1015 q 317 1032 318 1022 q 313 1067 316 1042 l 313 1072 l 313 1080 q 314 1087 314 1084 q 314 1092 314 1090 q 300 1126 314 1112 q 265 1141 286 1141 l 262 1141 q 237 1134 247 1141 q 222 1118 228 1128 q 215 1096 217 1108 q 214 1071 214 1083 l 214 1063 q 215 1011 215 1026 q 215 991 215 996 l 215 989 l 215 987 q 217 986 216 987 q 220 971 217 985 q 221 962 221 966 q 221 953 221 958 q 220 936 221 945 q 216 921 219 927 q 212 909 213 916 q 211 897 211 903 l 211 896 q 227 862 212 876 q 261 848 241 848 l 262 848 q 292 859 281 849 q 309 885 303 869 q 317 918 315 900 q 319 953 319 936 q 319 967 319 960 q 318 979 318 973 z "},"#":{"ha":593,"x_min":-11,"x_max":636,"o":"m 456 334 l 454 334 l 453 335 l 456 334 m 389 549 l 366 514 q 340 472 352 492 q 315 431 328 452 q 274 427 296 429 q 231 422 252 425 q 269 480 250 452 q 309 538 289 509 q 348 543 328 541 q 389 549 368 545 m 562 553 l 561 553 l 559 554 l 562 553 m 636 596 q 617 635 636 622 q 574 653 599 648 q 602 705 591 682 q 615 746 613 728 l 615 751 q 600 783 615 770 q 567 796 585 796 q 536 786 548 796 q 518 758 524 775 q 496 713 512 741 q 458 654 479 686 q 421 650 441 652 q 379 646 401 648 q 411 706 399 680 q 424 750 424 732 q 409 786 424 771 q 374 800 395 800 q 344 790 356 800 q 326 762 332 779 q 298 706 319 741 q 252 633 277 671 q 208 630 228 631 q 174 627 187 628 l 170 627 l 158 627 q 152 629 155 628 q 146 629 149 629 q 127 625 136 629 q 111 614 118 621 q 100 598 104 608 q 96 579 96 589 q 103 552 96 562 q 122 536 111 542 q 147 529 133 531 q 174 528 161 528 l 179 528 l 174 518 q 141 464 156 490 q 111 410 126 438 l 66 406 l 62 406 q 57 406 59 406 q 52 407 55 406 q 45 408 48 408 q 39 408 42 408 q 4 394 19 408 q -11 359 -11 380 q -5 334 -11 344 q 11 318 1 324 q 34 310 21 313 q 58 307 46 308 l 53 293 q 35 238 40 267 q 29 179 29 209 q 32 155 29 167 q 40 135 34 144 q 56 121 46 126 q 79 115 65 115 q 114 130 99 115 q 129 164 129 144 q 128 168 129 166 q 127 172 127 170 q 127 179 127 176 q 126 186 126 182 q 138 245 126 212 q 167 314 149 277 q 214 319 191 316 q 261 326 238 323 q 253 308 257 317 q 244 289 249 299 q 219 233 232 263 q 205 174 205 203 q 208 150 205 161 q 217 131 211 139 q 232 117 222 122 q 256 111 241 111 q 291 126 275 111 q 306 160 306 140 q 305 164 306 162 q 304 167 304 165 l 304 168 q 330 251 312 208 q 371 338 347 294 l 406 338 l 411 338 q 434 337 422 338 q 454 334 446 337 q 479 326 467 326 q 515 341 500 326 q 529 376 529 355 q 519 406 529 394 q 496 424 510 417 q 464 433 481 430 q 431 436 447 435 q 472 498 450 468 q 513 558 493 529 l 518 558 q 541 557 528 558 q 561 553 553 556 q 574 548 568 549 q 586 546 580 546 q 605 550 596 546 q 621 561 614 554 q 632 577 628 568 q 636 596 636 586 z "},"$":{"ha":571,"x_min":-46,"x_max":595,"o":"m 290 534 q 252 457 271 496 q 216 378 234 418 l 212 378 q 179 380 196 378 q 146 386 161 382 q 188 466 165 427 q 232 545 210 506 l 290 534 m 435 500 q 394 447 421 470 q 339 408 367 423 q 364 463 351 435 q 390 515 376 490 q 413 509 401 512 q 435 500 425 505 m 364 677 l 336 628 l 288 636 l 306 665 q 364 677 332 673 m 595 688 q 588 712 595 701 q 570 732 581 724 q 546 748 559 741 q 524 760 534 755 l 524 771 q 510 806 524 792 q 475 821 496 821 q 457 817 465 821 q 443 808 449 814 q 432 796 437 803 q 422 781 427 789 l 408 781 l 379 781 q 406 820 393 800 q 435 860 420 840 q 446 890 446 873 q 431 924 446 910 q 396 939 417 939 q 375 934 385 939 q 357 921 366 929 q 326 881 341 903 q 296 836 311 859 q 268 790 281 813 q 240 747 254 768 q 199 730 223 741 q 154 705 176 719 q 117 672 132 690 q 102 632 102 654 q 135 575 102 594 q 100 514 120 549 q 61 439 81 479 q 21 358 41 400 q -13 275 2 316 q -37 197 -28 235 q -46 127 -46 159 q -44 103 -46 115 q -35 81 -41 91 q -19 65 -29 71 q 5 60 -9 60 q 40 74 25 60 q 54 109 54 89 q 57 162 54 140 q 65 204 59 184 q 80 245 71 224 q 102 296 89 267 q 139 287 120 290 q 178 281 158 283 q 167 250 174 269 q 154 210 161 231 q 143 170 148 189 q 139 139 139 151 q 154 103 139 118 q 189 89 168 89 q 221 101 208 89 q 237 132 234 113 q 258 210 245 172 q 286 286 271 248 q 337 301 310 291 q 393 327 365 312 q 447 362 420 342 q 493 405 473 382 q 525 453 513 427 q 536 505 536 478 q 527 542 536 526 q 504 570 518 558 q 472 591 490 583 q 436 606 454 600 l 473 672 q 492 664 484 669 q 509 652 500 658 q 526 642 517 646 q 545 637 534 637 q 564 642 555 637 q 579 653 572 646 q 591 669 587 660 q 595 688 595 677 z "},"%":{"ha":623,"x_min":7,"x_max":591,"o":"m 485 253 q 479 228 485 241 q 463 202 473 214 q 440 183 453 191 q 415 175 428 175 q 385 185 399 175 q 363 208 371 196 l 363 211 l 363 212 q 369 238 363 222 q 384 271 375 254 q 404 301 393 288 q 422 321 414 315 q 446 314 435 321 q 466 298 457 308 q 479 276 474 288 q 485 253 485 264 m 228 726 q 221 701 228 714 q 205 675 215 687 q 183 656 195 664 q 158 648 170 648 q 128 659 142 648 q 106 682 114 669 l 106 685 q 112 710 106 695 q 126 742 117 726 q 144 771 134 758 q 163 791 155 785 q 173 791 168 791 q 183 790 178 790 q 201 779 193 786 q 215 763 209 772 q 224 745 221 754 q 228 726 228 735 m 583 253 q 570 315 583 285 q 535 369 557 345 q 484 407 513 393 q 422 421 455 421 q 362 398 391 421 q 312 343 334 376 q 277 273 290 310 q 264 208 264 237 q 278 157 264 181 q 314 115 292 133 q 363 86 336 96 q 415 75 390 75 q 479 91 448 75 q 532 132 509 106 q 569 189 555 157 q 583 253 583 220 m 591 852 q 578 890 591 874 q 542 907 565 907 q 492 909 517 907 q 441 911 467 911 q 409 909 431 911 q 360 906 387 908 q 303 903 332 905 q 246 899 273 901 q 197 895 218 897 q 164 893 175 893 q 104 871 133 893 q 54 816 76 848 q 20 747 33 783 q 7 682 7 710 q 21 631 7 655 q 57 588 35 606 q 106 559 79 570 q 158 549 133 549 q 222 564 192 549 q 276 605 252 580 q 313 662 299 631 q 326 726 326 694 q 320 768 326 747 q 304 807 315 788 q 386 810 345 807 q 467 815 426 813 q 406 719 438 766 q 342 625 374 672 q 280 549 315 587 q 209 474 245 512 q 138 398 173 437 q 75 317 102 359 q 31 230 47 275 q 14 134 14 184 q 16 109 14 121 q 25 89 19 98 q 40 75 31 80 q 64 69 50 69 q 99 84 83 69 q 114 118 114 98 q 126 183 114 149 q 160 252 139 217 q 207 321 180 286 q 260 387 233 355 q 312 448 287 419 q 357 498 338 476 q 389 537 368 511 q 436 598 410 564 q 490 671 463 633 q 540 745 517 710 q 577 809 562 781 q 591 852 591 838 z "},"&":{"ha":1147,"x_min":0,"x_max":1128,"o":"m 1032 781 q 1014 647 1032 718 q 962 508 996 576 q 883 377 929 439 q 780 267 836 314 q 660 191 724 219 q 528 163 596 163 q 422 176 475 163 q 322 215 370 190 q 233 275 275 239 q 162 353 192 310 q 114 447 132 397 q 97 553 97 498 q 98 582 97 568 q 103 611 100 596 q 161 469 120 536 q 260 350 202 401 q 391 268 319 298 q 541 237 463 237 q 696 267 629 237 q 815 348 764 297 q 902 467 866 399 q 962 611 938 535 q 978 668 972 640 q 983 726 983 696 q 967 820 983 777 q 923 899 951 863 q 860 967 896 936 q 785 1025 824 998 q 736 1047 762 1040 q 685 1054 711 1054 q 621 1043 656 1054 q 549 1015 585 1033 q 477 972 513 997 q 413 921 442 948 q 362 864 383 893 q 332 806 340 834 q 323 745 323 777 q 331 677 323 712 q 354 609 339 642 q 389 546 368 576 q 437 493 410 516 q 496 457 464 471 q 564 444 528 444 q 646 461 606 444 q 719 507 687 478 q 771 575 751 536 q 791 657 791 614 q 778 724 791 688 q 743 790 765 760 q 690 840 720 820 q 625 860 660 860 q 572 848 600 860 q 516 819 544 836 q 464 783 489 802 q 421 750 439 764 q 436 796 422 772 q 472 843 450 820 q 524 887 495 866 q 582 924 553 908 q 638 949 611 939 q 685 958 665 958 q 729 945 709 958 q 786 904 758 927 q 836 853 814 881 q 872 794 859 826 q 886 726 886 762 q 882 683 886 705 q 871 642 877 661 q 824 525 851 581 q 757 427 796 469 q 665 359 718 385 q 542 334 612 334 q 450 349 494 334 q 365 391 405 364 q 293 453 326 417 q 237 531 260 489 q 200 618 213 572 q 187 710 187 664 q 212 830 187 774 q 278 932 237 886 q 375 1014 320 978 q 491 1075 431 1050 q 614 1112 552 1099 q 733 1125 677 1125 q 779 1123 755 1125 q 826 1115 802 1121 q 870 1100 849 1109 q 908 1075 892 1090 q 1002 941 971 1019 q 1032 779 1032 864 l 1032 781 m 696 659 q 684 614 696 635 q 652 577 671 593 q 609 551 633 561 q 564 542 586 542 q 520 553 541 542 q 485 582 500 565 q 457 621 469 600 q 437 661 446 642 q 440 661 439 661 q 443 660 441 660 q 484 676 461 660 q 531 711 507 692 q 579 746 555 730 q 624 762 604 762 q 649 750 636 762 q 672 721 662 738 q 689 687 683 705 q 696 659 696 669 m 1128 779 q 1118 881 1128 831 q 1089 979 1109 932 q 1041 1069 1070 1027 q 974 1147 1013 1112 q 921 1184 949 1169 q 861 1207 892 1198 q 798 1219 830 1215 q 733 1222 765 1222 q 598 1208 668 1222 q 462 1168 529 1194 q 333 1102 395 1141 q 223 1013 272 1063 q 140 902 174 963 q 96 771 106 842 q 65 759 79 771 q 40 726 51 746 q 22 682 29 707 q 9 633 14 657 q 2 587 5 608 q 0 553 0 566 q 21 421 0 484 q 78 304 41 358 q 165 205 115 250 q 274 130 215 161 q 397 82 332 99 q 528 65 462 65 q 687 97 610 65 q 830 183 763 129 q 951 308 897 237 q 1045 458 1006 379 q 1106 621 1084 538 q 1128 779 1128 703 z "},"'":{"ha":109,"x_min":9,"x_max":117,"o":"m 16 922 l 16 921 l 16 922 m 16 922 l 16 921 l 16 922 m 117 979 q 115 993 115 987 q 115 1003 115 998 l 115 1018 q 115 1032 115 1022 q 111 1067 115 1042 q 111 1069 111 1068 q 110 1072 110 1070 q 111 1076 110 1074 q 111 1080 111 1078 q 113 1086 113 1084 q 113 1092 113 1088 q 98 1126 113 1112 q 62 1141 83 1141 l 61 1141 q 36 1134 45 1141 q 21 1118 26 1128 q 14 1095 16 1107 q 12 1069 12 1082 l 12 1061 q 14 1010 14 1025 q 14 990 14 996 l 14 989 l 14 987 q 15 985 14 987 q 16 981 16 984 q 18 971 17 977 q 19 962 18 966 q 20 953 20 957 q 19 936 20 945 q 16 921 18 927 q 11 909 12 916 q 9 897 9 903 l 9 896 q 24 862 9 876 q 58 848 39 848 l 60 848 q 90 859 79 849 q 107 885 101 869 q 115 918 113 900 q 117 953 117 936 l 117 979 z "},"(":{"ha":307,"x_min":-8,"x_max":298,"o":"m 297 743 q 298 749 298 747 q 298 754 298 752 q 288 785 298 771 q 261 803 278 799 q 255 804 258 804 q 249 804 252 804 q 227 799 237 804 q 210 783 217 793 q 144 710 177 743 q 82 642 111 676 q 31 570 54 608 q -3 482 9 532 q -7 456 -6 469 q -8 431 -8 443 q 7 361 -8 393 q 50 294 22 329 q 125 226 83 252 q 221 200 168 200 l 222 200 q 252 210 239 200 q 269 237 265 220 l 269 249 q 259 279 269 265 q 232 297 249 293 l 228 297 l 225 297 q 220 298 221 297 q 177 322 192 312 q 151 342 161 332 q 133 367 141 353 q 111 403 125 381 q 108 411 111 404 q 102 424 105 417 q 97 437 100 431 q 92 444 94 444 l 92 450 q 92 456 92 454 q 93 463 92 459 q 117 522 100 492 q 156 579 134 551 q 202 631 178 606 q 246 678 226 656 q 281 716 267 699 q 297 743 295 732 z "},")":{"ha":325,"x_min":-26,"x_max":293,"o":"m 293 447 q 280 541 293 498 q 247 623 267 583 q 202 703 227 663 q 154 789 178 743 q 109 819 141 819 q 74 805 89 819 q 60 771 60 791 q 70 740 60 760 q 95 695 80 720 q 128 640 110 669 q 161 578 146 610 q 186 514 176 547 q 196 450 196 481 q 195 441 196 446 q 193 432 195 436 q 187 426 191 431 q 179 415 183 421 q 171 403 174 409 q 165 396 167 397 q 136 366 147 378 q 113 347 125 355 q 83 332 100 338 q 36 319 66 326 l 35 318 q 28 319 31 318 q 24 321 26 321 q -12 306 3 321 q -26 271 -26 292 q -16 241 -26 254 q 11 224 -5 228 q 33 219 22 220 q 54 218 43 218 q 130 234 94 218 q 200 277 166 250 q 240 312 223 294 q 270 350 258 330 q 287 394 281 370 q 293 447 293 418 z "},"*":{"ha":585,"x_min":-5,"x_max":627,"o":"m 627 839 q 612 873 627 859 q 578 888 597 888 q 535 884 561 888 q 480 874 509 880 q 425 863 452 869 q 379 854 397 858 q 416 909 397 880 q 458 960 435 939 q 470 976 466 967 q 475 997 475 985 q 460 1031 475 1017 q 427 1046 446 1046 q 400 1038 411 1046 q 379 1019 389 1030 q 390 1064 383 1040 q 396 1108 396 1087 q 381 1144 396 1129 q 347 1158 367 1158 q 316 1147 328 1158 q 298 1118 303 1136 q 275 1011 285 1065 q 256 903 266 958 q 210 992 233 947 q 170 1084 187 1038 q 151 1109 163 1100 q 122 1118 139 1118 q 88 1104 102 1118 q 74 1069 74 1089 q 81 1043 74 1062 q 99 999 88 1024 q 124 946 111 974 q 150 893 137 918 q 172 849 162 868 q 186 821 182 829 l 35 794 q 6 777 17 791 q -5 746 -5 764 q -1 727 -5 736 q 9 712 3 718 q 24 701 16 705 q 43 697 33 697 q 102 704 71 697 q 161 717 134 711 q 146 696 156 709 q 125 666 137 682 q 100 632 113 650 q 74 600 87 615 q 51 574 62 585 q 33 559 40 564 q 14 541 22 552 q 7 515 7 529 q 11 496 7 505 q 22 480 15 488 q 38 469 28 473 q 57 465 47 465 q 95 481 75 465 q 136 520 116 498 q 172 565 155 543 q 199 600 189 588 q 186 528 193 566 q 179 456 179 491 q 194 421 179 436 q 228 407 208 407 q 263 421 249 407 q 278 456 278 436 q 286 534 278 493 q 300 611 294 574 q 314 586 305 602 q 335 551 323 570 q 359 514 347 533 q 386 480 372 496 q 413 455 399 465 q 439 446 427 446 q 458 450 449 446 q 474 460 467 454 q 485 476 481 467 q 489 496 489 486 q 484 515 489 507 q 472 532 479 524 q 438 575 456 547 q 400 635 419 604 q 365 697 382 667 q 338 747 349 727 l 586 790 q 615 807 604 793 q 627 839 627 821 z "},"+":{"ha":355,"x_min":0,"x_max":323,"o":"m 250 428 l 249 429 l 250 428 m 208 561 l 207 561 l 207 559 l 208 561 m 323 471 q 312 503 323 491 q 282 521 300 515 q 244 529 264 527 q 207 530 224 530 l 203 530 q 204 547 204 539 q 207 561 205 555 q 210 571 209 564 q 212 588 212 579 q 213 606 213 597 q 214 616 214 614 q 199 651 214 636 q 165 667 185 667 q 132 650 144 667 q 114 611 120 634 q 106 562 108 587 q 104 518 104 536 q 91 516 98 517 q 77 514 85 515 l 74 514 q 68 515 71 514 q 62 515 66 515 q 56 517 59 517 q 50 517 54 517 q 15 503 31 517 q 0 468 0 489 q 7 440 0 451 q 26 425 14 430 q 51 417 37 419 q 78 415 65 415 q 101 416 92 415 q 118 416 111 416 q 119 404 119 410 q 121 387 119 397 l 121 379 l 121 343 q 119 337 119 340 q 118 329 118 334 q 122 307 118 318 q 133 286 126 295 q 149 271 140 277 q 168 265 158 265 q 195 275 184 265 q 211 298 205 284 q 218 329 216 313 q 220 358 220 345 q 219 392 220 378 q 217 413 218 405 q 215 425 216 421 q 212 432 214 429 q 232 432 222 432 q 250 428 243 431 q 275 421 262 421 q 309 435 295 421 q 323 471 323 450 z "},",":{"ha":221,"x_min":-100,"x_max":178,"o":"m 178 68 l 178 89 q 176 137 178 111 q 167 185 174 163 q 145 221 160 207 q 104 236 130 236 q 70 221 85 236 q 56 186 56 207 q 59 173 56 178 q 67 158 63 168 q 76 127 72 147 q 79 68 79 106 q 74 20 79 42 q 56 -17 68 -1 q 24 -41 44 -33 q -24 -50 5 -50 l -28 -50 q -54 -51 -41 -50 q -77 -57 -66 -52 q -93 -71 -87 -61 q -100 -98 -100 -81 q -93 -125 -100 -115 q -74 -140 -85 -135 q -50 -147 -63 -145 q -24 -149 -36 -149 q 63 -132 26 -149 q 126 -87 101 -116 q 165 -18 152 -58 q 178 68 178 22 z "},"-":{"ha":351,"x_min":-4,"x_max":321,"o":"m 321 475 q 309 507 321 495 q 278 525 296 519 q 240 533 260 531 q 203 534 220 534 l 192 534 q 161 533 172 534 q 139 529 150 531 q 114 524 128 526 q 74 518 100 521 l 69 518 q 64 519 66 518 q 58 519 62 519 q 52 521 55 521 q 46 521 50 521 q 11 507 26 521 q -4 472 -4 493 q 3 445 -4 456 q 21 429 10 435 q 45 421 32 423 q 72 419 59 419 l 74 419 q 111 422 97 419 q 137 428 125 425 q 161 433 149 431 q 195 436 174 436 l 196 436 q 221 436 206 436 q 245 432 235 436 q 271 425 258 425 q 306 439 290 425 q 321 475 321 454 z "},".":{"ha":184,"x_min":0,"x_max":142,"o":"m 142 227 q 137 250 142 239 q 125 270 133 262 q 106 284 117 279 q 82 289 95 289 q 50 279 65 289 q 24 256 35 270 q 6 224 13 241 q 0 192 0 208 q 4 167 0 179 q 17 146 9 155 q 36 132 25 137 q 60 126 47 126 q 93 136 77 126 q 119 160 108 145 q 136 193 130 175 q 142 227 142 210 z "},"/":{"ha":586,"x_min":-1,"x_max":628,"o":"m 628 1071 q 624 1090 628 1081 q 613 1106 620 1099 q 597 1117 606 1113 q 578 1121 588 1121 q 548 1111 560 1121 q 530 1083 536 1100 q 515 1048 526 1070 q 488 1001 503 1027 q 455 947 473 975 q 421 893 437 919 q 390 845 404 867 q 367 811 376 824 q 319 741 349 785 q 255 644 290 696 q 183 534 220 591 q 114 424 146 477 q 58 323 82 370 q 22 248 33 277 q 5 191 12 220 q -1 134 -1 163 q 1 109 -1 121 q 9 89 3 98 q 25 75 16 80 q 49 69 35 69 q 83 84 68 69 q 98 118 98 98 q 98 122 98 120 q 97 126 97 124 l 97 135 q 112 198 97 159 q 152 286 127 237 q 212 391 178 334 q 284 507 245 448 q 362 628 322 567 q 441 747 403 689 q 513 857 479 804 q 573 952 547 909 q 613 1026 598 995 q 628 1071 628 1057 z "},":":{"ha":203,"x_min":0,"x_max":172,"o":"m 142 227 q 137 250 142 239 q 125 270 133 262 q 106 284 117 279 q 82 289 95 289 q 50 279 65 289 q 24 256 35 270 q 6 224 13 241 q 0 192 0 208 q 4 167 0 179 q 17 146 9 155 q 36 132 25 137 q 60 126 47 126 q 93 136 77 126 q 119 160 108 145 q 136 193 130 175 q 142 227 142 210 m 172 608 q 168 632 172 621 q 155 652 163 644 q 136 666 147 661 q 113 671 125 671 q 80 661 96 671 q 54 637 65 652 q 37 606 43 623 q 31 574 31 589 q 35 549 31 561 q 47 528 39 537 q 66 514 56 519 q 90 509 77 509 q 123 518 108 509 q 149 543 138 528 q 166 575 160 557 q 172 608 172 592 z "},";":{"ha":221,"x_min":-100,"x_max":187,"o":"m 178 68 l 178 89 q 176 137 178 111 q 167 185 174 163 q 145 221 160 207 q 104 236 130 236 q 70 221 85 236 q 56 186 56 207 q 59 173 56 178 q 67 158 63 168 q 76 127 72 147 q 79 68 79 106 q 74 20 79 42 q 56 -17 68 -1 q 24 -41 44 -33 q -24 -50 5 -50 l -28 -50 q -54 -51 -41 -50 q -77 -57 -66 -52 q -93 -71 -87 -61 q -100 -98 -100 -81 q -93 -125 -100 -115 q -74 -140 -85 -135 q -50 -147 -63 -145 q -24 -149 -36 -149 q 63 -132 26 -149 q 126 -87 101 -116 q 165 -18 152 -58 q 178 68 178 22 m 187 608 q 171 652 187 633 q 127 671 154 671 q 96 661 111 671 q 70 637 81 652 q 53 606 59 623 q 46 574 46 589 q 51 549 46 561 q 63 528 55 537 q 82 514 71 519 q 106 509 93 509 q 138 518 123 509 q 164 543 153 528 q 181 575 175 557 q 187 608 187 592 z "},"<":{"ha":414,"x_min":-20,"x_max":385,"o":"m 378 610 q 383 622 382 616 q 385 636 385 629 q 379 660 385 649 q 363 677 374 670 q 338 686 350 686 q 322 684 330 686 q 309 677 315 682 q 224 627 264 651 q 149 580 185 604 q 79 531 113 556 q 11 475 45 505 q -12 444 -5 460 q -20 412 -20 428 q -1 359 -20 385 q 49 314 18 334 q 115 272 87 290 q 170 241 142 255 q 228 216 197 227 q 302 192 259 204 q 311 190 307 190 q 318 189 314 189 q 341 194 331 189 q 359 211 352 199 q 366 224 364 218 q 367 237 367 230 q 345 279 367 264 q 340 282 342 281 q 334 285 337 283 q 264 309 292 299 q 213 331 237 319 q 163 358 189 343 q 102 397 138 374 q 87 407 93 401 q 90 416 89 411 q 94 424 91 420 q 139 455 113 438 q 194 489 165 471 q 254 524 224 507 q 309 558 283 542 q 353 587 334 574 q 378 610 372 600 z "},"=":{"ha":375,"x_min":0,"x_max":342,"o":"m 74 463 l 71 464 l 72 464 l 74 463 m 342 435 q 338 454 342 445 q 327 470 334 463 q 311 481 319 477 q 292 485 302 485 q 275 481 283 485 q 238 472 260 476 q 192 466 216 469 q 146 463 168 464 q 107 461 123 461 l 100 461 q 86 461 94 461 q 72 464 79 462 q 61 468 66 467 q 50 469 56 469 q 15 455 29 469 q 0 421 0 441 q 12 388 0 400 q 42 371 24 376 q 80 364 60 365 q 114 363 100 363 q 158 365 132 363 q 213 370 184 366 q 268 378 241 373 q 310 389 294 382 q 333 407 323 394 q 342 435 342 419 m 342 549 q 332 580 342 568 q 306 597 321 591 q 274 604 291 603 q 241 606 256 606 q 202 605 222 606 q 163 603 182 604 q 132 601 147 602 q 102 600 116 600 q 95 602 98 600 q 89 603 91 603 q 87 602 87 603 q 81 603 84 603 q 74 603 78 603 q 40 589 55 603 q 25 554 25 575 q 32 527 25 537 q 51 511 39 516 q 76 503 62 505 q 103 501 90 501 q 173 504 138 501 q 243 507 208 507 q 268 504 256 507 q 292 500 279 500 q 327 514 313 500 q 342 549 342 529 z "},">":{"ha":447,"x_min":4,"x_max":408,"o":"m 378 395 q 408 457 408 422 q 390 509 408 484 q 340 554 371 534 q 274 596 302 578 q 219 628 246 614 q 161 653 192 642 q 86 677 130 665 q 79 680 83 679 q 71 681 75 681 q 47 675 58 681 q 29 659 37 669 q 22 632 22 644 q 45 589 22 605 q 50 586 48 587 q 56 583 52 585 q 125 559 97 570 q 177 537 153 549 q 226 511 201 526 q 288 472 251 496 q 295 467 292 470 q 301 461 298 465 q 299 453 300 457 q 294 446 298 448 q 250 414 277 431 q 194 380 224 397 q 135 345 165 362 q 80 312 105 328 q 36 282 54 296 q 11 260 17 269 q 4 233 4 246 q 10 209 4 220 q 26 192 16 198 q 53 183 38 183 q 81 192 68 183 q 165 241 125 218 q 241 289 205 264 q 311 338 277 313 q 378 395 345 364 z "},"?":{"ha":497,"x_min":0,"x_max":532,"o":"m 142 257 q 137 281 142 269 q 125 301 133 292 q 106 314 117 309 q 82 319 95 319 q 50 310 65 319 q 24 286 35 300 q 6 255 13 272 q 0 222 0 238 q 4 197 0 210 q 17 176 9 185 q 36 162 25 168 q 60 157 47 157 q 93 166 77 157 q 119 191 108 176 q 136 223 130 205 q 142 257 142 241 m 532 839 q 520 891 532 869 q 489 926 509 912 q 445 945 470 939 q 393 951 420 951 q 348 948 375 951 q 291 939 321 945 q 232 921 262 932 q 179 896 203 911 q 141 863 155 882 q 126 821 126 844 q 137 782 126 800 q 166 751 149 764 q 205 732 184 739 q 245 725 226 725 q 280 740 265 725 q 294 775 294 755 q 284 805 294 792 q 257 822 274 819 q 324 844 288 835 q 392 852 359 852 q 414 851 401 852 q 433 844 426 850 l 433 840 q 407 775 433 810 q 341 704 380 741 q 255 631 301 668 q 169 560 209 595 q 103 495 130 526 q 77 439 77 464 q 81 420 77 429 q 92 404 85 411 q 107 393 98 397 q 126 389 116 389 q 155 398 142 389 q 174 424 168 408 q 196 456 178 438 q 240 496 214 475 q 298 543 267 518 q 362 594 330 567 q 425 650 395 621 q 479 710 456 680 q 517 773 503 741 q 532 839 532 806 z "},"@":{"ha":956,"x_min":0,"x_max":925,"o":"m 551 673 q 525 656 534 669 q 515 627 515 643 q 514 594 515 614 q 508 549 512 573 q 498 500 505 524 q 482 455 492 475 q 460 422 473 435 q 431 410 447 410 q 400 423 408 410 q 393 456 393 436 q 398 499 393 473 q 413 552 404 524 q 437 607 423 580 q 468 657 451 635 q 505 692 485 679 q 547 705 525 705 l 550 705 l 551 673 m 925 507 q 910 542 925 528 q 876 557 896 557 q 845 547 859 557 q 828 519 832 536 q 806 460 820 491 q 775 399 792 429 q 739 341 758 369 q 703 290 720 313 q 665 258 688 272 q 614 236 642 245 q 555 221 587 227 q 494 212 524 215 q 435 208 463 209 q 386 207 408 207 q 247 220 302 207 q 159 267 192 233 q 112 357 126 300 q 98 501 98 414 q 118 639 98 572 q 173 764 138 705 q 258 870 209 822 q 366 952 307 918 q 492 1006 425 987 q 629 1025 559 1025 q 697 1017 667 1025 q 751 992 728 1009 q 785 948 773 975 q 798 880 798 920 q 786 794 798 842 q 754 698 774 746 q 709 608 734 650 q 657 538 684 565 q 653 567 654 551 q 652 597 652 582 q 652 629 652 613 q 653 661 653 646 q 650 715 653 689 q 636 761 647 741 q 605 793 625 781 q 549 806 584 806 q 469 788 506 806 q 403 737 431 770 q 363 678 383 714 q 329 603 344 642 q 304 524 313 563 q 294 454 294 484 q 304 397 294 424 q 331 352 313 371 q 374 322 349 333 q 432 311 399 311 q 488 323 463 311 q 532 356 513 336 q 565 402 551 376 q 587 456 578 429 q 647 428 611 428 q 695 443 671 428 q 740 481 718 458 q 780 535 761 505 q 815 596 800 566 q 843 654 831 627 q 861 701 854 682 q 886 789 877 744 q 896 879 896 834 q 876 986 896 941 q 821 1063 857 1032 q 737 1108 786 1093 q 631 1124 688 1124 q 467 1101 547 1124 q 318 1038 388 1078 q 189 940 248 997 q 89 814 131 883 q 23 666 47 745 q 0 503 0 587 q 22 314 0 390 q 93 193 45 239 q 216 127 140 146 q 396 107 291 107 q 496 112 442 107 q 604 130 551 117 q 704 167 657 143 q 782 229 751 191 q 805 262 791 241 q 835 309 819 283 q 867 362 851 334 q 896 418 883 391 q 917 468 909 445 q 925 507 925 492 z "},"A":{"ha":754,"x_min":0,"x_max":724,"o":"m 489 749 q 487 641 489 694 q 481 533 485 588 q 360 475 421 503 q 239 422 300 448 q 267 484 250 447 q 304 563 283 521 q 348 650 325 606 q 395 734 372 694 q 440 805 418 774 q 479 852 462 836 q 485 827 483 838 q 488 806 487 816 q 489 785 489 795 q 489 762 489 775 l 489 749 m 724 591 q 720 610 724 602 q 708 626 715 619 q 692 637 701 633 q 673 642 684 642 q 653 635 665 642 q 629 619 642 628 q 604 601 616 610 q 583 587 591 592 q 587 665 585 626 q 589 742 589 703 l 589 764 q 586 826 589 791 q 574 890 584 860 q 544 941 564 920 q 489 961 524 961 q 429 942 458 961 q 375 895 400 922 q 330 837 349 867 q 298 785 310 806 l 297 785 q 273 778 283 785 q 254 758 262 771 q 227 711 243 742 q 191 642 210 681 q 149 557 171 603 q 106 465 127 512 q 65 373 85 418 q 32 289 46 328 q 8 220 17 250 q 0 175 0 191 q 15 129 0 148 q 58 110 30 110 q 87 121 73 110 q 113 150 100 132 q 137 189 126 168 q 158 232 149 211 q 175 271 168 253 q 186 300 182 290 l 189 300 q 221 307 199 300 q 271 327 243 315 q 331 353 300 338 q 390 380 362 367 q 440 404 418 393 q 471 418 462 414 q 466 375 469 397 q 459 331 463 353 q 454 287 456 309 q 452 245 452 265 q 466 211 452 225 q 500 196 480 196 q 533 208 519 196 q 550 239 546 220 q 560 295 556 266 q 566 354 564 324 q 570 413 568 383 q 575 469 572 442 q 598 483 584 475 q 630 500 613 490 q 663 520 646 509 q 693 543 680 531 q 715 567 707 555 q 724 591 724 579 z "},"B":{"ha":545,"x_min":0,"x_max":534,"o":"m 433 907 q 407 863 425 888 q 367 812 389 838 q 323 764 345 787 q 288 726 302 741 q 298 745 291 734 q 311 767 304 755 q 323 790 318 779 q 328 808 328 801 q 317 839 328 825 q 290 857 306 852 q 323 871 304 863 q 360 886 341 879 q 399 900 380 894 q 433 907 418 905 m 534 924 q 527 959 534 944 q 508 985 520 975 q 479 1001 496 996 q 444 1006 463 1006 q 375 995 414 1006 q 298 969 337 985 q 222 935 258 954 q 160 901 186 917 q 142 883 149 894 q 135 859 135 872 q 149 823 135 838 q 184 808 163 808 q 208 815 197 808 q 231 828 219 821 q 211 793 224 819 q 181 731 198 767 q 143 652 163 696 q 103 564 123 609 q 64 476 83 519 q 31 396 45 433 q 8 333 17 359 q 0 296 0 307 q 16 263 0 277 q 50 250 31 250 q 82 261 66 250 q 94 276 90 269 q 100 296 98 284 q 110 329 102 309 q 127 373 117 349 q 148 421 136 396 q 169 471 159 447 q 189 515 180 494 q 204 549 198 535 q 247 544 218 545 q 306 542 275 543 q 366 534 337 540 q 411 515 395 529 q 384 455 406 490 q 335 386 363 420 q 280 320 308 351 q 232 271 252 289 q 233 278 233 275 q 233 285 233 281 q 219 319 233 304 q 183 334 205 334 q 149 318 167 334 q 116 281 131 302 q 92 236 101 259 q 82 196 82 212 q 105 144 82 162 q 160 126 127 126 q 225 148 189 126 q 301 203 262 169 q 378 281 340 238 q 445 368 416 324 q 493 452 475 412 q 511 519 511 492 q 494 573 511 551 q 450 608 476 594 q 394 628 424 621 q 339 639 364 635 q 396 696 363 661 q 460 770 429 730 q 513 849 491 809 q 534 924 534 890 z "},"C":{"ha":510,"x_min":0,"x_max":479,"o":"m 478 690 q 479 705 478 696 q 479 721 479 713 q 477 780 479 748 q 466 839 475 811 q 438 884 456 866 q 389 903 420 903 q 318 883 356 903 q 241 832 280 864 q 166 760 203 800 q 98 679 129 720 q 46 600 68 638 q 16 532 24 561 q 0 432 0 483 q 19 342 0 379 q 70 281 38 304 q 145 248 102 258 q 235 237 187 237 q 281 239 256 237 q 333 245 307 241 q 384 255 359 250 q 429 268 409 261 q 454 287 444 275 q 464 315 464 298 q 460 335 464 326 q 449 351 456 344 q 433 361 441 357 q 414 366 424 366 q 406 365 410 366 q 399 363 403 364 q 316 345 358 351 q 232 338 275 338 q 183 341 207 338 q 140 355 159 345 q 110 384 121 365 q 98 433 98 403 q 102 469 98 451 q 110 505 106 488 q 133 556 117 528 q 171 614 149 585 q 218 673 193 644 q 271 727 244 702 q 324 771 298 752 q 372 800 350 790 q 378 741 378 770 q 379 682 379 711 q 380 656 379 669 q 386 631 381 642 q 401 614 391 621 q 428 607 411 607 q 457 614 447 607 q 472 634 467 622 q 477 660 477 646 q 478 689 478 675 l 478 690 z "},"D":{"ha":449,"x_min":-74,"x_max":416,"o":"m 416 628 q 412 694 416 661 q 396 758 407 727 q 370 818 386 789 q 330 871 353 846 q 294 904 315 888 q 251 933 274 920 q 203 954 228 946 q 155 962 179 962 q 115 949 132 962 q 98 913 98 937 q 102 894 98 903 q 113 878 106 885 q 129 867 120 871 q 149 863 138 863 q 153 863 151 863 q 157 864 155 864 q 180 858 168 863 q 203 847 193 852 q 187 810 198 836 q 160 747 176 783 q 127 668 145 711 q 92 581 110 625 q 57 493 74 536 q 28 414 41 450 q 8 351 16 378 q 0 314 0 325 q 15 279 0 293 q 50 265 31 265 q 83 279 72 265 q 98 313 95 293 q 108 348 102 330 q 121 385 114 366 q 136 420 129 403 q 150 454 144 438 q 214 615 182 536 q 279 775 247 694 q 309 703 300 741 q 318 627 318 665 q 295 470 318 541 q 227 343 271 398 q 116 250 182 288 q -35 195 50 212 q -63 177 -52 191 q -74 146 -74 163 q -59 112 -74 126 q -25 97 -45 97 l -16 97 q 106 134 45 108 q 218 199 166 160 q 311 288 271 238 q 374 397 352 338 q 405 510 393 452 q 416 628 416 569 z "},"E":{"ha":363,"x_min":0,"x_max":328,"o":"m 328 328 q 313 362 328 347 q 278 376 298 376 q 247 370 267 376 q 205 356 228 364 q 158 342 182 349 q 113 336 134 336 q 106 336 109 336 q 100 338 103 336 q 112 378 102 357 q 135 422 121 399 q 165 467 149 444 q 193 512 180 490 q 215 555 206 534 q 224 593 224 575 q 210 634 224 620 q 178 657 197 648 q 138 672 159 666 q 102 689 117 678 q 128 721 109 703 q 170 757 147 739 q 214 790 192 774 q 250 815 236 805 q 272 857 272 831 q 258 891 272 877 q 224 905 243 905 q 189 894 211 905 q 143 865 168 883 q 93 823 118 846 q 46 775 67 800 q 13 727 26 751 q 0 685 0 703 q 11 643 0 661 q 38 612 21 625 q 75 591 54 600 q 114 576 95 583 q 80 521 100 551 q 43 459 60 491 q 14 394 26 427 q 1 334 1 362 q 11 290 1 308 q 35 260 20 271 q 72 243 51 248 q 115 237 92 237 q 159 241 136 237 q 207 251 183 245 q 254 265 231 257 q 296 282 277 273 q 319 300 311 288 q 328 328 328 312 z "},"F":{"ha":533,"x_min":-16,"x_max":653,"o":"m 653 875 q 644 905 653 895 q 620 922 634 916 q 589 929 606 928 q 558 930 572 930 q 496 925 530 930 q 425 912 462 920 q 348 892 387 903 q 273 868 309 881 q 203 843 236 856 q 144 817 170 829 q 114 777 118 807 q 95 637 103 707 q 75 498 87 568 q 50 504 64 504 q 15 490 29 504 q 0 456 0 475 q 5 434 0 444 q 17 418 9 425 q 35 408 25 412 q 56 400 45 404 q 46 357 52 382 q 33 304 41 331 q 17 253 26 277 q -3 215 7 229 q -12 200 -8 208 q -16 183 -16 193 q -12 164 -16 173 q 0 149 -7 155 q 16 138 7 142 q 35 134 24 134 q 68 149 53 134 q 96 190 83 165 q 118 244 109 214 q 135 303 128 275 q 148 357 142 332 q 155 395 153 382 q 199 404 175 397 q 250 419 224 410 q 304 436 277 427 q 355 453 331 446 q 400 466 380 460 q 433 471 420 471 q 437 470 435 471 q 440 469 438 469 q 459 473 450 469 q 475 484 468 477 q 486 500 482 491 q 490 519 490 509 q 473 556 490 543 q 435 570 456 570 q 371 561 404 570 q 304 541 338 553 q 238 517 271 529 q 175 498 205 505 q 194 617 186 558 q 210 737 202 677 q 288 767 242 751 q 382 798 333 783 q 477 822 431 812 q 558 832 524 832 q 581 829 570 832 q 603 827 592 827 q 638 841 624 827 q 653 875 653 855 z "},"G":{"ha":625,"x_min":-3,"x_max":636,"o":"m 636 892 q 622 927 636 913 q 586 942 607 942 q 528 919 563 942 q 451 858 493 896 q 362 768 409 819 q 270 662 316 718 q 181 551 224 607 q 103 444 138 494 q 44 354 68 394 q 11 290 20 313 q 0 253 3 273 q -3 215 -3 234 q 7 160 -3 186 q 35 116 17 134 q 77 86 52 97 q 132 75 102 75 q 209 85 163 75 q 304 112 254 94 q 404 154 354 129 q 493 209 454 178 q 557 274 532 239 q 582 347 582 309 q 573 386 582 371 q 549 411 564 401 q 515 424 534 420 q 476 428 496 428 q 419 424 451 428 q 353 412 387 419 q 289 395 320 404 q 235 375 258 385 q 210 357 219 369 q 200 328 200 345 q 215 294 200 308 q 250 279 231 279 q 288 287 262 279 q 348 303 315 294 q 415 320 380 313 q 476 329 449 328 q 441 293 465 311 q 387 257 418 274 q 321 224 356 239 q 251 198 286 209 q 186 180 217 186 q 135 174 156 174 q 105 185 115 174 q 96 215 96 197 q 113 272 96 235 q 160 353 131 308 q 229 451 190 399 q 310 555 267 503 q 396 656 352 607 q 478 744 439 705 q 549 810 517 783 q 600 844 581 837 q 626 862 616 850 q 636 892 636 874 z "},"H":{"ha":623,"x_min":0,"x_max":593,"o":"m 513 671 l 509 668 l 511 669 l 513 671 m 593 633 q 578 668 593 653 q 545 682 564 682 q 511 669 526 682 q 476 657 495 661 q 487 700 479 669 q 504 770 494 731 q 524 852 513 810 q 543 932 534 895 q 558 994 552 968 q 564 1023 564 1019 q 549 1059 564 1044 q 514 1074 534 1074 q 484 1063 497 1074 q 467 1035 471 1052 q 416 833 441 934 q 368 632 391 733 q 272 616 320 623 q 176 603 224 608 q 193 654 182 621 q 218 726 204 686 q 245 808 231 766 q 271 888 259 850 q 290 953 282 925 q 297 993 297 981 q 283 1028 297 1014 q 248 1043 269 1043 q 212 1028 227 1043 q 197 994 197 1014 l 197 993 q 189 952 195 973 q 176 910 183 931 q 161 869 169 890 q 146 831 153 849 q 107 714 127 772 q 71 599 88 657 q 61 601 66 599 q 50 603 56 603 q 15 588 29 603 q 0 554 0 574 q 13 521 0 534 q 43 503 25 508 q 17 397 29 452 q 4 288 4 342 q 6 264 4 276 q 15 243 9 253 q 30 228 20 234 q 53 222 39 222 q 72 226 63 222 q 89 236 81 230 q 100 252 96 243 q 104 271 104 260 q 117 387 104 330 q 146 501 129 444 q 247 512 196 505 q 347 528 297 519 q 342 495 345 517 q 334 447 338 473 q 326 392 330 420 q 315 338 321 363 q 304 294 310 313 q 293 268 298 275 q 281 252 286 260 q 277 232 277 245 q 292 198 277 212 q 326 183 307 183 q 366 205 349 183 q 395 261 382 227 q 417 338 408 296 q 432 421 426 380 q 443 496 439 462 q 452 549 448 530 q 491 558 467 552 q 537 574 515 564 q 576 598 560 583 q 593 633 593 612 z "},"I":{"ha":629,"x_min":0,"x_max":657,"o":"m 578 821 l 576 821 l 578 821 m 657 860 q 642 896 657 883 q 605 915 627 909 q 560 923 583 922 q 521 925 537 925 q 381 918 451 925 q 240 911 311 911 l 237 911 q 215 911 229 911 q 187 913 201 911 q 161 917 173 914 q 144 926 150 920 q 126 943 137 937 q 104 949 116 949 q 85 945 94 949 q 69 933 76 941 q 58 918 62 926 q 54 899 54 909 q 65 865 54 879 q 92 841 75 851 q 130 826 109 831 q 172 817 151 820 q 212 812 193 813 q 244 811 231 811 q 304 813 275 811 q 363 817 333 814 q 320 687 345 753 q 268 554 296 621 q 212 423 241 488 q 155 297 182 358 l 131 296 l 118 297 q 103 331 118 317 q 69 345 89 345 q 44 337 56 345 q 22 319 31 330 q 6 296 12 309 q 0 271 0 283 q 14 230 0 245 q 50 208 28 215 q 94 199 71 201 q 136 197 117 197 q 196 200 161 197 q 270 208 231 203 q 350 220 309 213 q 428 237 391 228 q 497 258 465 247 q 549 282 528 269 q 567 300 560 290 q 574 325 574 311 q 570 344 574 335 q 559 360 566 353 q 543 371 552 367 q 524 375 534 375 q 511 373 517 375 q 498 368 505 372 q 444 345 472 355 q 386 328 415 335 q 327 317 357 321 q 268 309 297 312 q 320 428 291 361 q 379 565 350 494 q 431 703 408 635 q 467 825 455 770 q 496 826 481 825 q 524 827 510 827 l 530 827 q 555 826 542 827 q 578 821 568 825 q 608 810 591 810 q 643 824 628 810 q 657 860 657 839 z "},"J":{"ha":667,"x_min":0,"x_max":681,"o":"m 681 932 l 681 956 q 679 985 681 970 q 672 1011 677 1000 q 655 1029 666 1022 q 624 1036 644 1036 q 605 1031 613 1036 q 591 1018 597 1026 q 583 1001 586 1010 q 581 982 581 991 q 573 822 581 904 q 548 660 566 739 q 498 506 530 580 q 418 373 467 433 q 303 271 370 313 q 146 210 235 228 l 140 210 l 139 210 q 124 220 131 210 q 114 248 118 231 q 106 286 109 265 q 101 325 103 306 q 99 358 100 343 q 98 379 98 373 q 104 445 98 412 q 110 503 110 477 q 95 537 110 522 q 61 551 81 551 q 28 536 40 551 q 9 498 16 521 q 2 449 3 475 q 0 401 0 423 l 0 376 q 2 325 0 353 q 9 267 3 296 q 24 210 14 237 q 50 160 34 182 q 88 124 65 138 q 142 111 111 111 q 152 111 147 111 q 163 113 157 111 q 334 174 258 130 q 467 279 410 217 q 566 419 525 342 q 632 582 606 496 q 669 756 657 667 q 681 932 681 846 z "},"K":{"ha":761,"x_min":0,"x_max":815,"o":"m 815 807 q 801 841 815 827 q 766 856 786 856 q 739 847 748 856 q 721 825 729 839 q 693 799 714 815 q 641 763 672 783 q 572 720 610 743 q 494 675 534 698 q 415 632 454 653 q 340 592 375 610 q 279 561 306 574 q 239 541 252 547 q 253 600 244 564 q 270 678 261 636 q 288 765 279 720 q 304 852 297 810 q 316 928 312 893 q 321 985 321 963 q 306 1020 321 1004 q 272 1035 292 1035 q 237 1020 251 1035 q 222 985 224 1004 q 212 898 221 942 q 195 811 202 853 q 161 649 179 729 q 126 488 144 568 q 110 480 119 485 q 89 472 100 476 q 68 464 78 467 q 50 460 58 461 q 15 446 29 458 q 0 411 0 435 q 15 375 0 389 q 52 361 31 361 q 75 364 64 361 q 97 371 87 368 q 87 330 94 357 q 71 272 80 302 q 53 216 62 242 q 36 179 44 189 q 24 163 28 170 q 20 143 20 157 q 35 109 20 123 q 69 94 50 94 q 106 114 89 94 q 138 164 123 134 q 164 232 153 195 q 185 304 176 269 q 200 366 194 338 q 208 406 205 393 q 241 353 220 382 q 287 294 261 323 q 342 236 313 264 q 404 187 372 208 q 466 152 435 165 q 526 139 497 139 q 546 142 536 139 q 563 152 555 146 q 575 167 570 158 q 579 186 579 176 q 566 221 579 209 q 532 237 553 234 q 489 253 512 241 q 441 284 465 266 q 393 325 416 302 q 349 371 369 348 q 314 417 329 395 q 293 458 300 440 q 345 484 313 468 q 416 520 376 500 q 499 564 455 540 q 586 612 543 587 q 669 663 629 637 q 740 713 709 689 q 792 758 772 736 q 815 796 812 779 l 815 807 z "},"L":{"ha":606,"x_min":0,"x_max":562,"o":"m 562 306 q 548 340 562 326 q 513 355 534 355 q 506 355 509 355 q 500 353 503 354 q 409 330 458 342 q 310 306 360 317 q 211 287 260 294 q 118 279 161 279 q 109 280 113 279 q 100 281 104 281 q 97 290 98 285 q 97 298 97 294 q 112 374 97 330 q 149 467 126 418 q 196 567 171 517 q 244 659 222 616 q 281 733 267 702 q 296 775 296 764 q 281 811 296 796 q 245 825 267 825 q 219 817 230 825 q 200 794 208 808 q 164 724 185 764 q 121 640 143 684 q 77 550 99 596 q 38 458 56 503 q 11 371 21 413 q 0 296 0 330 q 30 209 0 236 q 119 182 60 182 q 217 189 164 182 q 324 207 270 195 q 431 231 378 218 q 526 258 483 245 q 552 275 542 262 q 562 306 562 288 z "},"M":{"ha":878,"x_min":0,"x_max":846,"o":"m 846 205 q 831 241 846 227 q 796 256 817 256 q 776 251 785 256 q 760 240 767 247 l 758 239 q 750 273 751 252 q 749 309 749 294 q 765 492 749 401 q 800 675 781 584 q 801 680 800 677 q 802 686 802 683 q 787 720 802 706 q 751 734 772 734 q 722 725 734 734 q 704 699 709 715 q 671 635 694 671 q 616 561 648 599 q 546 487 585 523 q 469 422 508 450 q 393 376 430 393 q 325 358 355 358 q 315 359 318 358 q 309 374 310 366 q 309 390 309 382 q 318 460 309 421 q 340 541 327 499 q 370 622 354 582 q 399 696 385 663 q 421 753 412 730 q 431 785 431 777 q 427 804 431 795 q 416 820 422 812 q 400 831 409 827 q 380 835 391 835 q 357 828 368 835 q 339 811 345 822 l 257 679 q 262 695 259 686 q 267 713 264 704 q 270 731 269 722 q 272 747 272 741 q 269 766 272 757 q 260 783 266 776 q 245 795 254 791 q 225 800 236 800 q 190 787 203 800 q 174 753 176 774 q 156 680 170 725 q 122 582 142 634 q 82 474 103 529 q 42 373 60 420 q 12 293 24 326 q 0 250 0 260 q 15 216 0 231 q 50 201 29 201 q 73 208 62 201 q 92 225 84 214 l 212 419 q 211 407 211 413 q 211 395 211 401 q 216 344 211 368 q 235 301 222 319 q 269 271 248 282 q 322 260 290 260 q 415 280 368 260 q 508 330 463 300 q 592 397 553 361 q 661 464 632 433 q 653 391 656 427 q 650 318 650 355 q 653 260 650 292 q 667 201 656 229 q 699 155 678 174 q 755 136 720 136 q 798 146 777 136 q 833 174 819 157 q 843 189 840 180 q 846 205 846 197 z "},"N":{"ha":714,"x_min":0,"x_max":742,"o":"m 742 900 q 738 919 742 910 q 727 935 734 928 q 711 946 720 942 q 692 950 702 950 q 660 938 673 950 q 643 908 647 926 q 633 859 639 890 q 618 789 627 828 q 599 707 610 751 q 576 618 589 663 q 550 533 564 574 q 520 458 536 492 q 487 402 505 425 q 452 372 470 379 q 410 364 433 364 q 363 380 384 364 q 326 421 342 395 q 298 482 310 448 q 277 555 286 517 q 262 632 269 593 q 252 706 256 671 q 246 770 248 741 q 241 817 243 799 q 228 851 240 838 q 193 865 215 865 q 164 857 176 865 q 146 832 153 848 q 132 797 141 823 q 112 736 123 772 q 89 657 101 700 q 63 569 76 614 q 39 481 51 524 q 19 402 28 438 q 5 341 10 367 q 0 307 0 316 q 15 272 0 286 q 50 257 29 257 q 83 272 70 257 q 98 306 97 286 q 108 366 100 330 q 128 440 117 402 q 151 515 139 479 q 170 575 162 551 q 185 510 176 545 q 209 440 195 475 q 241 374 222 406 q 284 317 260 342 q 340 278 309 293 q 410 264 371 264 q 488 281 454 264 q 549 326 522 298 q 597 392 576 355 q 633 468 617 429 q 660 548 648 508 q 681 621 671 587 q 691 657 685 635 q 704 705 697 679 q 718 760 711 732 q 730 814 724 788 q 739 863 735 840 q 742 900 742 886 z "},"O":{"ha":554,"x_min":0,"x_max":521,"o":"m 422 562 q 401 469 422 515 q 346 388 380 424 q 266 331 311 353 q 172 310 220 310 q 137 313 151 310 q 115 325 123 317 q 102 347 106 333 q 98 380 98 360 q 102 427 98 403 q 112 475 106 451 q 126 523 118 499 q 142 567 134 546 q 159 549 148 555 q 184 542 171 542 q 228 566 214 542 q 247 597 237 580 q 268 631 257 614 q 292 663 279 648 q 317 690 304 679 l 322 690 q 371 681 352 690 q 402 653 391 671 q 418 613 414 636 q 422 562 422 589 m 521 564 q 509 652 521 611 q 473 724 498 693 q 411 771 449 754 q 322 789 374 789 q 305 788 314 789 q 288 786 296 788 q 288 789 288 788 q 289 793 289 791 q 275 828 289 812 q 239 843 260 843 q 178 817 208 843 q 122 748 149 790 q 73 654 96 706 q 35 550 51 602 q 9 454 18 499 q 0 380 0 408 q 45 254 0 298 q 172 211 90 211 q 304 240 241 211 q 416 318 368 269 q 492 431 464 367 q 521 564 521 494 z "},"P":{"ha":406,"x_min":-61,"x_max":533,"o":"m 435 734 q 431 689 435 711 q 416 650 427 667 q 387 623 405 633 q 342 612 370 612 q 306 615 323 612 q 271 622 288 618 q 235 629 253 626 q 200 632 218 632 q 186 631 193 632 q 174 629 180 631 q 181 683 177 654 q 191 739 184 711 q 209 792 198 766 q 236 837 219 817 q 277 867 253 856 q 336 879 302 879 q 383 865 364 879 q 414 830 402 852 q 430 784 425 809 q 435 734 435 758 m 533 733 q 522 823 533 779 q 486 901 510 867 q 424 957 461 936 q 336 978 387 978 q 274 969 304 978 q 217 945 243 960 q 168 907 191 929 q 129 859 146 885 q 107 808 116 838 q 92 748 98 779 q 82 686 86 716 q 74 631 77 655 q 58 525 66 577 q 36 421 50 472 q 2 323 23 371 q -50 229 -18 275 q -61 199 -61 216 q -57 180 -61 189 q -46 164 -53 171 q -30 153 -39 157 q -11 149 -21 149 q 9 154 -1 149 q 26 168 19 159 q 79 248 57 203 q 116 341 100 292 q 142 440 132 390 q 160 534 153 490 q 180 530 170 530 q 190 532 186 530 q 199 533 195 533 q 234 530 216 533 q 270 524 252 527 q 306 517 288 520 q 342 514 323 514 q 427 531 391 514 q 486 578 463 549 q 522 648 510 608 q 533 733 533 688 z "},"Q":{"ha":547,"x_min":0,"x_max":543,"o":"m 353 419 q 311 379 334 398 q 263 347 288 361 q 210 325 238 333 q 153 317 182 317 q 122 321 133 317 q 105 335 111 326 q 99 357 100 344 q 98 386 98 370 l 98 396 q 100 448 98 420 q 107 504 102 476 q 118 559 111 532 q 135 610 125 587 q 151 569 138 588 q 183 533 163 550 q 225 502 202 517 q 272 472 248 486 q 316 445 295 458 q 353 419 338 432 m 444 629 q 434 563 444 595 q 410 501 425 531 q 369 529 395 512 q 314 563 342 545 q 263 596 286 580 q 233 624 240 613 q 248 661 238 642 q 273 694 258 680 q 305 719 287 709 q 345 728 323 728 q 418 702 391 728 q 444 629 444 676 m 543 628 q 529 709 543 673 q 488 772 514 746 q 425 812 462 798 q 343 827 388 827 q 293 820 317 827 q 244 799 268 812 q 261 822 250 807 q 284 855 273 838 q 304 889 296 872 q 313 917 313 906 q 298 951 313 937 q 262 965 283 965 q 235 957 248 965 q 216 936 223 949 q 201 910 210 922 q 183 885 192 897 q 106 766 140 821 q 48 655 72 711 q 13 537 25 600 q 0 397 0 475 q 7 324 0 357 q 32 268 14 291 q 78 231 49 244 q 151 218 107 218 q 260 238 208 218 q 357 290 312 258 q 355 257 357 277 q 354 214 354 237 q 356 162 354 189 q 366 114 359 136 q 387 79 374 92 q 421 65 400 65 q 456 80 441 65 q 471 115 471 94 q 467 131 471 125 q 460 146 464 138 q 457 158 458 149 q 455 178 456 168 q 454 198 454 189 q 454 212 454 208 q 457 298 454 255 q 460 385 460 342 l 460 395 q 520 505 496 445 q 543 628 543 565 z "},"R":{"ha":614,"x_min":0,"x_max":581,"o":"m 449 700 q 433 675 447 689 q 402 647 420 661 q 367 621 384 633 q 340 604 349 610 q 361 630 349 614 q 387 660 374 645 q 415 688 401 675 q 440 707 429 701 l 449 700 m 581 357 q 566 391 581 376 q 530 406 551 406 q 503 400 516 406 q 473 395 489 395 q 429 402 452 395 q 385 420 406 409 q 343 445 363 431 q 307 472 323 459 q 352 496 327 482 q 404 526 377 509 q 456 563 431 543 q 502 606 482 583 q 535 652 522 628 q 547 701 547 676 q 538 740 547 721 q 514 774 529 759 q 481 799 500 789 q 443 808 463 808 q 401 797 423 808 q 357 767 379 785 q 314 726 335 749 q 273 679 292 703 q 238 634 254 656 q 211 597 222 613 q 222 636 215 613 q 235 685 229 660 q 246 733 241 709 q 250 772 250 757 q 236 806 250 792 q 201 821 221 821 q 166 807 182 821 q 151 775 151 794 l 151 772 l 151 765 l 151 768 q 142 714 151 751 q 118 629 132 677 q 86 529 104 582 q 53 428 69 476 q 23 340 37 379 q 3 281 9 300 q 1 272 1 277 q 0 264 0 268 q 15 230 0 244 q 50 215 29 215 q 73 222 62 215 q 92 239 84 229 q 150 332 122 285 q 210 424 178 379 q 267 377 236 400 q 331 336 298 354 q 401 307 365 318 q 473 296 437 296 q 507 298 488 296 q 542 307 526 300 q 569 326 558 314 q 581 357 581 338 z "},"S":{"ha":533,"x_min":0,"x_max":547,"o":"m 493 743 l 489 743 l 493 743 m 547 791 q 532 827 547 813 q 494 842 516 842 q 447 835 477 842 q 382 816 417 828 q 311 787 347 804 q 246 751 275 770 q 199 709 217 731 q 180 665 180 688 q 196 627 180 642 q 235 600 212 611 q 286 580 258 589 q 338 562 314 571 q 380 540 363 552 q 399 510 397 528 q 400 498 400 505 q 400 486 400 492 q 386 421 400 448 q 347 378 371 395 q 291 354 323 361 q 225 347 260 347 q 191 349 210 347 q 152 356 171 351 q 115 367 132 360 q 85 385 97 374 q 68 396 77 392 q 50 400 60 400 q 31 396 40 400 q 15 385 22 392 q 4 369 8 378 q 0 350 0 360 q 13 316 0 331 q 46 290 26 301 q 92 271 66 279 q 142 258 117 263 q 189 251 167 253 q 224 249 210 249 q 329 263 279 249 q 417 308 379 278 q 476 382 454 337 q 498 488 498 427 q 484 564 498 534 q 444 615 469 594 q 385 649 418 635 q 314 676 351 663 q 351 694 327 683 q 402 715 375 705 q 454 734 429 726 q 493 743 479 743 q 497 742 494 742 q 533 756 518 742 q 547 791 547 770 z "},"T":{"ha":330,"x_min":0,"x_max":663,"o":"m 58 736 l 53 736 l 58 736 m 663 779 q 654 808 663 797 q 634 825 646 819 q 607 833 622 831 q 579 835 593 835 q 465 823 522 835 q 353 800 408 812 q 336 833 351 820 q 302 846 322 846 q 278 839 288 846 q 261 822 268 832 q 249 800 254 812 q 239 777 243 787 q 194 765 217 771 q 146 752 170 758 q 99 742 123 746 q 53 736 75 737 q 50 737 52 737 q 15 723 31 737 q 0 688 0 709 q 16 652 0 666 q 53 637 31 637 q 122 647 86 637 q 191 664 158 656 q 173 621 184 648 q 149 563 161 594 q 122 497 136 531 q 99 432 109 463 q 82 375 88 401 q 75 335 75 350 q 89 298 75 314 q 125 282 103 282 q 143 286 134 282 q 159 296 152 290 q 171 310 166 302 q 175 329 175 319 q 183 369 175 341 q 204 431 191 396 q 233 506 217 467 q 263 582 248 545 q 290 647 277 618 q 309 690 302 676 q 374 705 340 697 q 443 721 408 713 q 511 732 477 728 q 578 737 545 737 q 595 734 587 737 q 614 730 604 730 q 648 745 633 730 q 663 779 663 760 z "},"U":{"ha":404,"x_min":0,"x_max":389,"o":"m 389 708 q 374 744 389 729 q 339 758 360 758 q 307 746 321 758 q 286 707 296 737 q 264 638 275 677 q 239 554 253 598 q 206 474 225 511 q 162 413 187 437 q 102 389 136 389 q 97 412 97 399 q 104 477 97 441 q 122 550 111 513 q 147 622 134 587 q 172 684 160 656 q 178 705 178 692 q 163 740 178 725 q 129 754 149 754 q 85 728 100 754 q 64 687 75 711 q 45 634 54 663 q 27 575 35 606 q 13 515 19 544 q 3 460 7 486 q 0 415 0 434 q 5 368 0 390 q 22 328 10 345 q 54 300 34 311 q 102 290 73 290 q 177 307 144 290 q 237 350 210 323 q 284 413 264 378 q 320 487 304 448 q 347 563 335 525 q 367 635 358 602 q 372 651 368 640 q 379 673 376 662 q 386 695 383 685 q 389 708 389 705 z "},"V":{"ha":415,"x_min":0,"x_max":444,"o":"m 428 710 l 425 708 l 428 710 m 444 747 q 430 783 444 768 q 396 798 416 798 q 380 794 387 798 q 366 787 373 791 q 339 756 357 782 q 297 693 321 730 q 247 612 273 656 q 196 528 220 569 q 151 454 172 488 q 121 406 131 421 q 119 455 120 422 q 116 529 117 488 q 112 613 114 570 q 107 694 110 656 q 102 760 105 732 q 96 796 99 788 q 78 821 90 812 q 50 831 66 831 q 15 816 29 831 q 0 781 0 802 q 1 773 0 777 q 3 766 1 770 q 9 724 7 746 q 11 678 11 701 q 12 632 12 655 q 12 589 12 610 q 14 550 13 576 q 17 494 15 525 q 20 429 18 463 q 25 365 22 395 q 32 310 28 334 q 40 275 35 286 q 60 249 47 258 q 92 240 73 240 q 128 257 109 240 q 170 301 148 273 q 215 366 192 330 q 262 443 239 403 q 309 524 286 483 q 353 600 332 564 q 393 665 374 636 q 428 710 412 694 q 444 747 444 724 z "},"W":{"ha":562,"x_min":0,"x_max":603,"o":"m 603 692 q 588 726 603 711 q 554 741 574 741 q 547 741 551 741 q 541 739 544 741 q 510 715 526 735 q 478 667 494 696 q 446 605 462 639 q 416 539 430 571 q 389 479 401 507 q 368 436 377 452 l 368 464 l 368 500 q 367 565 368 530 q 357 629 365 600 q 335 677 350 658 q 294 696 321 696 q 257 680 276 696 q 221 637 239 663 q 189 580 204 612 q 159 518 173 549 q 135 461 146 488 q 118 421 125 435 q 116 464 117 437 q 114 524 115 491 q 111 592 113 557 q 107 657 110 627 q 102 712 105 688 q 96 745 100 735 q 78 768 90 759 q 50 777 66 777 q 15 762 29 777 q 0 728 0 747 q 1 720 0 724 q 3 711 1 715 q 9 667 7 696 q 12 603 11 639 q 13 526 12 567 q 16 445 14 486 q 23 368 18 405 q 36 303 27 332 q 58 258 45 275 q 92 241 71 241 l 100 241 q 134 258 117 242 q 168 299 151 274 q 199 354 184 323 q 227 414 214 385 q 250 469 239 444 q 267 509 260 494 q 267 471 267 493 q 269 425 267 449 q 276 377 271 401 q 290 334 281 353 q 314 303 299 315 q 353 292 330 292 q 404 315 380 292 q 449 374 427 338 q 489 454 470 410 q 525 537 508 497 q 555 607 541 576 q 582 650 570 638 q 597 668 591 659 q 603 692 603 676 z "},"X":{"ha":472,"x_min":0,"x_max":441,"o":"m 441 673 q 426 709 441 694 q 390 724 411 724 q 346 709 372 724 q 294 675 320 694 q 244 635 267 655 q 208 604 220 615 q 193 634 203 614 q 172 676 184 653 q 148 726 161 700 q 124 773 136 751 q 102 812 112 795 q 86 835 92 829 q 70 847 79 842 q 50 851 60 851 q 15 837 29 851 q 0 802 0 823 q 3 785 0 793 q 12 770 7 777 q 42 722 26 752 q 75 657 58 691 q 106 589 91 623 q 132 533 121 556 q 112 515 125 526 q 85 489 100 503 q 55 460 71 475 q 28 431 40 445 q 8 404 16 416 q 0 383 0 391 q 15 348 0 362 q 50 334 29 334 q 80 347 62 334 q 117 378 98 360 q 152 414 136 396 q 179 441 169 432 q 199 405 186 428 q 226 354 211 381 q 260 298 241 326 q 298 247 278 269 q 337 209 317 224 q 376 195 357 195 q 395 199 387 195 q 411 210 404 203 q 421 225 417 216 q 425 244 425 235 q 415 274 425 263 q 390 292 406 284 q 371 310 382 295 q 346 347 359 326 q 318 393 332 368 q 291 442 303 418 q 269 484 278 465 q 254 511 259 503 q 283 538 264 522 q 322 572 302 555 q 362 604 342 589 q 395 624 382 618 q 428 640 414 625 q 441 673 441 654 z "},"Y":{"ha":503,"x_min":0,"x_max":494,"o":"m 493 673 l 494 674 q 494 676 494 675 q 479 709 494 695 q 444 722 463 722 q 410 708 425 722 q 393 689 400 700 q 379 668 387 677 q 351 628 368 652 q 313 580 334 605 q 270 530 293 555 q 223 486 247 505 q 175 454 199 466 q 129 441 151 441 q 115 443 121 441 q 103 447 109 445 q 98 459 100 452 q 97 472 97 466 q 104 525 97 496 q 121 585 111 554 q 144 644 132 615 q 166 697 156 673 q 184 738 177 721 q 191 758 191 754 q 176 794 191 779 q 140 808 161 808 q 118 803 127 808 q 100 786 109 797 q 77 748 89 772 q 54 695 65 724 q 34 634 43 667 q 16 572 24 602 q 4 516 9 542 q 0 472 0 490 q 34 377 0 410 q 129 343 67 343 q 195 356 163 343 q 257 388 227 368 q 312 433 286 408 q 359 482 338 458 q 344 396 352 443 q 324 303 336 350 q 294 214 312 257 q 249 138 277 171 q 183 85 222 105 q 90 65 144 65 l 81 65 q 58 64 70 65 q 35 59 45 63 q 19 46 25 54 q 12 22 12 37 q 19 -8 12 3 q 36 -25 25 -19 q 60 -32 46 -31 q 90 -33 75 -33 q 212 -8 157 -33 q 308 58 267 16 q 376 155 349 100 q 418 271 404 210 q 446 407 433 338 q 471 543 458 475 q 484 604 477 574 q 493 665 490 635 l 493 673 z "},"Z":{"ha":596,"x_min":-12,"x_max":554,"o":"m 554 262 q 539 297 554 282 q 505 311 525 311 q 484 307 494 311 l 479 304 l 484 307 q 443 297 469 302 q 383 289 416 293 q 313 282 350 285 q 243 276 277 279 q 182 273 210 274 q 138 272 154 272 q 189 327 163 300 q 240 380 214 353 q 272 382 252 382 q 318 385 293 382 q 368 391 342 387 q 415 402 394 395 q 449 423 436 410 q 463 454 463 435 q 448 488 463 474 q 412 503 433 503 q 390 497 400 503 l 386 494 q 388 496 387 496 q 390 497 389 496 q 365 492 378 493 q 339 489 351 490 q 378 535 355 508 q 421 592 401 562 q 456 653 442 622 q 471 711 471 684 q 461 750 471 733 q 437 779 452 768 q 402 797 422 791 q 363 803 383 803 q 310 797 337 803 q 256 780 283 790 q 204 758 230 770 q 157 734 179 745 q 131 722 144 728 q 103 711 117 715 l 107 711 l 102 710 l 103 711 q 71 695 84 709 q 57 661 57 681 q 61 642 57 651 q 72 626 65 633 q 88 615 79 619 q 107 611 97 611 q 160 626 128 611 q 228 658 193 640 q 299 691 264 676 q 361 705 334 705 q 366 705 363 705 q 371 704 369 705 q 357 672 368 691 q 329 632 345 654 q 293 587 313 610 q 255 543 273 564 q 220 504 236 522 q 195 476 204 486 q 112 474 155 474 q 31 467 69 474 q 0 449 12 463 q -12 416 -12 436 q 1 383 -12 398 q 35 368 15 368 l 37 368 l 45 368 q 70 370 57 370 q 94 372 82 371 q 69 346 85 362 q 38 310 53 329 q 11 272 22 291 q 0 239 0 254 q 13 203 0 216 q 44 183 25 190 q 84 175 62 177 q 123 174 105 174 q 133 174 129 174 q 140 175 137 175 q 189 176 157 175 q 260 180 220 178 q 342 186 300 182 q 423 195 385 190 q 490 206 460 200 q 530 220 519 212 q 554 262 554 234 m 390 497 q 388 496 389 496 q 386 494 387 496 l 390 497 z "},"[":{"ha":3721,"x_min":0,"x_max":3782,"o":"m 3461 949 q 3447 983 3461 968 q 3411 997 3432 997 q 3377 983 3392 997 q 3362 949 3362 968 q 3377 913 3362 928 q 3411 899 3392 899 q 3447 913 3432 899 q 3461 949 3461 928 m 3560 947 q 3551 910 3560 924 q 3529 889 3543 897 q 3497 879 3515 882 q 3460 873 3479 876 q 3385 861 3419 869 q 3322 837 3351 852 q 3268 798 3293 822 q 3221 736 3244 774 q 3137 605 3181 671 q 3041 477 3092 538 q 2932 363 2990 416 q 2808 271 2874 310 q 2668 209 2743 231 q 2509 186 2593 186 q 2406 202 2447 186 q 2341 245 2366 218 q 2300 306 2315 272 q 2275 376 2285 340 q 2253 447 2264 412 q 2224 508 2242 481 q 2179 551 2207 534 q 2104 567 2150 567 q 2023 550 2064 567 q 1939 504 1982 532 q 1850 439 1895 475 q 1755 364 1804 402 q 1652 290 1706 326 q 1541 224 1599 253 q 1418 179 1482 196 q 1283 161 1354 161 q 1161 182 1215 161 q 1063 235 1107 202 q 983 310 1019 268 q 913 397 947 353 q 848 483 880 441 q 779 558 815 526 q 699 612 742 591 q 603 632 656 632 l 597 632 l 586 632 q 524 621 549 631 q 478 593 498 610 q 443 551 459 575 q 408 498 427 527 q 386 462 399 484 q 356 416 372 440 q 321 369 340 393 q 283 327 302 346 q 244 296 264 308 q 207 285 225 285 q 162 301 182 285 q 127 340 142 317 q 106 389 113 363 q 98 436 98 415 q 109 481 98 460 q 143 541 122 512 q 183 597 163 570 q 234 662 205 627 q 297 730 263 696 q 369 797 331 765 q 446 854 406 829 q 526 893 486 878 q 607 908 567 908 q 703 884 661 908 q 780 819 745 859 q 848 728 816 779 q 912 624 880 677 q 980 519 944 570 q 1059 428 1016 468 q 1157 363 1103 388 q 1280 339 1211 339 q 1389 353 1337 339 q 1489 390 1440 366 q 1583 445 1537 413 q 1669 513 1628 476 q 1749 589 1710 549 q 1822 667 1787 628 q 1938 757 1873 724 q 2081 790 2002 790 q 2142 783 2116 790 q 2188 761 2167 775 q 2227 727 2209 747 q 2266 681 2245 707 q 2296 630 2285 657 q 2313 574 2306 602 q 2325 518 2320 546 q 2340 464 2331 490 q 2363 416 2348 438 q 2402 378 2377 394 q 2464 352 2426 361 q 2557 343 2502 343 q 2683 358 2623 343 q 2796 400 2743 373 q 2896 464 2849 427 q 2986 546 2943 501 q 3065 640 3028 590 q 3136 743 3103 690 q 3163 796 3151 768 q 3185 853 3174 825 q 3208 909 3196 882 q 3238 957 3220 936 q 3277 987 3252 975 q 3332 1008 3303 1000 q 3389 1020 3360 1016 q 3440 1023 3419 1023 q 3481 1021 3460 1023 q 3519 1010 3502 1018 q 3548 987 3537 1002 q 3560 947 3560 972 m 3782 616 q 3776 640 3782 629 q 3761 657 3771 650 q 3745 679 3756 662 q 3722 719 3735 696 q 3695 768 3709 742 q 3670 818 3681 795 q 3652 858 3659 842 q 3644 879 3644 875 q 3647 892 3644 884 q 3651 910 3649 901 q 3656 929 3654 919 q 3658 949 3658 939 q 3639 1028 3658 996 q 3590 1082 3621 1061 q 3520 1113 3559 1103 q 3439 1122 3480 1122 q 3366 1117 3405 1122 q 3288 1099 3326 1111 q 3217 1067 3250 1086 q 3161 1019 3183 1047 q 3124 958 3138 991 q 3097 892 3110 925 q 3078 844 3088 868 q 3054 798 3068 821 q 2961 666 3012 730 q 2848 552 2909 602 q 2713 472 2786 502 q 2555 441 2641 441 q 2525 443 2542 441 q 2492 449 2509 444 q 2460 461 2475 453 q 2437 482 2445 469 q 2424 520 2429 498 q 2415 559 2420 542 q 2391 652 2405 608 q 2347 736 2378 696 q 2293 801 2320 772 q 2234 849 2265 829 q 2166 879 2203 869 q 2081 889 2129 889 q 1896 847 1980 889 q 1748 732 1813 806 q 1686 665 1719 699 q 1616 597 1653 630 q 1541 536 1580 565 q 1459 485 1501 507 q 1373 450 1417 463 q 1280 437 1328 437 q 1182 462 1225 437 q 1101 526 1138 486 q 1032 617 1065 566 q 967 722 1000 669 q 900 827 935 776 q 822 918 865 878 q 727 983 779 958 q 608 1007 675 1007 q 494 985 553 1007 q 377 925 435 962 q 265 838 319 887 q 163 734 210 788 q 80 627 117 681 q 20 525 43 572 q 4 482 9 504 q 0 437 0 460 q 15 351 0 395 q 57 269 30 306 q 121 209 83 233 q 205 186 159 186 q 268 198 238 186 q 324 232 297 211 q 375 279 351 252 q 420 335 399 307 q 460 393 441 364 q 493 446 478 421 q 512 477 503 462 q 531 505 520 493 q 555 525 541 517 q 590 533 569 532 l 597 533 q 671 514 637 534 q 736 461 705 494 q 798 386 767 429 q 864 299 829 344 q 939 213 899 255 q 1030 137 980 170 q 1142 83 1080 103 q 1282 62 1204 62 q 1428 80 1358 62 q 1560 125 1497 97 q 1681 190 1624 154 q 1788 264 1737 227 q 1884 339 1839 302 q 1968 404 1929 375 q 2042 449 2008 432 q 2104 467 2076 467 q 2119 466 2112 467 q 2132 463 2125 466 q 2152 437 2144 456 q 2168 390 2160 418 q 2186 330 2176 363 q 2212 263 2196 297 q 2251 198 2228 229 q 2310 142 2275 166 q 2394 102 2345 117 q 2509 87 2442 87 q 2687 112 2603 87 q 2844 177 2770 136 q 2983 276 2918 219 q 3104 400 3047 334 q 3211 540 3161 467 q 3305 686 3261 613 q 3343 733 3323 716 q 3383 758 3362 749 q 3427 770 3404 766 q 3473 776 3449 773 q 3521 784 3496 779 q 3571 800 3545 789 l 3592 754 q 3565 733 3576 750 q 3546 694 3554 716 q 3535 650 3539 672 q 3532 614 3532 628 q 3537 581 3532 596 q 3551 553 3541 565 q 3575 534 3560 541 q 3609 528 3590 528 q 3647 540 3630 528 q 3664 578 3664 553 q 3655 606 3664 593 q 3630 624 3645 618 l 3640 660 q 3656 633 3647 648 q 3677 603 3666 617 q 3703 578 3689 589 q 3733 568 3718 568 q 3768 583 3753 568 q 3782 616 3782 597 z "},"\\":{"ha":661,"x_min":-1,"x_max":628,"o":"m 628 134 q 621 191 628 163 q 604 248 614 220 q 569 324 593 278 q 512 424 544 370 q 443 534 479 477 q 371 644 406 591 q 307 741 336 696 q 260 811 278 785 q 237 845 251 824 q 206 893 222 867 q 172 947 189 919 q 139 1001 154 975 q 112 1048 123 1027 q 96 1083 100 1070 q 78 1111 90 1100 q 47 1121 66 1121 q 13 1106 28 1121 q -1 1071 -1 1090 q 21 1009 -1 1053 q 81 907 44 966 q 166 775 119 847 q 264 628 214 703 q 361 477 313 552 q 446 336 409 402 q 506 218 484 271 q 529 135 529 165 l 529 126 q 528 118 528 123 q 543 84 528 98 q 578 69 558 69 q 602 75 592 69 q 617 89 611 80 q 625 109 623 98 q 628 134 628 121 z "},"]":{"ha":2551,"x_min":0,"x_max":2511,"o":"m 279 570 l 277 568 l 275 568 l 279 570 m 575 741 l 574 739 l 575 739 l 575 741 m 663 711 q 659 730 663 721 q 648 745 654 739 q 633 756 642 752 q 614 760 624 760 q 592 754 602 760 q 575 739 581 749 q 541 721 564 728 q 490 708 519 713 q 429 697 462 702 q 365 687 397 692 q 303 676 333 682 q 251 661 274 670 q 215 640 229 652 q 201 610 201 627 q 216 575 201 590 q 250 561 231 561 q 277 568 263 561 q 331 583 296 576 q 410 596 367 589 q 498 612 453 603 q 579 634 543 621 q 639 666 616 647 q 663 711 663 685 m 1246 639 q 1223 620 1230 633 q 1217 591 1217 607 q 1219 579 1217 585 q 1225 567 1221 572 q 1163 498 1203 528 q 1072 446 1122 468 q 963 409 1021 424 q 848 386 905 395 q 739 373 791 377 q 647 370 687 370 q 544 374 602 370 q 429 389 487 378 q 319 419 372 400 q 229 468 266 438 q 257 461 235 464 q 308 456 278 458 q 371 452 337 454 q 436 450 405 451 q 491 449 467 450 q 525 449 515 449 l 529 449 q 558 450 544 449 q 584 455 572 450 q 603 471 595 460 q 610 501 610 481 q 605 520 610 512 q 593 534 600 529 q 576 543 585 540 q 557 546 566 546 q 407 551 481 546 q 258 555 332 555 q 223 544 239 555 q 207 511 207 532 q 210 492 207 500 q 220 476 212 484 q 204 491 211 483 q 187 505 197 500 l 187 514 q 181 557 187 536 q 165 599 175 579 l 182 615 q 219 669 197 642 q 265 719 240 695 q 316 764 290 743 q 370 802 343 785 q 380 806 371 802 q 400 813 389 809 q 421 822 411 818 q 433 827 431 825 q 448 835 441 830 q 458 847 454 840 q 588 888 522 875 q 724 901 654 901 l 730 901 l 749 901 q 873 892 809 901 q 999 863 938 883 q 1114 809 1060 843 q 1207 725 1168 776 q 1219 708 1213 718 q 1232 687 1226 698 q 1241 666 1237 677 q 1246 646 1245 655 l 1246 639 m 2511 338 q 2497 372 2511 357 q 2462 386 2482 386 q 2451 385 2457 386 q 2440 380 2445 384 q 2433 379 2437 379 q 2426 379 2430 379 q 2365 386 2396 379 q 2305 401 2335 393 q 2244 416 2275 409 q 2183 422 2214 422 q 2088 415 2136 422 q 1992 400 2040 408 q 1897 385 1945 392 q 1801 378 1849 378 q 1725 389 1754 378 q 1675 417 1695 399 q 1642 458 1655 435 q 1613 506 1628 481 q 1579 554 1598 530 q 1530 597 1560 578 q 1455 629 1500 616 q 1341 644 1409 642 q 1330 703 1342 673 q 1300 760 1318 732 q 1259 812 1281 788 q 1215 852 1236 836 q 1108 922 1166 894 q 986 967 1049 949 q 858 991 923 984 q 730 999 793 999 q 572 984 650 999 q 419 937 494 969 q 398 962 410 947 q 376 993 387 977 q 357 1027 365 1010 q 350 1057 350 1044 q 349 1081 350 1069 q 343 1103 348 1093 q 330 1118 339 1112 q 304 1124 321 1124 q 280 1118 290 1124 q 265 1103 271 1112 q 257 1082 259 1094 q 254 1059 254 1071 l 254 1057 q 227 1065 241 1065 q 191 1050 205 1065 q 178 1014 178 1035 q 189 973 178 996 q 216 929 200 951 q 248 888 231 907 q 277 856 265 868 q 249 834 267 849 q 211 800 231 819 q 169 758 190 781 q 130 714 147 736 q 101 673 113 692 q 90 639 90 653 q 55 625 71 635 q 26 598 38 614 q 7 564 14 583 q 0 525 0 545 q 7 488 0 505 q 27 457 15 470 q 58 436 40 444 q 96 428 75 428 q 126 432 112 428 q 174 387 146 407 q 232 352 201 368 q 295 326 262 337 q 358 307 328 315 q 344 276 352 294 q 330 239 336 258 q 319 202 323 220 q 314 168 314 183 q 329 134 314 149 q 363 119 343 119 q 381 123 372 119 q 397 134 390 127 q 407 149 404 140 q 411 168 411 158 q 416 196 411 180 q 430 229 422 212 q 445 261 437 245 q 457 288 453 277 l 498 282 q 497 249 498 273 q 494 198 496 224 q 489 148 492 171 q 482 118 486 125 q 472 102 475 110 q 469 85 469 95 q 484 51 469 65 q 518 37 498 37 q 552 52 538 37 q 574 89 566 66 q 587 140 583 112 q 593 194 591 168 q 595 242 595 220 q 595 275 595 264 l 650 275 q 722 277 686 275 q 793 282 758 278 q 780 261 788 274 q 762 235 771 249 q 747 209 753 222 q 741 187 741 195 q 755 153 741 168 q 789 139 769 139 q 827 157 810 139 q 846 183 833 165 q 872 223 859 202 q 896 265 886 245 q 905 296 905 286 l 905 297 l 925 301 l 925 293 q 926 274 925 283 q 926 257 926 265 q 926 240 926 252 q 925 215 926 228 q 922 192 924 203 q 918 176 921 180 q 909 161 913 168 q 905 143 905 155 q 920 110 905 123 q 954 96 935 96 q 992 114 979 96 q 1013 157 1006 132 q 1022 208 1020 182 q 1023 250 1023 234 l 1023 257 q 1023 274 1023 264 q 1023 293 1023 283 q 1021 311 1022 302 q 1018 323 1020 319 q 1108 357 1062 337 q 1196 404 1155 376 q 1271 466 1238 431 q 1324 547 1305 502 q 1364 546 1339 547 q 1414 539 1388 544 q 1461 527 1439 535 q 1493 507 1483 519 q 1513 479 1503 494 q 1531 452 1522 465 q 1582 378 1556 410 q 1639 325 1608 346 q 1708 293 1670 303 q 1800 282 1747 282 q 1896 289 1849 282 q 1992 303 1944 296 q 2088 318 2040 311 q 2183 325 2136 325 q 2243 318 2214 325 q 2304 303 2273 311 q 2365 289 2334 296 q 2426 282 2395 282 q 2454 284 2439 282 q 2482 293 2469 287 q 2503 310 2494 299 q 2511 338 2511 321 z "},"^":{"ha":829,"x_min":0,"x_max":889,"o":"m 889 746 q 878 778 889 763 q 843 813 867 793 q 787 854 819 832 q 720 899 756 876 q 647 946 684 922 q 577 994 611 970 q 518 1039 544 1017 q 477 1081 492 1061 q 461 1118 461 1101 l 461 1125 q 457 1146 461 1136 q 446 1164 453 1156 q 428 1176 438 1171 q 407 1181 418 1181 q 372 1167 393 1181 q 328 1133 352 1154 q 276 1082 303 1111 q 221 1023 249 1054 q 165 961 193 992 q 113 904 138 930 q 65 856 87 877 q 26 825 43 836 q 7 806 15 818 q 0 781 0 794 q 15 746 0 761 q 50 732 29 732 q 90 751 64 732 q 148 802 115 771 q 216 870 180 833 q 285 942 252 907 q 344 1006 317 977 q 385 1048 371 1035 q 423 1001 399 1025 q 476 951 447 976 q 538 903 505 927 q 603 858 571 880 q 664 817 635 836 q 717 783 694 798 q 745 765 735 771 q 761 753 754 759 q 777 739 768 747 q 800 715 785 731 q 818 702 810 707 q 839 697 826 697 q 874 712 859 697 q 889 746 889 726 z "},"_":{"ha":416,"x_min":0,"x_max":446,"o":"m 372 -61 l 371 -60 l 372 -61 m 446 -18 q 434 14 446 2 q 404 32 422 26 q 366 40 387 38 q 329 41 346 41 l 318 41 q 268 40 298 41 q 204 36 237 38 q 137 31 170 33 q 77 25 103 28 l 74 25 q 68 26 71 25 q 62 26 66 26 q 56 28 59 28 q 50 28 54 28 q 15 14 31 28 q 0 -21 0 0 q 7 -48 0 -38 q 26 -64 14 -59 q 51 -72 37 -70 q 78 -74 65 -74 q 129 -73 108 -74 q 168 -70 151 -71 q 200 -65 185 -68 q 232 -61 215 -63 q 271 -58 250 -60 q 322 -57 292 -57 l 329 -57 q 352 -57 340 -57 q 372 -61 363 -58 q 397 -68 384 -68 q 431 -54 417 -68 q 446 -18 446 -39 z "},"`":{"ha":297,"x_min":-4,"x_max":260,"o":"m 252 876 q 260 905 260 892 q 237 945 260 930 q 224 956 228 953 q 218 961 220 958 q 213 968 216 963 q 203 986 210 973 q 177 1037 191 1008 q 148 1094 163 1066 q 113 1145 132 1122 q 71 1179 94 1168 q 58 1185 64 1183 q 46 1186 52 1186 q 0 1156 15 1186 q -4 1137 -4 1147 q 4 1110 -4 1123 q 26 1092 13 1097 q 56 1061 43 1080 q 82 1020 70 1042 q 105 972 94 997 q 128 926 116 948 q 153 888 140 905 q 183 863 167 871 q 212 856 198 856 q 236 860 225 856 q 252 876 246 865 z "},"a":{"ha":359,"x_min":-1,"x_max":307,"o":"m 215 425 q 196 414 205 423 q 178 391 187 404 q 160 364 170 378 q 141 336 151 349 q 119 312 131 322 q 93 298 107 302 q 102 325 96 309 q 118 358 109 340 q 139 394 127 376 q 162 427 151 412 q 185 454 174 443 q 205 471 196 466 q 212 457 210 465 q 215 443 215 450 l 215 425 m 307 440 q 301 485 307 462 q 282 527 294 508 q 251 558 269 546 q 207 571 232 571 q 158 555 183 571 q 111 514 134 540 q 67 457 87 489 q 32 394 47 426 q 7 334 16 363 q -1 285 -1 304 q 23 222 -1 245 q 87 199 47 199 q 139 212 115 199 q 183 243 163 224 q 195 219 187 233 q 211 195 202 206 q 232 176 220 184 q 256 168 243 168 q 274 173 266 168 q 289 184 283 177 q 299 200 295 191 q 302 218 302 209 q 296 242 302 235 q 283 259 290 250 q 270 281 276 268 q 264 321 264 294 q 267 347 264 334 q 269 372 269 359 l 269 376 l 269 383 q 299 404 290 387 q 307 440 307 420 z "},"b":{"ha":385,"x_min":0,"x_max":349,"o":"m 349 463 q 344 492 349 477 q 330 517 339 506 q 308 535 321 528 q 279 542 296 542 q 236 532 258 542 q 195 513 214 523 q 203 536 197 520 q 217 573 210 553 q 233 615 225 593 q 248 656 241 637 q 259 689 255 675 q 264 708 264 703 q 251 743 264 728 q 216 758 237 758 q 191 749 202 758 q 174 726 179 740 q 157 679 166 706 q 136 620 147 651 q 114 557 125 589 q 91 495 102 525 q 68 439 79 465 q 46 396 56 414 q 37 367 37 383 q 41 349 37 357 q 50 333 44 340 q 65 321 56 326 q 83 317 73 317 q 99 320 92 317 q 114 329 106 323 q 176 382 145 357 q 244 429 208 408 q 228 402 238 418 q 204 370 217 387 q 176 335 191 353 q 146 303 161 318 q 117 275 131 288 q 93 256 104 262 l 89 262 q 72 284 83 275 q 46 293 60 293 q 27 289 36 293 q 13 277 19 284 q 3 261 7 270 q 0 243 0 252 q 8 211 0 227 q 30 183 16 195 q 59 163 43 171 q 92 155 75 155 q 140 172 113 155 q 196 216 168 189 q 252 277 224 243 q 301 345 279 311 q 335 410 322 378 q 349 463 349 441 z "},"c":{"ha":345,"x_min":0,"x_max":307,"o":"m 307 460 q 306 472 307 466 q 301 485 304 478 q 264 528 288 511 q 210 545 241 545 q 160 533 185 545 q 112 501 135 521 q 68 455 88 481 q 33 401 47 429 q 9 346 18 374 q 0 294 0 318 q 11 245 0 268 q 41 206 22 222 q 84 180 60 190 q 134 171 108 171 q 174 176 150 171 q 221 192 199 181 q 259 217 243 202 q 275 253 275 233 q 262 287 275 272 q 229 301 249 301 q 210 296 220 301 q 188 286 199 292 q 164 275 177 280 q 135 271 151 271 q 111 276 122 271 q 93 293 100 281 l 92 296 q 97 321 92 307 q 113 353 103 336 q 135 386 122 370 q 160 416 147 403 q 186 437 173 429 q 210 446 199 446 q 217 440 214 446 q 227 428 221 435 q 240 416 232 422 q 261 411 248 411 q 294 426 281 411 q 307 460 307 441 z "},"d":{"ha":447,"x_min":0,"x_max":460,"o":"m 224 386 q 198 352 212 372 q 170 316 184 333 q 141 287 156 299 q 113 275 127 275 l 109 275 q 120 306 112 290 q 142 338 129 323 q 174 366 155 353 q 216 386 193 379 l 224 386 m 460 643 q 457 671 460 656 q 448 697 454 685 q 431 716 441 709 q 404 724 420 724 q 368 707 385 724 q 337 663 351 690 q 312 605 323 637 q 292 541 300 572 q 277 484 283 510 q 269 444 272 458 q 250 475 265 463 q 216 488 235 488 q 173 474 197 488 q 125 440 149 461 q 79 391 101 418 q 39 337 56 364 q 11 283 21 309 q 0 239 0 258 q 5 209 0 223 q 19 183 10 194 q 42 165 28 172 q 72 158 56 158 q 123 172 96 158 q 175 204 149 185 q 222 245 200 224 q 260 283 244 267 q 265 249 261 269 q 277 209 269 228 q 299 176 286 190 q 330 163 312 163 q 363 178 350 163 q 376 212 376 193 q 372 232 376 222 q 362 254 368 241 q 353 283 357 267 q 349 321 349 299 q 350 361 349 340 q 355 401 352 382 q 391 455 373 425 q 425 516 410 484 q 450 580 440 547 q 460 643 460 612 z "},"e":{"ha":354,"x_min":0,"x_max":338,"o":"m 240 498 q 215 476 230 486 q 183 459 200 467 q 149 448 166 452 q 117 440 131 443 q 141 463 127 452 q 171 481 155 473 q 205 494 187 489 q 239 498 222 498 l 240 498 m 338 515 q 329 552 338 537 q 307 578 321 568 q 275 593 293 588 q 237 597 257 597 q 149 580 192 597 q 73 533 106 563 q 20 462 40 503 q 0 375 0 421 q 14 290 0 332 q 53 212 27 247 q 116 156 79 178 q 199 135 153 135 q 225 137 212 135 q 250 145 239 139 q 267 161 260 151 q 273 187 273 171 q 260 222 273 206 q 227 237 248 237 q 222 237 224 237 q 216 236 219 236 q 208 234 212 235 q 199 233 203 233 q 160 242 177 233 q 132 267 144 252 q 111 300 119 281 q 97 338 102 319 q 176 353 134 341 q 254 386 218 365 q 314 440 290 408 q 338 515 338 472 z "},"f":{"ha":383,"x_min":0,"x_max":411,"o":"m 411 711 q 398 745 411 730 q 366 761 385 761 q 295 741 328 761 q 237 689 262 720 q 195 621 212 658 q 172 551 178 584 q 160 500 167 526 q 144 449 153 474 q 104 454 127 451 q 66 464 82 456 q 46 468 56 468 q 13 453 26 468 q 0 418 0 437 q 11 387 0 398 q 38 369 22 375 q 72 360 54 363 q 104 355 90 357 q 88 323 98 342 q 66 284 78 304 q 42 248 55 265 q 18 221 30 231 q 0 180 0 203 q 13 146 0 161 q 46 131 26 131 q 76 144 60 131 q 107 177 92 157 q 138 221 123 197 q 166 270 153 246 q 188 313 178 293 q 203 343 198 333 q 220 342 211 343 q 240 342 230 342 q 267 344 254 342 q 291 352 280 346 q 308 368 301 357 q 314 395 314 378 q 301 428 314 413 q 268 443 288 443 q 254 441 260 443 q 239 440 248 440 q 252 486 246 463 q 262 533 258 509 q 284 596 270 572 q 314 633 298 619 q 348 653 331 646 q 379 667 366 660 q 402 683 393 673 q 411 711 411 692 z "},"g":{"ha":349,"x_min":-113,"x_max":318,"o":"m 318 453 q 312 479 318 468 q 294 497 305 490 q 271 508 283 505 q 244 511 258 511 q 196 503 222 511 q 142 478 169 494 q 89 442 115 463 q 44 397 64 421 q 12 349 24 374 q 0 300 0 323 q 8 262 0 280 q 30 230 16 244 q 62 208 44 216 q 100 200 80 200 q 131 204 115 200 q 161 216 146 209 q 150 179 158 203 q 131 125 142 155 q 106 65 120 96 q 77 9 92 35 q 45 -32 62 -16 q 12 -47 28 -47 q -3 -47 5 -47 q -18 -45 -11 -47 q -2 -12 -12 -29 q 8 22 8 5 q -5 57 8 41 q -39 72 -18 72 q -68 57 -55 72 q -92 22 -82 43 q -107 -19 -102 2 q -113 -54 -113 -41 q -101 -99 -113 -81 q -73 -127 -90 -117 q -33 -142 -55 -138 q 12 -146 -10 -146 q 80 -122 47 -146 q 141 -60 113 -98 q 192 26 169 -22 q 232 123 215 74 q 257 217 248 172 q 267 294 267 262 q 264 319 267 307 q 255 342 261 332 q 239 359 249 352 q 215 366 229 366 q 184 355 199 366 q 155 332 170 345 q 128 309 141 319 q 103 298 115 298 q 93 302 97 298 q 117 336 99 317 q 157 372 135 355 q 202 401 180 389 q 241 412 225 412 l 242 412 q 243 411 243 412 l 248 411 q 272 404 259 404 q 305 419 292 404 q 318 453 318 434 z "},"h":{"ha":411,"x_min":0,"x_max":353,"o":"m 353 378 q 350 407 353 392 q 339 435 347 422 q 321 456 332 448 q 292 464 309 464 q 252 453 275 464 q 204 427 228 442 q 158 397 180 412 q 122 372 136 381 q 137 409 127 385 q 160 465 147 434 q 188 528 174 495 q 217 590 203 561 q 242 641 231 619 q 261 671 254 663 q 274 688 269 680 q 278 710 278 696 q 265 743 278 728 q 232 758 252 758 q 211 754 222 758 q 189 730 202 750 q 159 681 175 711 q 124 613 142 651 q 88 536 106 576 q 55 456 71 496 q 26 382 39 416 q 7 322 14 349 q 0 283 0 296 q 15 243 0 260 q 53 227 29 227 q 97 241 69 227 q 155 275 125 256 q 213 315 185 295 q 257 345 241 334 q 254 315 256 330 q 253 286 253 301 q 256 260 253 274 q 264 235 258 246 q 281 216 271 223 q 306 208 291 208 q 338 223 326 208 q 351 258 351 239 q 350 272 351 264 q 345 285 349 279 l 345 286 q 349 332 345 309 q 353 378 353 355 z "},"i":{"ha":256,"x_min":0,"x_max":273,"o":"m 155 482 q 141 517 155 503 q 106 532 127 532 q 72 517 86 532 q 57 484 58 503 q 45 432 54 457 q 26 380 36 406 q 8 329 16 355 q 0 275 0 302 q 13 233 0 252 q 52 215 26 215 q 71 219 62 215 q 86 230 79 223 q 98 246 94 237 q 102 265 102 255 q 110 320 102 294 q 129 374 119 347 q 147 428 138 401 q 155 482 155 454 m 273 611 q 259 645 273 631 q 225 660 245 660 q 217 660 221 660 q 208 657 212 659 q 170 675 193 675 q 135 661 150 675 q 121 627 121 646 q 129 598 121 612 q 149 573 137 584 q 176 555 161 562 q 205 549 191 549 q 230 553 218 549 q 251 567 241 558 q 267 587 261 575 q 273 611 273 598 z "},"j":{"ha":191,"x_min":-315,"x_max":160,"o":"m 131 393 q 116 429 131 414 q 81 443 100 443 q 53 434 65 443 q 35 411 40 426 q 23 360 27 394 q 15 284 18 326 q 7 195 11 241 q -2 105 4 148 q -16 30 -7 63 q -37 -21 -24 -4 q -71 -49 -51 -39 q -114 -60 -90 -60 q -161 -51 -143 -60 q -190 -28 -179 -41 q -209 1 -201 -14 q -222 31 -216 17 q -238 53 -229 44 q -262 62 -247 62 q -282 59 -273 62 q -299 50 -292 56 q -311 35 -307 44 q -315 16 -315 26 q -297 -54 -315 -22 q -249 -109 -278 -85 q -183 -146 -219 -133 q -113 -160 -147 -160 q -21 -138 -58 -160 q 40 -80 16 -116 q 78 3 64 -43 q 99 98 92 50 q 110 195 106 147 q 117 281 113 243 q 120 329 119 304 q 127 378 121 355 q 130 385 129 381 q 131 393 131 389 m 160 576 q 147 610 160 595 q 115 625 134 624 q 101 661 115 646 q 65 675 86 675 q 42 669 52 675 q 26 655 33 664 q 17 636 20 647 q 14 612 14 625 q 20 579 14 595 q 39 551 27 563 q 65 532 50 539 q 98 525 81 525 q 141 538 123 525 q 160 576 160 551 z "},"k":{"ha":400,"x_min":-9,"x_max":361,"o":"m 361 513 q 347 547 361 532 q 311 561 332 561 q 291 557 306 561 q 258 548 276 553 q 225 537 241 543 q 201 529 209 532 q 212 556 205 537 q 228 596 220 575 q 241 636 235 617 q 248 661 248 654 q 233 695 248 681 q 197 710 218 710 q 170 701 182 710 q 151 677 157 692 q 141 651 149 672 q 121 600 133 630 q 96 533 110 570 q 67 459 81 496 q 39 386 52 422 q 14 323 25 351 q -3 278 3 295 q -9 260 -9 261 q 5 225 -9 240 q 40 211 19 211 q 71 224 58 211 q 93 254 83 237 q 110 291 103 272 q 122 323 117 311 q 160 301 139 312 q 203 280 180 290 q 248 266 225 271 q 292 260 271 260 q 330 273 313 260 q 346 309 346 286 q 332 343 346 328 q 297 358 318 358 q 264 363 281 358 q 230 375 247 368 q 198 392 214 382 q 170 411 182 401 q 248 439 208 429 q 328 465 288 450 q 352 483 342 471 q 361 513 361 496 z "},"l":{"ha":254,"x_min":0,"x_max":228,"o":"m 228 673 l 228 675 q 223 693 228 685 q 211 708 218 702 q 194 716 203 713 q 175 720 184 720 q 144 706 157 720 q 129 676 132 693 q 115 617 125 650 q 90 546 104 583 q 59 469 75 508 q 30 393 43 430 q 8 323 17 356 q 0 267 0 291 q 3 249 0 258 q 13 232 7 239 q 27 220 19 224 q 46 215 36 215 q 65 218 56 215 q 81 227 74 221 q 94 242 89 233 q 98 261 98 250 l 98 269 l 98 268 q 109 321 100 290 q 132 388 118 352 q 161 463 145 424 q 190 539 176 502 q 215 609 204 576 q 228 665 225 642 l 228 673 z "},"m":{"ha":541,"x_min":-3,"x_max":507,"o":"m 501 248 l 500 252 l 501 248 m 507 225 q 505 237 507 231 q 501 248 503 242 q 494 287 496 262 q 488 339 491 311 q 481 396 486 368 q 467 448 476 425 q 443 485 458 471 q 406 500 429 500 q 381 495 393 500 q 356 483 368 490 q 334 467 345 475 q 314 450 323 458 l 314 458 q 300 508 314 488 q 252 528 286 528 q 227 524 239 528 q 204 514 216 520 q 190 547 204 534 q 155 561 175 561 q 123 549 134 561 q 107 518 111 537 q 95 489 104 505 q 73 454 85 473 q 47 416 61 436 q 23 377 34 397 q 4 336 12 357 q -3 297 -3 316 q 13 256 -3 273 q 53 239 28 239 q 76 246 64 239 q 101 266 88 254 q 127 292 115 277 q 152 321 140 307 q 174 349 164 336 q 192 371 184 362 q 185 349 189 362 q 176 323 180 336 q 169 297 172 309 q 165 275 165 284 q 180 240 165 254 q 215 225 194 225 q 253 243 237 225 q 315 313 284 277 q 382 379 347 348 q 385 347 384 367 q 389 304 387 327 q 396 259 392 281 q 408 218 401 236 q 428 188 416 199 q 457 176 439 176 q 493 191 478 176 q 507 225 507 205 z "},"n":{"ha":437,"x_min":-4,"x_max":407,"o":"m 407 419 q 402 453 407 437 q 389 481 398 469 q 367 501 380 494 q 334 509 353 509 q 298 503 317 509 q 262 488 280 496 q 228 469 245 479 q 199 450 212 458 q 205 464 203 456 q 208 479 208 471 q 194 513 208 499 q 158 528 179 528 q 119 510 135 528 q 105 487 116 505 q 81 443 94 468 q 52 389 67 418 q 25 336 37 361 q 4 293 12 311 q -4 271 -4 275 q 11 237 -4 251 q 45 222 25 222 q 77 233 62 222 q 188 322 131 277 q 306 399 244 367 q 290 349 302 378 q 266 290 279 319 q 243 236 253 260 q 233 201 233 212 q 248 167 233 182 q 282 153 262 153 q 312 162 299 153 q 329 187 325 172 q 354 242 340 213 q 379 301 368 271 q 399 361 391 331 q 407 419 407 391 z "},"o":{"ha":372,"x_min":-4,"x_max":329,"o":"m 231 334 q 224 309 231 319 q 208 295 218 300 q 184 288 197 290 q 158 286 172 286 q 129 288 144 286 q 100 296 115 290 q 123 327 110 311 q 150 356 136 342 q 180 384 165 370 q 208 410 195 397 q 224 373 217 392 q 231 334 231 353 m 329 334 q 325 367 329 347 q 315 409 321 387 q 298 454 308 431 q 275 494 288 476 q 247 523 262 512 q 215 534 232 534 q 184 521 205 534 q 140 485 164 507 q 90 436 115 463 q 43 381 64 408 q 9 328 22 353 q -4 286 -4 303 q 13 239 -4 258 q 56 208 31 220 q 109 191 81 196 q 160 186 138 186 q 225 195 195 186 q 279 222 256 204 q 315 269 302 241 q 329 334 329 296 z "},"p":{"ha":383,"x_min":-107,"x_max":339,"o":"m -96 22 l -98 20 l -97 20 l -96 22 m 236 354 q 216 339 228 347 q 191 323 204 330 q 164 311 178 315 q 140 306 151 306 q 130 307 134 306 q 125 310 127 308 q 121 314 123 311 q 114 319 119 317 q 133 369 123 343 q 157 418 143 395 q 177 406 166 414 q 200 390 189 399 q 220 372 211 381 q 236 354 230 362 m 339 349 q 330 387 339 367 q 304 426 320 406 q 269 462 289 445 q 228 492 249 479 q 185 513 206 505 q 147 521 164 521 l 144 521 l 135 519 q 97 501 115 519 q 62 454 79 484 q 30 387 45 425 q 1 307 15 349 q -26 222 -14 265 q -52 141 -39 180 q -75 71 -64 102 q -97 20 -86 39 q -107 -8 -107 7 q -93 -44 -107 -29 q -57 -58 -78 -58 q -20 -40 -35 -58 q -6 -16 -14 -35 q 12 28 2 3 q 31 82 21 53 q 51 138 41 111 q 67 188 60 165 q 78 222 74 211 q 107 210 92 214 q 138 207 122 207 q 175 212 154 207 q 218 227 196 218 q 262 250 241 237 q 301 279 284 264 q 329 313 318 295 q 339 349 339 330 z "},"q":{"ha":342,"x_min":-25,"x_max":307,"o":"m 208 122 q 204 90 208 110 q 192 48 199 71 q 174 2 184 25 q 152 -40 163 -21 q 128 -70 140 -58 q 103 -82 115 -82 q 85 -74 92 -82 q 74 -57 78 -65 q 81 -29 75 -47 q 96 12 87 -11 q 117 59 106 34 q 140 106 129 83 q 160 148 151 129 q 175 176 170 166 q 200 154 193 167 q 208 122 208 141 m 175 412 l 171 401 q 141 380 158 391 q 109 366 124 369 q 139 392 121 380 q 175 412 157 405 m 307 122 q 285 207 307 170 q 218 265 262 243 q 237 304 227 282 q 257 351 248 327 q 273 397 267 374 q 279 439 279 420 q 256 496 279 475 q 199 518 233 518 q 158 511 180 518 q 114 493 136 505 q 72 466 92 481 q 35 431 51 450 q 9 393 19 413 q 0 353 0 373 q 8 318 0 334 q 30 290 16 302 q 59 271 43 278 q 93 264 76 264 l 97 264 l 109 265 q 87 223 100 248 q 59 168 74 197 q 29 106 44 138 q 2 43 14 74 q -18 -14 -10 13 q -25 -58 -25 -40 q -14 -104 -25 -82 q 15 -144 -3 -127 q 56 -172 33 -161 q 103 -182 79 -182 q 160 -166 134 -182 q 210 -126 187 -151 q 251 -68 233 -100 q 281 -2 269 -36 q 300 64 294 32 q 307 122 307 96 z "},"r":{"ha":456,"x_min":0,"x_max":406,"o":"m 406 416 q 400 467 406 441 q 382 515 395 493 q 350 551 370 537 q 301 566 330 566 q 257 556 279 566 q 216 533 236 547 q 179 502 197 519 q 146 471 161 486 q 140 472 142 472 q 134 472 137 472 q 106 464 119 472 q 87 443 94 456 q 77 419 85 436 q 60 380 70 402 q 40 333 50 357 q 20 287 29 309 q 6 250 12 266 q 0 231 0 235 q 4 212 0 220 q 15 196 8 203 q 31 184 22 189 q 50 180 40 180 q 74 187 62 180 q 92 205 85 194 q 116 246 102 222 q 145 296 130 270 q 180 350 161 323 q 217 401 198 378 q 257 441 237 425 q 297 465 277 458 q 304 434 303 451 q 310 401 306 416 q 323 375 313 385 q 358 364 334 364 q 377 369 368 364 q 392 380 386 373 q 402 397 399 388 q 406 416 406 406 z "},"s":{"ha":452,"x_min":0,"x_max":415,"o":"m 415 488 q 406 514 415 503 q 381 536 396 526 q 347 552 366 545 q 310 563 328 558 q 275 569 292 567 q 248 571 258 571 q 193 561 219 571 q 149 534 168 551 q 118 492 130 516 q 107 437 107 467 q 118 395 107 412 q 146 366 130 378 q 184 346 163 355 q 222 329 204 338 q 201 304 215 315 q 170 283 186 292 q 135 270 153 275 q 103 265 117 265 q 89 268 95 265 q 76 273 82 270 q 64 278 70 276 q 50 281 58 281 q 15 266 29 281 q 0 231 0 252 q 11 200 0 212 q 37 180 22 187 q 71 169 53 172 q 103 165 89 165 q 175 178 136 165 q 247 214 214 191 q 302 269 280 237 q 325 336 325 300 q 313 379 325 363 q 284 406 301 395 q 246 425 267 416 q 208 443 226 433 q 221 466 212 460 q 248 472 231 472 q 283 467 266 472 q 315 455 300 462 q 343 444 330 449 q 366 439 356 439 q 401 453 387 439 q 415 488 415 468 z "},"t":{"ha":522,"x_min":-5,"x_max":570,"o":"m 570 513 q 555 548 570 534 q 519 562 541 562 q 498 557 509 562 q 482 545 488 553 q 451 534 471 538 q 409 526 431 529 q 366 519 387 522 q 332 515 345 517 q 350 558 338 530 q 376 620 361 586 q 405 692 390 654 q 432 765 420 730 q 452 827 444 799 q 460 869 460 854 q 445 904 460 889 q 411 920 431 920 q 377 905 391 920 q 361 871 362 890 q 351 831 360 859 q 328 767 342 803 q 298 690 315 731 q 266 613 281 650 q 239 547 251 576 q 221 504 227 518 q 132 499 176 500 q 43 493 87 497 q 8 477 21 491 q -5 441 -5 463 q -1 422 -5 431 q 11 408 3 414 q 28 398 18 401 q 47 395 37 395 q 113 397 80 395 q 179 401 146 399 q 163 361 173 386 q 145 311 154 337 q 130 261 136 286 q 123 220 123 236 q 137 182 123 198 q 174 167 151 167 q 208 180 193 167 q 222 212 222 193 l 222 216 l 222 220 q 227 243 223 228 q 238 276 231 258 q 252 314 244 294 q 267 353 259 334 q 280 387 274 372 q 289 411 286 402 q 328 414 302 412 q 385 420 353 416 q 449 431 416 424 q 508 449 481 438 q 552 475 535 460 q 570 513 570 491 z "},"u":{"ha":431,"x_min":0,"x_max":396,"o":"m 396 504 q 381 538 396 524 q 346 553 367 553 q 312 538 326 553 q 297 504 297 524 q 287 465 297 488 q 260 416 277 441 q 223 364 244 390 q 182 316 203 338 q 142 279 161 294 q 110 261 123 264 q 101 282 104 269 q 98 306 98 296 q 111 354 98 328 q 138 410 123 381 q 165 469 153 439 q 178 524 178 498 q 163 558 178 543 q 129 572 149 572 q 94 558 106 572 q 79 524 81 545 q 64 477 77 501 q 37 425 51 452 q 11 368 22 398 q 0 306 0 338 q 6 256 0 281 q 25 209 12 230 q 59 175 38 188 q 109 161 79 161 q 169 179 136 161 q 233 227 201 197 q 294 293 264 256 q 346 368 323 330 q 382 441 369 406 q 396 504 396 477 z "},"v":{"ha":387,"x_min":0,"x_max":357,"o":"m 357 532 q 342 566 357 551 q 307 581 327 581 q 272 567 286 581 q 257 532 259 553 q 248 502 256 519 q 226 463 239 484 q 197 419 213 441 q 165 377 181 397 q 137 340 150 357 q 115 314 123 323 q 116 340 115 324 q 117 376 117 357 q 114 437 117 405 q 105 497 112 470 q 85 543 98 525 q 50 561 72 561 q 15 547 29 561 q 0 513 0 532 q 1 504 0 509 q 3 496 1 500 q 15 429 12 463 q 17 359 17 394 q 13 278 17 319 q 9 195 9 237 q 24 158 9 174 q 61 143 39 143 q 110 166 80 143 q 172 226 139 189 q 238 307 205 262 q 297 395 271 351 q 340 475 323 438 q 357 532 357 511 z "},"w":{"ha":635,"x_min":-3,"x_max":603,"o":"m 603 515 q 599 535 603 526 q 588 551 595 544 q 572 562 581 557 q 553 566 563 566 q 525 557 537 566 q 507 534 513 548 q 481 475 494 506 q 452 414 467 444 q 419 354 437 383 q 382 301 402 326 q 377 337 379 315 q 373 382 376 358 q 367 430 371 406 q 354 473 362 454 q 332 504 346 492 q 297 515 318 515 q 256 499 278 515 q 215 460 235 482 q 177 414 195 437 q 150 378 160 391 q 171 441 161 407 q 182 505 182 475 q 164 559 182 537 q 114 582 147 582 q 88 578 102 582 q 64 568 75 575 q 46 550 53 561 q 39 525 39 539 q 50 494 39 507 q 79 476 62 481 q 58 415 72 450 q 31 344 45 380 q 7 275 18 308 q -3 218 -3 241 q 13 173 -3 192 q 57 154 28 154 q 92 166 73 154 q 132 199 111 179 q 173 244 152 220 q 212 293 193 269 q 247 339 231 317 q 272 372 262 360 q 275 338 273 357 q 281 298 277 318 q 291 258 285 277 q 308 223 298 239 q 334 198 319 208 q 371 189 349 189 q 420 207 395 189 q 467 252 444 224 q 511 315 490 280 q 549 384 532 349 q 578 448 566 418 q 599 497 591 478 q 602 506 601 501 q 603 515 603 511 z "},"x":{"ha":446,"x_min":0,"x_max":415,"o":"m 415 453 q 401 487 415 473 q 366 501 387 501 q 338 495 355 501 q 301 482 320 490 q 265 467 282 475 q 237 453 248 458 q 224 485 231 466 q 208 520 217 503 q 188 549 199 537 q 158 561 176 561 q 123 547 138 561 q 109 511 109 532 q 114 487 109 502 q 125 457 119 473 q 140 426 132 441 q 153 403 148 412 q 107 373 134 391 q 57 333 81 355 q 17 288 33 312 q 0 239 0 264 q 8 206 0 222 q 28 176 16 190 q 57 154 41 163 q 89 146 73 146 q 123 160 109 146 q 138 195 138 175 q 129 223 138 212 q 106 241 120 234 q 152 281 125 263 q 201 317 178 300 q 242 251 221 284 q 285 187 263 218 q 303 171 292 177 q 326 165 314 165 q 360 180 346 165 q 375 215 375 194 q 363 245 375 224 q 337 290 352 266 q 308 335 322 314 q 288 367 293 357 q 326 382 304 375 q 367 400 347 390 q 401 422 387 410 q 415 453 415 435 z "},"y":{"ha":383,"x_min":-187,"x_max":339,"o":"m 339 345 q 323 383 339 368 q 283 399 307 399 q 242 388 267 399 q 193 362 218 377 q 142 333 167 348 q 102 310 118 318 q 114 356 106 331 q 132 407 122 381 q 154 455 142 432 q 178 496 165 479 q 184 511 182 503 q 187 526 187 518 q 173 561 187 546 q 139 576 159 576 q 103 558 121 576 q 71 512 86 541 q 42 449 56 484 q 20 381 29 414 q 5 320 11 348 q 0 278 0 292 q 4 247 0 262 q 17 221 8 233 q 39 204 26 210 q 69 197 52 197 q 102 203 85 197 q 137 216 119 208 q 170 234 154 224 q 199 250 186 243 q 180 212 193 239 q 148 149 166 185 q 106 70 129 113 q 60 -15 83 28 q 12 -97 36 -58 q -32 -168 -12 -137 q -70 -216 -53 -198 q -97 -235 -87 -235 q -101 -232 -98 -235 q -110 -225 -104 -229 q -122 -218 -115 -221 q -139 -215 -130 -215 q -173 -230 -159 -215 q -187 -265 -187 -245 q -178 -294 -187 -281 q -156 -315 -170 -307 q -126 -329 -142 -324 q -97 -334 -111 -334 q -89 -333 -93 -334 q -81 -332 -85 -333 q -28 -310 -53 -327 q 17 -270 -4 -293 q 54 -220 37 -246 q 83 -170 71 -193 q 120 -103 96 -146 q 173 -10 144 -61 q 231 96 201 41 q 284 200 260 151 q 324 288 309 250 q 339 345 339 326 z "},"z":{"ha":393,"x_min":0,"x_max":358,"o":"m 358 144 q 345 207 358 181 q 309 248 332 232 q 258 273 287 264 q 197 286 229 282 q 233 333 210 304 q 277 391 255 361 q 314 452 298 422 q 330 503 330 481 q 325 527 330 516 q 310 547 319 538 q 289 559 301 555 q 264 564 277 564 q 214 554 238 564 q 166 533 189 545 q 119 510 142 522 q 71 496 95 499 q 50 500 60 500 q 15 486 29 500 q 0 452 0 471 q 6 428 0 438 q 21 410 12 417 q 42 399 31 403 q 66 396 54 396 q 97 400 81 396 q 127 409 112 404 q 156 421 142 414 q 184 433 171 427 q 156 396 174 419 q 120 349 138 374 q 91 300 103 324 q 78 257 78 275 q 91 218 78 232 q 125 198 104 205 q 168 190 145 192 q 212 183 191 187 q 245 171 232 179 q 258 144 258 162 q 252 104 258 127 q 233 54 245 80 q 206 0 221 27 q 174 -50 191 -26 q 139 -90 157 -73 q 106 -115 121 -108 q 80 -133 90 -119 q 69 -163 69 -147 q 84 -198 69 -184 q 118 -212 98 -212 q 124 -212 121 -212 q 131 -211 127 -212 q 181 -184 156 -205 q 231 -136 207 -164 q 276 -73 255 -107 q 314 -4 297 -39 q 341 61 330 30 q 355 117 352 93 q 357 131 357 124 q 358 144 358 137 z "},"{":{"ha":1255,"x_min":0,"x_max":1344,"o":"m 1040 897 q 1035 924 1040 909 q 1022 950 1030 938 q 1001 970 1013 962 q 975 978 989 978 q 951 972 962 978 q 933 956 941 966 q 923 933 926 946 q 920 908 920 921 q 924 883 920 895 q 937 861 928 870 q 956 845 945 851 q 982 839 968 839 q 1005 844 994 839 q 1023 856 1015 848 q 1036 874 1031 864 q 1040 897 1040 885 m 817 197 q 807 182 811 191 q 801 163 804 173 q 796 145 798 154 q 791 127 793 136 q 780 159 791 139 q 753 200 768 180 q 721 238 737 221 q 697 258 705 254 l 703 289 q 741 290 722 289 q 779 294 760 291 q 798 245 789 269 q 817 197 807 221 m 1063 876 q 1055 763 1063 820 q 1030 652 1047 705 q 986 551 1013 598 q 920 468 959 504 q 830 411 882 433 q 714 387 779 389 q 672 411 701 411 q 633 392 648 411 q 556 407 597 397 q 473 431 515 416 q 393 463 432 445 q 323 501 354 481 q 293 530 309 511 q 259 574 276 549 q 224 626 241 598 q 192 680 208 653 q 164 729 177 706 q 143 768 151 753 q 292 752 217 757 q 441 746 368 747 q 448 679 442 718 q 469 605 454 640 q 508 544 484 569 q 571 519 533 519 q 605 535 591 519 q 619 570 619 550 q 614 593 619 585 q 602 606 610 601 q 586 615 595 610 q 568 631 576 621 q 553 660 560 642 q 543 710 547 678 q 576 663 557 688 q 618 618 595 639 q 668 585 642 598 q 724 572 695 572 q 743 576 734 572 q 759 586 752 580 q 771 602 766 593 q 775 621 775 610 q 760 657 775 642 q 785 649 772 653 q 810 646 797 646 q 846 660 831 646 q 861 694 861 673 q 858 713 861 705 q 847 729 854 722 q 832 741 840 736 q 814 745 823 745 l 811 745 l 808 745 q 785 753 800 746 q 754 769 770 760 q 724 787 738 779 q 701 802 709 796 q 788 783 743 792 q 875 774 832 774 q 898 777 887 774 q 917 785 909 779 q 931 800 926 791 q 936 823 936 810 q 922 858 936 843 q 888 872 907 872 l 878 872 l 872 872 q 840 875 860 872 q 797 883 819 878 q 755 891 775 887 q 725 897 735 895 q 742 931 733 914 q 760 965 750 949 q 793 1001 770 985 q 842 1026 815 1016 q 896 1042 868 1037 q 945 1047 924 1047 q 961 1047 953 1047 q 978 1044 969 1046 q 1017 1021 1001 1041 q 1043 976 1033 1002 q 1058 923 1053 950 q 1063 876 1063 896 m 728 671 q 700 681 711 674 q 676 700 689 688 q 702 685 689 692 q 728 671 715 678 m 1190 840 l 1160 821 l 1161 854 l 1190 840 m 1344 844 q 1337 872 1344 859 q 1317 892 1331 884 q 1282 908 1306 897 q 1231 932 1257 920 q 1182 954 1205 944 q 1150 964 1159 963 q 1123 1039 1140 1006 q 1082 1097 1107 1073 q 1023 1133 1057 1120 q 945 1146 989 1146 q 867 1138 907 1146 q 789 1113 827 1129 q 721 1070 752 1096 q 672 1011 690 1045 q 649 966 660 989 q 625 920 637 943 q 572 934 601 926 q 518 942 543 942 q 487 932 499 942 q 467 908 475 922 q 456 876 460 893 q 450 844 452 859 q 405 846 435 845 q 337 849 374 847 q 258 855 299 852 q 182 863 218 859 q 119 872 146 867 q 82 884 92 878 q 67 893 73 890 q 49 896 60 896 q 15 881 29 896 q 0 846 0 867 q 4 825 0 836 q 34 763 16 799 q 74 687 52 727 q 120 606 96 647 q 171 529 145 566 q 222 464 197 492 q 269 419 247 435 q 343 377 302 397 q 430 341 385 357 q 520 313 475 325 q 603 296 565 302 l 602 286 q 566 269 579 284 q 546 248 558 260 q 521 220 533 235 q 500 191 509 206 q 492 164 492 176 q 506 129 492 144 q 541 114 521 114 q 572 126 560 114 q 596 151 583 138 q 602 130 598 140 q 612 112 606 120 q 628 99 618 104 q 650 94 637 94 q 672 100 661 94 q 689 115 683 106 q 711 89 701 100 q 742 78 722 78 q 765 84 754 78 q 783 102 776 91 q 782 95 782 98 q 782 87 782 92 q 796 53 782 68 q 831 39 810 39 q 863 51 852 39 q 880 82 875 63 q 898 70 888 75 q 920 65 909 65 q 955 80 941 65 q 970 114 970 94 q 967 130 970 124 q 961 140 964 136 q 954 149 958 144 q 946 160 949 153 q 965 151 954 157 q 988 140 976 146 q 1013 131 1001 135 q 1032 127 1024 127 q 1067 142 1052 127 q 1082 178 1082 157 q 1073 205 1082 193 q 1050 224 1065 217 q 1020 236 1040 227 q 976 255 999 245 q 932 272 953 264 q 904 279 912 279 q 898 279 901 279 q 892 278 895 279 l 875 321 q 981 387 935 346 q 1059 478 1026 427 q 1113 588 1092 530 q 1146 708 1135 647 l 1149 708 q 1173 714 1158 708 q 1203 729 1187 720 q 1238 749 1220 738 q 1271 771 1255 760 q 1300 790 1287 781 q 1321 804 1314 800 q 1338 821 1331 810 q 1344 844 1344 832 z "},"|":{"ha":241,"x_min":-4,"x_max":244,"o":"m 241 1137 q 243 1148 243 1143 q 244 1158 244 1153 q 240 1179 244 1169 q 225 1196 235 1188 q 211 1203 218 1201 q 196 1206 203 1206 q 155 1186 172 1206 q 140 1140 146 1174 q 128 1055 133 1105 q 118 940 123 1004 q 110 805 114 876 q 100 660 105 734 q 90 514 96 586 q 77 377 84 443 q 60 258 70 312 q 39 167 51 205 q 11 113 26 129 q 8 110 9 111 q 5 107 7 109 q -1 93 1 100 q -4 78 -4 85 q 16 37 -4 53 q 31 29 24 32 q 45 26 37 26 q 72 36 59 26 q 94 58 84 45 q 124 109 112 81 q 144 164 136 136 q 162 246 154 195 q 176 360 170 298 q 188 490 182 422 q 197 621 193 558 q 204 736 201 684 q 208 821 207 789 q 210 862 209 836 q 214 919 212 888 q 219 983 216 949 q 226 1046 222 1016 q 233 1100 229 1076 q 241 1137 237 1124 z "},"}":{"ha":1747,"x_min":0,"x_max":1714,"o":"m 322 443 l 302 390 q 247 426 279 404 q 183 475 214 448 q 128 531 152 502 q 100 587 104 560 q 115 590 107 589 q 132 590 123 590 q 165 589 149 590 q 197 583 182 587 q 229 560 214 579 q 259 518 244 541 q 290 473 275 495 q 322 443 306 452 m 1296 350 q 1180 306 1241 327 q 1055 270 1118 286 q 928 244 991 254 q 806 235 865 235 q 700 243 753 235 q 592 267 646 252 q 488 301 539 281 q 390 343 437 321 q 412 402 400 368 q 437 475 424 437 q 465 552 450 513 q 494 628 479 592 q 523 694 509 664 q 551 743 538 724 q 568 766 557 751 q 592 800 578 781 q 623 837 606 818 q 655 872 639 857 q 686 898 671 888 q 711 908 701 908 q 731 893 724 908 q 744 855 739 879 q 752 801 749 831 q 761 740 756 771 q 773 678 766 708 q 792 624 781 648 q 822 586 804 600 q 867 571 840 571 q 919 591 895 571 q 964 644 943 612 q 1005 714 985 675 q 1042 791 1024 753 q 1079 860 1061 829 q 1116 908 1097 892 q 1148 896 1133 907 q 1176 868 1163 884 q 1198 831 1188 852 q 1215 790 1208 811 q 1227 750 1223 770 q 1232 717 1231 731 q 1237 627 1235 676 q 1246 528 1240 578 q 1263 432 1252 478 q 1296 350 1275 385 m 1615 568 q 1578 516 1607 543 q 1514 466 1550 490 q 1444 422 1479 442 q 1386 392 1409 403 q 1370 421 1375 406 q 1360 453 1364 437 q 1386 468 1369 457 q 1426 492 1404 479 q 1472 521 1448 506 q 1516 548 1495 536 q 1551 568 1536 560 q 1571 576 1567 576 q 1593 575 1581 576 q 1615 568 1605 574 m 1714 572 q 1700 621 1714 602 q 1665 653 1686 641 q 1617 670 1643 665 q 1568 675 1592 675 q 1517 661 1548 675 q 1454 627 1487 646 q 1392 587 1421 607 q 1343 555 1362 567 q 1334 668 1337 612 q 1322 778 1332 724 q 1288 879 1312 831 q 1214 966 1263 927 q 1166 996 1192 984 q 1112 1007 1141 1007 q 1062 989 1086 1007 q 1016 942 1038 970 q 974 877 994 913 q 936 805 954 841 q 902 738 918 770 q 872 686 886 706 q 862 743 866 710 q 851 812 857 777 q 837 883 846 848 q 812 945 828 918 q 773 990 797 973 q 714 1007 749 1007 q 661 996 687 1007 q 611 965 635 984 q 565 923 587 947 q 524 873 543 899 q 487 823 504 848 q 456 779 469 799 q 440 752 449 770 q 423 712 432 734 q 404 666 414 690 q 387 619 395 642 q 372 577 378 596 q 361 546 365 557 q 327 591 342 571 q 299 627 313 612 q 270 655 285 643 q 237 674 256 667 q 192 685 218 682 q 132 689 167 689 q 85 685 109 689 q 42 671 61 682 q 12 643 24 661 q 0 596 0 625 q 13 534 0 565 q 47 475 26 504 q 95 420 68 446 q 152 371 123 394 q 211 330 182 349 q 264 297 239 311 q 251 271 258 283 q 243 245 243 259 q 257 211 243 225 q 292 196 272 196 q 314 201 304 196 q 330 214 323 206 q 341 231 336 222 q 351 250 347 241 q 458 205 403 226 q 571 169 514 184 q 688 145 629 153 q 804 136 747 136 q 948 148 873 136 q 1098 179 1023 159 q 1244 225 1173 199 q 1378 279 1316 251 q 1400 275 1388 275 q 1414 278 1406 275 q 1431 286 1423 281 q 1443 298 1438 291 q 1449 313 1449 304 l 1449 314 q 1497 340 1470 325 q 1554 376 1525 356 q 1612 418 1584 395 q 1664 466 1641 441 q 1700 518 1686 491 q 1714 572 1714 545 z "},"~":{"ha":732,"x_min":0,"x_max":785,"o":"m 785 847 q 781 866 785 857 q 770 882 777 875 q 754 893 763 889 q 734 897 745 897 q 703 886 717 897 q 686 854 690 874 q 664 808 682 824 q 616 793 645 793 q 554 804 579 793 q 513 834 530 815 q 487 878 497 853 q 470 931 477 903 q 457 988 463 959 q 441 1043 450 1017 q 417 1090 431 1069 q 379 1126 403 1112 q 356 1136 368 1133 q 332 1140 345 1140 q 285 1128 309 1140 q 238 1097 261 1116 q 193 1053 215 1077 q 151 1003 171 1028 q 115 956 132 979 q 86 916 98 932 q 74 899 83 910 q 56 874 66 887 q 38 851 47 862 q 26 838 30 841 q 7 820 14 829 q 0 794 0 810 q 15 760 0 774 q 50 745 29 745 q 91 765 68 745 q 137 816 113 785 q 187 884 161 847 q 237 954 212 921 q 286 1011 262 987 q 329 1040 309 1035 q 348 1010 340 1030 q 361 964 355 990 q 376 908 368 938 q 395 848 383 878 q 424 790 406 818 q 467 741 441 762 q 530 707 493 720 q 616 694 566 694 q 677 706 647 694 q 731 739 707 718 q 770 787 755 759 q 785 847 785 814 z "},"Ä":{"ha":754,"x_min":0,"x_max":724,"o":"m 489 749 q 487 641 489 694 q 481 533 485 588 q 360 475 421 503 q 239 422 300 448 q 267 484 250 447 q 304 563 283 521 q 348 650 325 606 q 395 734 372 694 q 440 805 418 774 q 479 852 462 836 q 485 827 483 838 q 488 806 487 816 q 489 785 489 795 q 489 762 489 775 l 489 749 m 724 591 q 720 610 724 602 q 708 626 715 619 q 692 637 701 633 q 673 642 684 642 q 653 635 665 642 q 629 619 642 628 q 604 601 616 610 q 583 587 591 592 q 587 665 585 626 q 589 742 589 703 l 589 764 q 586 826 589 791 q 574 890 584 860 q 544 941 564 920 q 489 961 524 961 q 429 942 458 961 q 375 895 400 922 q 330 837 349 867 q 298 785 310 806 l 297 785 q 273 778 283 785 q 254 758 262 771 q 227 711 243 742 q 191 642 210 681 q 149 557 171 603 q 106 465 127 512 q 65 373 85 418 q 32 289 46 328 q 8 220 17 250 q 0 175 0 191 q 15 129 0 148 q 58 110 30 110 q 87 121 73 110 q 113 150 100 132 q 137 189 126 168 q 158 232 149 211 q 175 271 168 253 q 186 300 182 290 l 189 300 q 221 307 199 300 q 271 327 243 315 q 331 353 300 338 q 390 380 362 367 q 440 404 418 393 q 471 418 462 414 q 466 375 469 397 q 459 331 463 353 q 454 287 456 309 q 452 245 452 265 q 466 211 452 225 q 500 196 480 196 q 533 208 519 196 q 550 239 546 220 q 560 295 556 266 q 566 354 564 324 q 570 413 568 383 q 575 469 572 442 q 598 483 584 475 q 630 500 613 490 q 663 520 646 509 q 693 543 680 531 q 715 567 707 555 q 724 591 724 579 m 441 1086 q 433 1117 441 1102 q 413 1144 425 1132 q 385 1163 400 1156 q 355 1171 370 1171 q 327 1161 340 1171 q 302 1138 313 1152 q 285 1108 292 1124 q 278 1080 278 1093 q 284 1053 278 1065 q 300 1034 290 1042 q 323 1022 311 1026 q 350 1018 336 1018 q 382 1022 366 1018 q 412 1034 399 1025 q 433 1055 425 1042 q 441 1086 441 1068 m 677 1080 q 670 1108 677 1094 q 652 1135 663 1123 q 627 1154 641 1146 q 600 1161 614 1161 q 571 1153 587 1161 q 542 1134 555 1145 q 520 1107 529 1122 q 511 1078 511 1092 q 518 1049 511 1061 q 537 1028 526 1037 q 563 1016 549 1020 q 592 1011 578 1011 q 624 1015 608 1011 q 651 1028 639 1019 q 670 1050 663 1037 q 677 1080 677 1063 z "},"Å":{"ha":754,"x_min":0,"x_max":724,"o":"m 489 749 q 487 641 489 694 q 481 533 485 588 q 360 475 421 503 q 239 422 300 448 q 267 484 250 447 q 304 563 283 521 q 348 650 325 606 q 395 734 372 694 q 440 805 418 774 q 479 852 462 836 q 485 827 483 838 q 488 806 487 816 q 489 785 489 795 q 489 762 489 775 l 489 749 m 554 1048 q 548 1023 554 1037 q 532 998 542 1010 q 510 979 522 987 q 485 971 497 971 q 455 982 469 971 q 432 1006 440 992 l 432 1008 q 438 1035 432 1019 q 454 1067 445 1051 q 473 1098 463 1084 q 492 1118 484 1112 q 515 1111 504 1118 q 535 1095 526 1105 q 549 1072 543 1084 q 554 1048 554 1060 m 653 1048 q 640 1111 653 1081 q 605 1165 627 1141 q 553 1202 583 1188 q 492 1217 524 1217 q 451 1206 471 1217 q 414 1178 431 1196 q 381 1139 396 1161 q 356 1093 367 1116 q 339 1047 345 1069 q 334 1006 334 1024 q 349 952 334 977 q 387 908 363 927 q 335 844 358 879 q 298 785 311 810 l 297 785 q 273 778 283 785 q 254 758 262 771 q 227 711 243 742 q 191 642 210 681 q 149 557 171 603 q 106 465 127 512 q 65 373 85 418 q 32 289 46 328 q 8 220 17 250 q 0 175 0 191 q 15 129 0 148 q 58 110 30 110 q 87 121 73 110 q 113 150 100 132 q 137 189 126 168 q 158 232 149 211 q 175 271 168 253 q 186 300 182 290 l 189 300 q 221 307 199 300 q 271 327 243 315 q 331 353 300 338 q 390 380 362 367 q 440 404 418 393 q 471 418 462 414 q 466 375 469 397 q 459 331 463 353 q 454 287 456 309 q 452 245 452 265 q 466 211 452 225 q 500 196 480 196 q 533 208 519 196 q 550 239 546 220 q 560 295 556 266 q 566 354 564 324 q 570 413 568 383 q 575 469 572 442 q 598 483 584 475 q 630 500 613 490 q 663 520 646 509 q 693 543 680 531 q 715 567 707 555 q 724 591 724 579 q 720 610 724 602 q 708 626 715 619 q 692 637 701 633 q 673 642 684 642 q 653 635 665 642 q 629 619 642 628 q 604 601 616 610 q 583 587 591 592 q 586 665 585 626 q 589 742 587 703 l 589 764 q 588 797 589 779 q 586 831 588 814 q 581 867 584 849 q 571 900 577 884 q 604 930 589 913 q 630 966 619 947 q 647 1006 641 985 q 653 1048 653 1027 z "},"Ç":{"ha":510,"x_min":0,"x_max":479,"o":"m 314 77 q 312 107 314 89 q 305 148 309 125 q 294 193 300 170 q 279 240 288 217 q 357 249 317 242 q 429 268 397 256 q 454 287 444 275 q 464 315 464 298 q 460 335 464 326 q 449 351 456 344 q 433 361 441 357 q 414 366 424 366 q 406 365 410 366 q 399 363 403 364 q 316 345 358 351 q 232 338 275 338 q 183 341 207 338 q 140 355 159 345 q 110 384 121 365 q 98 433 98 403 q 102 469 98 451 q 110 505 106 488 q 133 556 117 528 q 171 614 149 585 q 218 673 193 644 q 271 727 244 702 q 324 771 298 752 q 372 800 350 790 q 378 741 378 770 q 379 682 379 711 q 380 656 379 669 q 386 631 381 642 q 401 614 391 621 q 428 607 411 607 q 457 614 447 607 q 472 634 467 622 q 477 660 477 646 q 478 689 478 675 l 478 690 q 479 705 478 696 q 479 721 479 713 q 477 780 479 748 q 466 839 475 811 q 438 884 456 866 q 389 903 420 903 q 318 883 356 903 q 241 832 280 864 q 166 760 203 800 q 98 679 129 720 q 46 600 68 638 q 16 532 24 561 q 0 432 0 483 q 13 357 0 389 q 47 302 25 325 q 99 265 69 279 q 164 244 129 251 q 181 211 172 230 q 197 171 190 193 q 210 126 205 150 q 215 77 215 102 q 210 28 215 50 q 193 -9 205 7 q 161 -33 180 -24 q 113 -41 141 -41 l 109 -41 q 83 -42 96 -41 q 59 -48 70 -43 q 42 -63 49 -53 q 36 -90 36 -73 q 43 -117 36 -107 q 62 -132 51 -127 q 87 -139 73 -137 q 113 -140 100 -140 q 200 -124 162 -140 q 263 -79 237 -108 q 301 -10 288 -50 q 314 77 314 30 z "},"É":{"ha":363,"x_min":0,"x_max":328,"o":"m 328 328 q 313 362 328 347 q 278 376 298 376 q 247 370 267 376 q 205 356 228 364 q 158 342 182 349 q 113 336 134 336 q 106 336 109 336 q 100 338 103 336 q 112 378 102 357 q 135 422 121 399 q 165 467 149 444 q 193 512 180 490 q 215 555 206 534 q 224 593 224 575 q 210 634 224 620 q 178 657 197 648 q 138 672 159 666 q 102 689 117 678 q 128 721 109 703 q 170 757 147 739 q 214 790 192 774 q 250 815 236 805 q 272 857 272 831 q 258 891 272 877 q 224 905 243 905 q 189 894 211 905 q 143 865 168 883 q 93 823 118 846 q 46 775 67 800 q 13 727 26 751 q 0 685 0 703 q 11 643 0 661 q 38 612 21 625 q 75 591 54 600 q 114 576 95 583 q 80 521 100 551 q 43 459 60 491 q 14 394 26 427 q 1 334 1 362 q 11 290 1 308 q 35 260 20 271 q 72 243 51 248 q 115 237 92 237 q 159 241 136 237 q 207 251 183 245 q 254 265 231 257 q 296 282 277 273 q 319 300 311 288 q 328 328 328 312 m 311 1225 q 265 1255 296 1255 q 253 1254 259 1255 q 240 1249 247 1253 q 198 1214 217 1237 q 163 1163 179 1191 q 134 1106 147 1135 q 107 1055 120 1078 q 101 1044 103 1048 q 97 1037 98 1040 q 94 1032 96 1034 q 92 1029 93 1030 q 86 1024 90 1027 q 73 1014 82 1022 q 52 975 52 999 q 53 960 52 967 q 58 945 55 953 q 75 929 64 934 q 97 925 85 925 q 113 927 106 925 q 127 932 120 928 q 157 957 144 940 q 183 996 171 974 q 207 1042 195 1017 q 230 1089 218 1066 q 255 1131 241 1112 q 285 1161 269 1149 q 306 1179 297 1166 q 315 1206 315 1192 q 311 1225 315 1217 z "},"Ñ":{"ha":714,"x_min":0,"x_max":742,"o":"m 742 900 q 738 919 742 910 q 727 935 734 928 q 711 946 720 942 q 692 950 702 950 q 660 938 673 950 q 643 908 647 926 q 633 859 639 890 q 618 789 627 828 q 599 707 610 751 q 576 618 589 663 q 550 533 564 574 q 520 458 536 492 q 487 402 505 425 q 452 372 470 379 q 410 364 433 364 q 363 380 384 364 q 326 421 342 395 q 298 482 310 448 q 277 555 286 517 q 262 632 269 593 q 252 706 256 671 q 246 770 248 741 q 241 817 243 799 q 228 851 240 838 q 193 865 215 865 q 164 857 176 865 q 146 832 153 848 q 132 797 141 823 q 112 736 123 772 q 89 657 101 700 q 63 569 76 614 q 39 481 51 524 q 19 402 28 438 q 5 341 10 367 q 0 307 0 316 q 15 272 0 286 q 50 257 29 257 q 83 272 70 257 q 98 306 97 286 q 108 366 100 330 q 128 440 117 402 q 151 515 139 479 q 170 575 162 551 q 185 510 176 545 q 209 440 195 475 q 241 374 222 406 q 284 317 260 342 q 340 278 309 293 q 410 264 371 264 q 488 281 454 264 q 549 326 522 298 q 597 392 576 355 q 633 468 617 429 q 660 548 648 508 q 681 621 671 587 q 691 657 685 635 q 704 705 697 679 q 718 760 711 732 q 730 814 724 788 q 739 863 735 840 q 742 900 742 886 m 659 1107 q 654 1126 659 1117 q 643 1142 650 1135 q 627 1153 636 1149 q 608 1157 618 1157 q 582 1151 591 1157 q 567 1136 572 1145 q 559 1116 562 1126 q 551 1096 556 1105 q 538 1081 546 1087 q 514 1075 530 1075 q 490 1082 498 1075 q 475 1101 481 1090 q 462 1125 469 1112 q 444 1150 455 1139 q 414 1168 433 1161 q 365 1176 395 1176 q 327 1171 342 1176 q 297 1147 312 1166 q 284 1131 293 1141 q 266 1106 276 1120 q 245 1079 256 1093 q 225 1051 234 1064 q 211 1028 217 1038 q 205 1014 205 1018 q 220 978 205 993 q 256 962 235 962 q 295 976 281 962 q 321 1008 309 989 q 345 1044 332 1026 q 378 1071 357 1062 q 400 1043 392 1056 q 413 1019 408 1029 q 426 999 419 1008 q 443 984 432 990 q 470 975 453 978 q 514 972 487 972 q 566 982 541 972 q 613 1011 592 993 q 646 1054 633 1029 q 659 1107 659 1078 z "},"Ö":{"ha":554,"x_min":0,"x_max":524,"o":"m 422 562 q 401 469 422 515 q 346 388 380 424 q 266 331 311 353 q 172 310 220 310 q 137 313 151 310 q 115 325 123 317 q 102 347 106 333 q 98 380 98 360 q 102 427 98 403 q 112 475 106 451 q 126 523 118 499 q 142 567 134 546 q 159 549 148 555 q 184 542 171 542 q 228 566 214 542 q 247 597 237 580 q 268 631 257 614 q 292 663 279 648 q 317 690 304 679 l 322 690 q 371 681 352 690 q 402 653 391 671 q 418 613 414 636 q 422 562 422 589 m 521 564 q 509 652 521 611 q 473 724 498 693 q 411 771 449 754 q 322 789 374 789 q 305 788 314 789 q 288 786 296 788 q 288 789 288 788 q 289 793 289 791 q 275 828 289 812 q 239 843 260 843 q 178 817 208 843 q 122 748 149 790 q 73 654 96 706 q 35 550 51 602 q 9 454 18 499 q 0 380 0 408 q 45 254 0 298 q 172 211 90 211 q 304 240 241 211 q 416 318 368 269 q 492 431 464 367 q 521 564 521 494 m 288 962 q 280 993 288 978 q 259 1020 272 1008 q 232 1039 247 1031 q 201 1046 216 1046 q 173 1037 187 1046 q 149 1014 159 1027 q 132 984 138 1000 q 125 956 125 968 q 131 929 125 941 q 147 910 137 918 q 170 898 157 902 q 197 894 183 894 q 229 898 213 894 q 258 910 245 901 q 279 931 271 918 q 288 962 288 944 m 524 956 q 517 984 524 970 q 499 1010 510 999 q 474 1029 488 1022 q 447 1037 460 1037 q 418 1029 433 1037 q 389 1009 402 1021 q 367 983 376 998 q 358 954 358 968 q 365 925 358 937 q 384 904 372 913 q 410 891 395 896 q 439 887 425 887 q 470 891 455 887 q 497 904 486 895 q 516 926 509 913 q 524 956 524 939 z "},"Ü":{"ha":404,"x_min":0,"x_max":468,"o":"m 389 708 q 374 744 389 729 q 339 758 360 758 q 307 746 321 758 q 286 707 296 737 q 264 638 275 677 q 239 554 253 598 q 206 474 225 511 q 162 413 187 437 q 102 389 136 389 q 97 412 97 399 q 104 477 97 441 q 122 550 111 513 q 147 622 134 587 q 172 684 160 656 q 178 705 178 692 q 163 740 178 725 q 129 754 149 754 q 85 728 100 754 q 64 687 75 711 q 45 634 54 663 q 27 575 35 606 q 13 515 19 544 q 3 460 7 486 q 0 415 0 434 q 5 368 0 390 q 22 328 10 345 q 54 300 34 311 q 102 290 73 290 q 177 307 144 290 q 237 350 210 323 q 284 413 264 378 q 320 487 304 448 q 347 563 335 525 q 367 635 358 602 q 372 651 368 640 q 379 673 376 662 q 386 695 383 685 q 389 708 389 705 m 232 935 q 224 965 232 950 q 204 992 216 980 q 176 1011 191 1004 q 146 1019 161 1019 q 118 1009 132 1019 q 93 986 104 1000 q 76 956 83 972 q 69 928 69 941 q 75 901 69 913 q 92 882 81 890 q 115 870 102 874 q 141 866 127 866 q 174 870 157 866 q 203 882 190 873 q 224 903 216 890 q 232 935 232 916 m 468 928 q 461 957 468 942 q 443 983 454 971 q 418 1002 432 994 q 391 1009 405 1009 q 362 1001 378 1009 q 333 982 347 994 q 311 955 320 970 q 302 926 302 940 q 310 897 302 909 q 328 877 317 885 q 354 864 340 868 q 383 859 369 859 q 415 863 399 859 q 442 876 430 867 q 461 898 454 885 q 468 928 468 911 z "},"á":{"ha":359,"x_min":-1,"x_max":454,"o":"m 215 425 q 196 414 205 423 q 178 391 187 404 q 160 364 170 378 q 141 336 151 349 q 119 312 131 322 q 93 298 107 302 q 102 325 96 309 q 118 358 109 340 q 139 394 127 376 q 162 427 151 412 q 185 454 174 443 q 205 471 196 466 q 212 457 210 465 q 215 443 215 450 l 215 425 m 307 440 q 301 485 307 462 q 282 527 294 508 q 251 558 269 546 q 207 571 232 571 q 158 555 183 571 q 111 514 134 540 q 67 457 87 489 q 32 394 47 426 q 7 334 16 363 q -1 285 -1 304 q 23 222 -1 245 q 87 199 47 199 q 139 212 115 199 q 183 243 163 224 q 195 219 187 233 q 211 195 202 206 q 232 176 220 184 q 256 168 243 168 q 274 173 266 168 q 289 184 283 177 q 299 200 295 191 q 302 218 302 209 q 296 242 302 235 q 283 259 290 250 q 270 281 276 268 q 264 321 264 294 q 267 347 264 334 q 269 372 269 359 l 269 376 l 269 383 q 299 404 290 387 q 307 440 307 420 m 450 948 q 404 979 435 979 q 392 977 398 979 q 379 972 386 976 q 337 937 356 960 q 302 886 318 914 q 273 830 286 859 q 246 779 259 801 q 240 767 242 772 q 236 760 237 763 q 233 755 235 757 q 231 752 232 753 q 225 748 229 750 q 212 737 221 745 q 191 698 191 722 q 192 683 191 690 q 197 669 194 676 q 214 653 203 657 q 236 648 224 648 q 252 650 245 648 q 267 655 259 652 q 296 680 283 663 q 322 719 310 697 q 346 765 334 741 q 369 812 357 789 q 394 854 380 835 q 424 884 408 873 q 445 903 436 890 q 454 930 454 916 q 450 948 454 940 z "},"à":{"ha":359,"x_min":-31,"x_max":307,"o":"m 215 425 q 196 414 205 423 q 178 391 187 404 q 160 364 170 378 q 141 336 151 349 q 119 312 131 322 q 93 298 107 302 q 102 325 96 309 q 118 358 109 340 q 139 394 127 376 q 162 427 151 412 q 185 454 174 443 q 205 471 196 466 q 212 457 210 465 q 215 443 215 450 l 215 425 m 307 440 q 301 485 307 462 q 282 527 294 508 q 251 558 269 546 q 207 571 232 571 q 158 555 183 571 q 111 514 134 540 q 67 457 87 489 q 32 394 47 426 q 7 334 16 363 q -1 285 -1 304 q 23 222 -1 245 q 87 199 47 199 q 139 212 115 199 q 183 243 163 224 q 195 219 187 233 q 211 195 202 206 q 232 176 220 184 q 256 168 243 168 q 274 173 266 168 q 289 184 283 177 q 299 200 295 191 q 302 218 302 209 q 296 242 302 235 q 283 259 290 250 q 270 281 276 268 q 264 321 264 294 q 267 347 264 334 q 269 372 269 359 l 269 376 l 269 383 q 299 404 290 387 q 307 440 307 420 m 224 669 q 233 698 233 684 q 210 737 233 722 q 197 748 201 745 q 191 753 193 751 q 186 761 189 755 q 176 779 183 766 q 150 830 163 801 q 121 886 136 859 q 86 937 105 914 q 43 972 67 960 q 31 977 37 976 q 19 979 24 979 q -27 948 -12 979 q -31 930 -31 940 q -23 903 -31 916 q -1 884 -14 890 q 29 854 16 873 q 55 812 43 835 q 78 765 66 789 q 101 719 89 741 q 126 680 113 697 q 156 655 140 663 q 185 648 171 648 q 209 653 198 648 q 224 669 219 657 z "},"â":{"ha":359,"x_min":-1,"x_max":408,"o":"m 215 425 q 196 414 205 423 q 178 391 187 404 q 160 364 170 378 q 141 336 151 349 q 119 312 131 322 q 93 298 107 302 q 102 325 96 309 q 118 358 109 340 q 139 394 127 376 q 162 427 151 412 q 185 454 174 443 q 205 471 196 466 q 212 457 210 465 q 215 443 215 450 l 215 425 m 307 440 q 301 485 307 462 q 282 527 294 508 q 251 558 269 546 q 207 571 232 571 q 158 555 183 571 q 111 514 134 540 q 67 457 87 489 q 32 394 47 426 q 7 334 16 363 q -1 285 -1 304 q 23 222 -1 245 q 87 199 47 199 q 139 212 115 199 q 183 243 163 224 q 195 219 187 233 q 211 195 202 206 q 232 176 220 184 q 256 168 243 168 q 274 173 266 168 q 289 184 283 177 q 299 200 295 191 q 302 218 302 209 q 296 242 302 235 q 283 259 290 250 q 270 281 276 268 q 264 321 264 294 q 267 347 264 334 q 269 372 269 359 l 269 376 l 269 383 q 299 404 290 387 q 307 440 307 420 m 408 669 q 406 686 408 678 q 397 701 403 693 q 353 746 378 727 q 306 781 328 765 q 269 811 284 797 q 252 841 253 825 l 252 848 q 247 869 252 859 q 235 886 243 879 q 218 899 228 894 q 197 903 208 903 q 150 891 168 903 q 116 860 132 879 q 80 819 100 842 q 26 777 60 797 q 7 758 15 769 q 0 732 0 746 q 15 698 0 713 q 50 684 29 684 q 84 690 70 684 q 112 707 98 696 q 139 734 125 718 q 175 771 154 751 q 192 750 185 758 q 204 735 198 742 q 217 723 210 729 q 237 706 224 716 q 264 687 255 693 q 281 675 274 680 q 297 662 289 669 q 321 638 305 654 q 338 624 329 629 q 359 618 347 618 q 394 634 379 618 q 408 669 408 649 z "},"ä":{"ha":359,"x_min":-1,"x_max":427,"o":"m 215 425 q 196 414 205 423 q 178 391 187 404 q 160 364 170 378 q 141 336 151 349 q 119 312 131 322 q 93 298 107 302 q 102 325 96 309 q 118 358 109 340 q 139 394 127 376 q 162 427 151 412 q 185 454 174 443 q 205 471 196 466 q 212 457 210 465 q 215 443 215 450 l 215 425 m 307 440 q 301 485 307 462 q 282 527 294 508 q 251 558 269 546 q 207 571 232 571 q 158 555 183 571 q 111 514 134 540 q 67 457 87 489 q 32 394 47 426 q 7 334 16 363 q -1 285 -1 304 q 23 222 -1 245 q 87 199 47 199 q 139 212 115 199 q 183 243 163 224 q 195 219 187 233 q 211 195 202 206 q 232 176 220 184 q 256 168 243 168 q 274 173 266 168 q 289 184 283 177 q 299 200 295 191 q 302 218 302 209 q 296 242 302 235 q 283 259 290 250 q 270 281 276 268 q 264 321 264 294 q 267 347 264 334 q 269 372 269 359 l 269 376 l 269 383 q 299 404 290 387 q 307 440 307 420 m 191 712 q 183 743 191 728 q 162 769 175 758 q 135 789 150 781 q 104 796 119 796 q 76 787 90 796 q 52 763 62 777 q 35 734 41 749 q 28 706 28 718 q 34 679 28 690 q 50 660 40 667 q 73 648 60 652 q 100 644 86 644 q 132 647 116 644 q 161 660 149 651 q 182 681 174 668 q 191 712 191 694 m 427 706 q 420 734 427 720 q 402 760 413 749 q 377 779 391 772 q 350 787 363 787 q 321 779 336 787 q 292 759 305 771 q 270 732 279 747 q 261 703 261 718 q 268 675 261 687 q 287 654 275 663 q 313 641 298 646 q 342 637 328 637 q 373 641 358 637 q 400 654 389 645 q 419 675 412 663 q 427 706 427 688 z "},"ã":{"ha":359,"x_min":-3,"x_max":450,"o":"m 215 425 q 196 414 205 423 q 178 391 187 404 q 160 364 170 378 q 141 336 151 349 q 119 312 131 322 q 93 298 107 302 q 102 325 96 309 q 118 358 109 340 q 139 394 127 376 q 162 427 151 412 q 185 454 174 443 q 205 471 196 466 q 212 457 210 465 q 215 443 215 450 l 215 425 m 307 440 q 301 485 307 462 q 282 527 294 508 q 251 558 269 546 q 207 571 232 571 q 158 555 183 571 q 111 514 134 540 q 67 457 87 489 q 32 394 47 426 q 7 334 16 363 q -1 285 -1 304 q 23 222 -1 245 q 87 199 47 199 q 139 212 115 199 q 183 243 163 224 q 195 219 187 233 q 211 195 202 206 q 232 176 220 184 q 256 168 243 168 q 274 173 266 168 q 289 184 283 177 q 299 200 295 191 q 302 218 302 209 q 296 242 302 235 q 283 259 290 250 q 270 281 276 268 q 264 321 264 294 q 267 347 264 334 q 269 372 269 359 l 269 376 l 269 383 q 299 404 290 387 q 307 440 307 420 m 450 788 q 446 807 450 798 q 435 823 442 817 q 419 834 428 830 q 400 838 410 838 q 374 832 383 838 q 359 817 364 826 q 351 797 354 808 q 343 778 348 787 q 330 762 338 768 q 306 756 321 756 q 282 764 290 756 q 267 782 273 771 q 254 807 260 793 q 236 831 247 820 q 206 850 224 842 q 157 857 187 857 q 119 852 134 857 q 89 828 104 848 q 76 812 85 823 q 58 788 68 801 q 37 760 47 774 q 17 732 26 745 q 3 709 9 720 q -3 695 -3 699 q 12 659 -3 674 q 47 644 26 644 q 87 657 73 644 q 113 689 101 671 q 136 725 124 707 q 170 752 149 743 q 192 724 184 737 q 205 700 199 711 q 217 680 211 689 q 234 665 224 671 q 262 656 245 659 q 306 653 279 653 q 358 664 332 653 q 405 692 384 674 q 438 735 425 711 q 450 788 450 760 z "},"å":{"ha":359,"x_min":-1,"x_max":375,"o":"m 215 425 q 196 414 205 423 q 178 391 187 404 q 160 364 170 378 q 141 336 151 349 q 119 312 131 322 q 93 298 107 302 q 102 325 96 309 q 118 358 109 340 q 139 394 127 376 q 162 427 151 412 q 185 454 174 443 q 205 471 196 466 q 212 457 210 465 q 215 443 215 450 l 215 425 m 307 440 q 301 485 307 462 q 282 527 294 508 q 251 558 269 546 q 207 571 232 571 q 158 555 183 571 q 111 514 134 540 q 67 457 87 489 q 32 394 47 426 q 7 334 16 363 q -1 285 -1 304 q 23 222 -1 245 q 87 199 47 199 q 139 212 115 199 q 183 243 163 224 q 195 219 187 233 q 211 195 202 206 q 232 176 220 184 q 256 168 243 168 q 274 173 266 168 q 289 184 283 177 q 299 200 295 191 q 302 218 302 209 q 296 242 302 235 q 283 259 290 250 q 270 281 276 268 q 264 321 264 294 q 267 347 264 334 q 269 372 269 359 l 269 376 l 269 383 q 299 404 290 387 q 307 440 307 420 m 277 799 q 271 774 277 787 q 254 748 264 760 q 232 729 244 736 q 207 721 219 721 q 177 731 191 721 q 154 755 163 742 l 154 758 q 160 785 154 768 q 176 817 167 801 q 196 848 185 833 q 214 868 206 862 q 237 861 226 867 q 257 844 248 854 q 271 822 266 834 q 277 799 277 810 m 375 799 q 362 862 375 831 q 327 915 349 892 q 275 952 304 939 q 214 966 246 966 q 173 956 193 966 q 136 928 153 945 q 103 889 118 911 q 78 843 89 867 q 62 797 68 820 q 56 755 56 774 q 70 704 56 728 q 106 662 84 680 q 155 633 128 644 q 207 623 182 623 q 271 638 240 623 q 324 679 301 654 q 361 735 347 703 q 375 799 375 766 z "},"ç":{"ha":345,"x_min":-5,"x_max":307,"o":"m 272 7 q 269 42 272 20 q 261 90 267 64 q 247 143 255 116 q 228 195 239 171 q 261 219 248 205 q 275 253 275 234 q 262 287 275 272 q 229 301 249 301 q 210 296 220 301 q 188 286 199 292 q 164 275 177 280 q 135 271 151 271 q 111 276 122 271 q 93 293 100 281 l 92 296 q 97 321 92 307 q 113 353 103 336 q 135 386 122 370 q 160 416 147 403 q 186 437 173 429 q 210 446 199 446 q 217 440 214 446 q 227 428 221 435 q 240 416 232 422 q 261 411 248 411 q 294 426 281 411 q 307 460 307 441 q 306 472 307 466 q 301 485 304 478 q 264 528 288 511 q 210 545 241 545 q 160 533 185 545 q 112 501 135 521 q 68 455 88 481 q 33 401 47 429 q 9 346 18 374 q 0 294 0 318 q 10 248 0 269 q 38 210 20 226 q 77 183 55 193 q 123 171 100 173 q 140 139 132 157 q 157 100 149 121 q 169 55 164 79 q 174 7 174 32 q 168 -41 174 -19 q 151 -78 163 -62 q 119 -102 138 -94 q 71 -111 99 -111 l 66 -111 q 41 -112 54 -111 q 18 -118 28 -113 q 1 -133 7 -123 q -5 -160 -5 -142 q 2 -186 -5 -176 q 20 -201 9 -196 q 45 -208 31 -206 q 71 -210 58 -210 q 158 -193 120 -210 q 221 -148 195 -177 q 259 -80 246 -119 q 272 7 272 -40 z "},"é":{"ha":354,"x_min":0,"x_max":427,"o":"m 240 498 q 215 476 230 486 q 183 459 200 467 q 149 448 166 452 q 117 440 131 443 q 141 463 127 452 q 171 481 155 473 q 205 494 187 489 q 239 498 222 498 l 240 498 m 338 515 q 329 552 338 537 q 307 578 321 568 q 275 593 293 588 q 237 597 257 597 q 149 580 192 597 q 73 533 106 563 q 20 462 40 503 q 0 375 0 421 q 14 290 0 332 q 53 212 27 247 q 116 156 79 178 q 199 135 153 135 q 225 137 212 135 q 250 145 239 139 q 267 161 260 151 q 273 187 273 171 q 260 222 273 206 q 227 237 248 237 q 222 237 224 237 q 216 236 219 236 q 208 234 212 235 q 199 233 203 233 q 160 242 177 233 q 132 267 144 252 q 111 300 119 281 q 97 338 102 319 q 176 353 134 341 q 254 386 218 365 q 314 440 290 408 q 338 515 338 472 m 422 976 q 376 1006 407 1006 q 364 1005 370 1006 q 351 1000 358 1004 q 309 965 328 988 q 274 914 290 942 q 245 858 258 886 q 218 806 231 829 q 212 795 214 800 q 208 788 210 791 q 205 783 207 785 q 203 780 204 781 q 197 775 201 778 q 184 765 193 773 q 163 726 163 750 q 164 711 163 718 q 170 696 166 704 q 186 681 176 685 q 208 676 197 676 q 224 678 217 676 q 239 683 231 680 q 269 708 255 691 q 294 747 282 725 q 318 793 307 768 q 341 840 329 817 q 366 882 353 863 q 396 912 380 901 q 417 930 408 918 q 427 958 427 943 q 422 976 427 968 z "},"è":{"ha":354,"x_min":-31,"x_max":338,"o":"m 240 498 q 215 476 230 486 q 183 459 200 467 q 149 448 166 452 q 117 440 131 443 q 141 463 127 452 q 171 481 155 473 q 205 494 187 489 q 239 498 222 498 l 240 498 m 338 515 q 329 552 338 537 q 307 578 321 568 q 275 593 293 588 q 237 597 257 597 q 149 580 192 597 q 73 533 106 563 q 20 462 40 503 q 0 375 0 421 q 14 290 0 332 q 53 212 27 247 q 116 156 79 178 q 199 135 153 135 q 225 137 212 135 q 250 145 239 139 q 267 161 260 151 q 273 187 273 171 q 260 222 273 206 q 227 237 248 237 q 222 237 224 237 q 216 236 219 236 q 208 234 212 235 q 199 233 203 233 q 160 242 177 233 q 132 267 144 252 q 111 300 119 281 q 97 338 102 319 q 176 353 134 341 q 254 386 218 365 q 314 440 290 408 q 338 515 338 472 m 224 696 q 233 726 233 712 q 210 765 233 750 q 197 776 201 773 q 191 781 193 779 q 186 788 189 783 q 176 806 183 793 q 150 858 163 829 q 121 914 136 886 q 86 965 105 942 q 43 1000 67 988 q 31 1005 37 1004 q 19 1006 24 1006 q -27 976 -12 1006 q -31 958 -31 968 q -23 930 -31 943 q -1 912 -14 918 q 29 882 16 901 q 55 840 43 863 q 78 793 66 817 q 101 747 89 768 q 126 708 113 725 q 156 683 140 691 q 185 676 171 676 q 209 681 198 676 q 224 696 219 685 z "},"ê":{"ha":354,"x_min":0,"x_max":408,"o":"m 240 498 q 215 476 230 486 q 183 459 200 467 q 149 448 166 452 q 117 440 131 443 q 141 463 127 452 q 171 481 155 473 q 205 494 187 489 q 239 498 222 498 l 240 498 m 338 515 q 329 552 338 537 q 307 578 321 568 q 275 593 293 588 q 237 597 257 597 q 149 580 192 597 q 73 533 106 563 q 20 462 40 503 q 0 375 0 421 q 14 290 0 332 q 53 212 27 247 q 116 156 79 178 q 199 135 153 135 q 225 137 212 135 q 250 145 239 139 q 267 161 260 151 q 273 187 273 171 q 260 222 273 206 q 227 237 248 237 q 222 237 224 237 q 216 236 219 236 q 208 234 212 235 q 199 233 203 233 q 160 242 177 233 q 132 267 144 252 q 111 300 119 281 q 97 338 102 319 q 176 353 134 341 q 254 386 218 365 q 314 440 290 408 q 338 515 338 472 m 408 696 q 406 713 408 706 q 397 728 403 721 q 353 774 378 755 q 306 809 328 793 q 269 839 284 825 q 252 869 253 852 l 252 876 q 247 897 252 886 q 235 914 243 907 q 218 926 228 922 q 197 931 208 931 q 150 919 168 931 q 116 888 132 907 q 80 847 100 869 q 26 804 60 825 q 7 785 15 797 q 0 760 0 774 q 15 726 0 741 q 50 711 29 711 q 84 718 70 711 q 112 735 98 724 q 139 762 125 746 q 175 799 154 779 q 192 778 185 786 q 204 763 198 770 q 217 750 210 757 q 237 734 224 744 q 264 714 255 721 q 281 703 274 708 q 297 689 289 697 q 321 666 305 682 q 338 651 329 656 q 359 646 347 646 q 394 662 379 646 q 408 696 408 677 z "},"ë":{"ha":354,"x_min":0,"x_max":427,"o":"m 240 498 q 215 476 230 486 q 183 459 200 467 q 149 448 166 452 q 117 440 131 443 q 141 463 127 452 q 171 481 155 473 q 205 494 187 489 q 239 498 222 498 l 240 498 m 338 515 q 329 552 338 537 q 307 578 321 568 q 275 593 293 588 q 237 597 257 597 q 149 580 192 597 q 73 533 106 563 q 20 462 40 503 q 0 375 0 421 q 14 290 0 332 q 53 212 27 247 q 116 156 79 178 q 199 135 153 135 q 225 137 212 135 q 250 145 239 139 q 267 161 260 151 q 273 187 273 171 q 260 222 273 206 q 227 237 248 237 q 222 237 224 237 q 216 236 219 236 q 208 234 212 235 q 199 233 203 233 q 160 242 177 233 q 132 267 144 252 q 111 300 119 281 q 97 338 102 319 q 176 353 134 341 q 254 386 218 365 q 314 440 290 408 q 338 515 338 472 m 191 726 q 183 757 191 742 q 162 784 175 772 q 135 803 150 795 q 104 810 119 810 q 76 801 90 810 q 52 778 62 791 q 35 748 41 764 q 28 720 28 732 q 34 693 28 705 q 50 674 40 682 q 73 662 60 666 q 100 658 86 658 q 132 662 116 658 q 161 674 149 665 q 182 695 174 682 q 191 726 191 708 m 427 720 q 420 748 427 734 q 402 774 413 763 q 377 793 391 786 q 350 801 363 801 q 321 793 336 801 q 292 773 305 785 q 270 747 279 762 q 261 718 261 732 q 268 689 261 701 q 287 668 275 677 q 313 655 298 660 q 342 651 328 651 q 373 655 358 651 q 400 668 389 659 q 419 690 412 677 q 427 720 427 703 z "},"í":{"ha":186,"x_min":0,"x_max":301,"o":"m 155 482 q 141 517 155 503 q 106 532 127 532 q 72 517 86 532 q 57 484 58 503 q 45 432 54 457 q 26 380 36 406 q 8 329 16 355 q 0 275 0 302 q 13 233 0 252 q 52 215 26 215 q 71 219 62 215 q 86 230 79 223 q 98 246 94 237 q 102 265 102 255 q 110 320 102 294 q 129 374 119 347 q 147 428 138 401 q 155 482 155 454 m 297 906 q 251 937 281 937 q 239 935 245 937 q 226 930 233 934 q 184 895 203 918 q 149 844 165 872 q 119 788 133 817 q 93 736 106 759 q 86 725 89 730 q 83 718 84 721 q 80 713 81 715 q 77 710 79 711 q 72 706 75 708 q 58 695 68 703 q 37 656 37 680 q 39 641 37 648 q 44 627 41 634 q 61 611 50 615 q 83 606 71 606 q 99 608 92 606 q 113 613 106 610 q 143 638 130 621 q 169 677 157 655 q 192 723 181 699 q 215 770 203 747 q 241 812 227 793 q 271 842 254 831 q 292 861 283 848 q 301 888 301 873 q 297 906 301 898 z "},"ì":{"ha":186,"x_min":-115,"x_max":155,"o":"m 155 482 q 141 517 155 503 q 106 532 127 532 q 72 517 86 532 q 57 484 58 503 q 45 432 54 457 q 26 380 36 406 q 8 329 16 355 q 0 275 0 302 q 13 233 0 252 q 52 215 26 215 q 71 219 62 215 q 86 230 79 223 q 98 246 94 237 q 102 265 102 255 q 110 320 102 294 q 129 374 119 347 q 147 428 138 401 q 155 482 155 454 m 141 641 q 149 670 149 656 q 127 709 149 694 q 114 720 117 718 q 107 725 110 723 q 102 733 105 728 q 92 751 100 738 q 66 802 80 773 q 37 859 53 831 q 3 909 22 886 q -40 944 -16 932 q -53 949 -46 948 q -64 951 -59 951 q -111 920 -96 951 q -115 902 -115 912 q -106 875 -115 888 q -84 857 -98 862 q -54 826 -68 845 q -29 784 -41 807 q -6 737 -17 762 q 17 691 5 713 q 43 652 29 669 q 73 627 56 635 q 102 621 87 621 q 125 625 115 621 q 141 641 136 629 z "},"î":{"ha":186,"x_min":-55,"x_max":353,"o":"m 155 482 q 141 517 155 503 q 106 532 127 532 q 72 517 86 532 q 57 484 58 503 q 45 432 54 457 q 26 380 36 406 q 8 329 16 355 q 0 275 0 302 q 13 233 0 252 q 52 215 26 215 q 71 219 62 215 q 86 230 79 223 q 98 246 94 237 q 102 265 102 255 q 110 320 102 294 q 129 374 119 347 q 147 428 138 401 q 155 482 155 454 m 353 627 q 351 644 353 637 q 342 659 348 652 q 298 705 323 686 q 251 740 273 724 q 214 769 229 755 q 197 800 198 783 l 197 806 q 192 827 197 817 q 180 845 188 838 q 163 857 173 852 q 142 862 153 862 q 95 850 113 862 q 61 819 77 838 q 25 778 45 800 q -28 735 5 755 q -47 716 -40 728 q -55 691 -55 705 q -40 657 -55 671 q -5 642 -26 642 q 29 648 15 642 q 57 666 43 654 q 84 693 70 677 q 120 730 99 709 q 137 709 130 717 q 149 694 143 701 q 162 681 155 688 q 182 665 170 675 q 210 645 200 652 q 227 633 219 639 q 242 620 234 628 q 266 597 250 612 q 283 582 274 587 q 304 577 292 577 q 339 592 324 577 q 353 627 353 608 z "},"ï":{"ha":186,"x_min":-41,"x_max":358,"o":"m 155 482 q 141 517 155 503 q 106 532 127 532 q 72 517 86 532 q 57 484 58 503 q 45 432 54 457 q 26 380 36 406 q 8 329 16 355 q 0 275 0 302 q 13 233 0 252 q 52 215 26 215 q 71 219 62 215 q 86 230 79 223 q 98 246 94 237 q 102 265 102 255 q 110 320 102 294 q 129 374 119 347 q 147 428 138 401 q 155 482 155 454 m 122 699 q 114 729 122 714 q 94 756 106 744 q 66 775 81 768 q 36 783 51 783 q 8 773 22 783 q -17 750 -6 764 q -34 720 -27 736 q -41 692 -41 705 q -35 665 -41 677 q -18 646 -28 654 q 5 634 -8 638 q 31 630 18 630 q 64 634 47 630 q 93 646 80 637 q 114 667 106 654 q 122 699 122 680 m 358 692 q 351 721 358 706 q 333 747 345 735 q 309 766 322 758 q 281 773 295 773 q 252 765 268 773 q 223 746 237 758 q 201 719 210 734 q 193 690 193 704 q 200 661 193 673 q 218 641 207 649 q 244 628 230 632 q 273 623 259 623 q 305 627 290 623 q 332 640 320 631 q 351 662 344 649 q 358 692 358 675 z "},"ñ":{"ha":437,"x_min":-4,"x_max":506,"o":"m 407 419 q 402 453 407 437 q 389 481 398 469 q 367 501 380 494 q 334 509 353 509 q 298 503 317 509 q 262 488 280 496 q 228 469 245 479 q 199 450 212 458 q 205 464 203 456 q 208 479 208 471 q 194 513 208 499 q 158 528 179 528 q 119 510 135 528 q 105 487 116 505 q 81 443 94 468 q 52 389 67 418 q 25 336 37 361 q 4 293 12 311 q -4 271 -4 275 q 11 237 -4 251 q 45 222 25 222 q 77 233 62 222 q 188 322 131 277 q 306 399 244 367 q 290 349 302 378 q 266 290 279 319 q 243 236 253 260 q 233 201 233 212 q 248 167 233 182 q 282 153 262 153 q 312 162 299 153 q 329 187 325 172 q 354 242 340 213 q 379 301 368 271 q 399 361 391 331 q 407 419 407 391 m 506 747 q 502 766 506 757 q 491 782 498 775 q 475 793 484 789 q 456 797 466 797 q 429 791 439 797 q 415 775 420 785 q 407 756 410 766 q 398 736 404 745 q 385 721 393 727 q 361 715 377 715 q 337 722 346 715 q 322 741 329 730 q 309 765 316 752 q 291 790 302 779 q 261 808 280 801 q 212 816 243 816 q 174 811 189 816 q 144 787 159 806 q 132 770 140 781 q 113 746 123 760 q 92 719 103 733 q 73 691 81 704 q 59 668 64 678 q 53 654 53 658 q 67 617 53 633 q 103 602 82 602 q 142 616 128 602 q 168 648 157 629 q 192 684 180 666 q 225 711 204 702 q 247 683 239 696 q 261 659 255 669 q 273 639 267 648 q 290 624 279 630 q 317 615 300 618 q 361 612 334 612 q 414 622 388 612 q 460 651 439 633 q 493 694 481 669 q 506 747 506 718 z "},"ó":{"ha":372,"x_min":-4,"x_max":468,"o":"m 231 334 q 224 309 231 319 q 208 295 218 300 q 184 288 197 290 q 158 286 172 286 q 129 288 144 286 q 100 296 115 290 q 123 327 110 311 q 150 356 136 342 q 180 384 165 370 q 208 410 195 397 q 224 373 217 392 q 231 334 231 353 m 329 334 q 325 367 329 347 q 315 409 321 387 q 298 454 308 431 q 275 494 288 476 q 247 523 262 512 q 215 534 232 534 q 184 521 205 534 q 140 485 164 507 q 90 436 115 463 q 43 381 64 408 q 9 328 22 353 q -4 286 -4 303 q 13 239 -4 258 q 56 208 31 220 q 109 191 81 196 q 160 186 138 186 q 225 195 195 186 q 279 222 256 204 q 315 269 302 241 q 329 334 329 296 m 464 948 q 418 979 448 979 q 406 977 412 979 q 393 972 399 976 q 351 937 370 960 q 316 886 332 914 q 286 830 300 859 q 260 779 273 801 q 253 767 256 772 q 250 760 251 763 q 247 755 248 757 q 244 752 245 753 q 238 748 242 750 q 225 737 235 745 q 204 698 204 722 q 206 683 204 690 q 211 669 208 676 q 228 653 217 657 q 250 648 238 648 q 266 650 258 648 q 280 655 273 652 q 310 680 296 663 q 336 719 323 697 q 359 765 348 741 q 382 812 370 789 q 408 854 394 835 q 437 884 421 873 q 459 903 450 890 q 468 930 468 916 q 464 948 468 940 z "},"ò":{"ha":372,"x_min":-4,"x_max":329,"o":"m 231 334 q 224 309 231 319 q 208 295 218 300 q 184 288 197 290 q 158 286 172 286 q 129 288 144 286 q 100 296 115 290 q 123 327 110 311 q 150 356 136 342 q 180 384 165 370 q 208 410 195 397 q 224 373 217 392 q 231 334 231 353 m 329 334 q 325 367 329 347 q 315 409 321 387 q 298 454 308 431 q 275 494 288 476 q 247 523 262 512 q 215 534 232 534 q 184 521 205 534 q 140 485 164 507 q 90 436 115 463 q 43 381 64 408 q 9 328 22 353 q -4 286 -4 303 q 13 239 -4 258 q 56 208 31 220 q 109 191 81 196 q 160 186 138 186 q 225 195 195 186 q 279 222 256 204 q 315 269 302 241 q 329 334 329 296 m 252 627 q 260 656 260 642 q 237 695 260 680 q 224 706 228 703 q 218 711 220 709 q 213 719 216 713 q 203 736 210 724 q 177 788 191 759 q 148 844 163 817 q 113 895 132 872 q 71 930 94 918 q 58 935 64 934 q 46 937 52 937 q 0 906 15 937 q -4 888 -4 898 q 4 861 -4 873 q 26 842 13 848 q 56 812 43 831 q 82 770 70 793 q 105 723 94 747 q 128 677 116 699 q 153 638 140 655 q 183 613 167 621 q 212 606 198 606 q 236 611 225 606 q 252 627 246 615 z "},"ô":{"ha":372,"x_min":-4,"x_max":408,"o":"m 231 334 q 224 309 231 319 q 208 295 218 300 q 184 288 197 290 q 158 286 172 286 q 129 288 144 286 q 100 296 115 290 q 123 327 110 311 q 150 356 136 342 q 180 384 165 370 q 208 410 195 397 q 224 373 217 392 q 231 334 231 353 m 329 334 q 325 367 329 347 q 315 409 321 387 q 298 454 308 431 q 275 494 288 476 q 247 523 262 512 q 215 534 232 534 q 184 521 205 534 q 140 485 164 507 q 90 436 115 463 q 43 381 64 408 q 9 328 22 353 q -4 286 -4 303 q 13 239 -4 258 q 56 208 31 220 q 109 191 81 196 q 160 186 138 186 q 225 195 195 186 q 279 222 256 204 q 315 269 302 241 q 329 334 329 296 m 408 613 q 406 630 408 623 q 397 645 403 637 q 353 690 378 671 q 306 725 328 709 q 269 755 284 741 q 252 785 253 769 l 252 792 q 247 813 252 803 q 235 831 243 823 q 218 843 228 838 q 197 848 208 848 q 150 836 168 848 q 116 805 132 823 q 80 764 100 786 q 26 721 60 741 q 7 702 15 713 q 0 677 0 690 q 15 643 0 657 q 50 628 29 628 q 84 634 70 628 q 112 651 98 640 q 139 679 125 663 q 175 715 154 695 q 192 694 185 703 q 204 680 198 686 q 217 667 210 673 q 237 650 224 661 q 264 631 255 637 q 281 619 274 625 q 297 606 289 614 q 321 583 305 598 q 338 568 329 573 q 359 563 347 563 q 394 578 379 563 q 408 613 408 593 z "},"ö":{"ha":372,"x_min":-4,"x_max":427,"o":"m 231 334 q 224 309 231 319 q 208 295 218 300 q 184 288 197 290 q 158 286 172 286 q 129 288 144 286 q 100 296 115 290 q 123 327 110 311 q 150 356 136 342 q 180 384 165 370 q 208 410 195 397 q 224 373 217 392 q 231 334 231 353 m 329 334 q 325 367 329 347 q 315 409 321 387 q 298 454 308 431 q 275 494 288 476 q 247 523 262 512 q 215 534 232 534 q 184 521 205 534 q 140 485 164 507 q 90 436 115 463 q 43 381 64 408 q 9 328 22 353 q -4 286 -4 303 q 13 239 -4 258 q 56 208 31 220 q 109 191 81 196 q 160 186 138 186 q 225 195 195 186 q 279 222 256 204 q 315 269 302 241 q 329 334 329 296 m 191 671 q 183 701 191 686 q 162 728 175 716 q 135 747 150 740 q 104 755 119 755 q 76 745 90 755 q 52 722 62 736 q 35 692 41 708 q 28 665 28 677 q 34 637 28 649 q 50 618 40 626 q 73 606 60 610 q 100 602 86 602 q 132 606 116 602 q 161 618 149 610 q 182 640 174 627 q 191 671 191 652 m 427 665 q 420 693 427 678 q 402 719 413 707 q 377 738 391 730 q 350 745 363 745 q 321 738 336 745 q 292 718 305 730 q 270 691 279 706 q 261 662 261 676 q 268 633 261 646 q 287 613 275 621 q 313 600 298 604 q 342 595 328 595 q 373 600 358 595 q 400 612 389 604 q 419 634 412 621 q 427 665 427 647 z "},"õ":{"ha":372,"x_min":-4,"x_max":450,"o":"m 231 334 q 224 309 231 319 q 208 295 218 300 q 184 288 197 290 q 158 286 172 286 q 129 288 144 286 q 100 296 115 290 q 123 327 110 311 q 150 356 136 342 q 180 384 165 370 q 208 410 195 397 q 224 373 217 392 q 231 334 231 353 m 329 334 q 325 367 329 347 q 315 409 321 387 q 298 454 308 431 q 275 494 288 476 q 247 523 262 512 q 215 534 232 534 q 184 521 205 534 q 140 485 164 507 q 90 436 115 463 q 43 381 64 408 q 9 328 22 353 q -4 286 -4 303 q 13 239 -4 258 q 56 208 31 220 q 109 191 81 196 q 160 186 138 186 q 225 195 195 186 q 279 222 256 204 q 315 269 302 241 q 329 334 329 296 m 450 732 q 446 752 450 743 q 435 768 442 761 q 419 779 428 774 q 400 783 410 783 q 374 777 383 783 q 359 761 364 770 q 351 742 354 752 q 343 722 348 731 q 330 707 338 713 q 306 701 321 701 q 282 708 290 701 q 267 727 273 715 q 254 751 260 738 q 236 775 247 764 q 206 794 224 787 q 157 802 187 802 q 119 797 134 802 q 89 772 104 792 q 76 756 85 767 q 58 732 68 745 q 37 704 47 719 q 17 677 26 690 q 3 654 9 664 q -3 640 -3 644 q 12 603 -3 618 q 47 588 26 588 q 87 602 73 588 q 113 633 101 615 q 136 670 124 652 q 170 696 149 688 q 192 668 184 682 q 205 644 199 655 q 217 625 211 633 q 234 610 224 616 q 262 601 245 604 q 306 597 279 597 q 358 608 332 597 q 405 637 384 618 q 438 680 425 655 q 450 732 450 704 z "},"ú":{"ha":431,"x_min":0,"x_max":468,"o":"m 396 504 q 381 538 396 524 q 346 553 367 553 q 312 538 326 553 q 297 504 297 524 q 287 465 297 488 q 260 416 277 441 q 223 364 244 390 q 182 316 203 338 q 142 279 161 294 q 110 261 123 264 q 101 282 104 269 q 98 306 98 296 q 111 354 98 328 q 138 410 123 381 q 165 469 153 439 q 178 524 178 498 q 163 558 178 543 q 129 572 149 572 q 94 558 106 572 q 79 524 81 545 q 64 477 77 501 q 37 425 51 452 q 11 368 22 398 q 0 306 0 338 q 6 256 0 281 q 25 209 12 230 q 59 175 38 188 q 109 161 79 161 q 169 179 136 161 q 233 227 201 197 q 294 293 264 256 q 346 368 323 330 q 382 441 369 406 q 396 504 396 477 m 464 934 q 418 964 448 964 q 406 963 412 964 q 393 958 399 962 q 351 923 370 946 q 316 872 332 900 q 286 815 300 844 q 260 764 273 787 q 253 753 256 758 q 250 746 251 749 q 247 741 248 743 q 244 738 245 739 q 238 733 242 736 q 225 723 235 731 q 204 684 204 708 q 206 669 204 676 q 211 654 208 662 q 228 638 217 643 q 250 634 238 634 q 266 636 258 634 q 280 641 273 637 q 310 666 296 649 q 336 705 323 683 q 359 751 348 726 q 382 798 370 775 q 408 840 394 821 q 437 870 421 859 q 459 888 450 876 q 468 916 468 901 q 464 934 468 926 z "},"ù":{"ha":431,"x_min":0,"x_max":396,"o":"m 396 504 q 381 538 396 524 q 346 553 367 553 q 312 538 326 553 q 297 504 297 524 q 287 465 297 488 q 260 416 277 441 q 223 364 244 390 q 182 316 203 338 q 142 279 161 294 q 110 261 123 264 q 101 282 104 269 q 98 306 98 296 q 111 354 98 328 q 138 410 123 381 q 165 469 153 439 q 178 524 178 498 q 163 558 178 543 q 129 572 149 572 q 94 558 106 572 q 79 524 81 545 q 64 477 77 501 q 37 425 51 452 q 11 368 22 398 q 0 306 0 338 q 6 256 0 281 q 25 209 12 230 q 59 175 38 188 q 109 161 79 161 q 169 179 136 161 q 233 227 201 197 q 294 293 264 256 q 346 368 323 330 q 382 441 369 406 q 396 504 396 477 m 293 669 q 301 698 301 684 q 279 737 301 722 q 266 748 269 745 q 259 753 262 751 q 254 761 257 755 q 244 779 252 766 q 218 830 232 801 q 189 886 205 859 q 155 937 174 914 q 112 972 136 960 q 99 977 106 976 q 87 979 93 979 q 41 948 56 979 q 37 930 37 940 q 46 903 37 916 q 68 884 54 890 q 98 854 84 873 q 123 812 111 835 q 146 765 135 789 q 169 719 157 741 q 195 680 181 697 q 224 655 208 663 q 254 648 239 648 q 277 653 267 648 q 293 669 288 657 z "},"û":{"ha":431,"x_min":0,"x_max":477,"o":"m 396 504 q 381 538 396 524 q 346 553 367 553 q 312 538 326 553 q 297 504 297 524 q 287 465 297 488 q 260 416 277 441 q 223 364 244 390 q 182 316 203 338 q 142 279 161 294 q 110 261 123 264 q 101 282 104 269 q 98 306 98 296 q 111 354 98 328 q 138 410 123 381 q 165 469 153 439 q 178 524 178 498 q 163 558 178 543 q 129 572 149 572 q 94 558 106 572 q 79 524 81 545 q 64 477 77 501 q 37 425 51 452 q 11 368 22 398 q 0 306 0 338 q 6 256 0 281 q 25 209 12 230 q 59 175 38 188 q 109 161 79 161 q 169 179 136 161 q 233 227 201 197 q 294 293 264 256 q 346 368 323 330 q 382 441 369 406 q 396 504 396 477 m 477 711 q 475 728 477 720 q 467 743 472 735 q 422 788 447 769 q 375 823 397 807 q 338 853 353 839 q 321 883 322 867 l 321 890 q 316 911 321 901 q 304 928 312 921 q 287 941 297 936 q 267 945 277 945 q 219 933 237 945 q 185 902 201 921 q 149 861 169 884 q 96 819 129 839 q 77 800 84 811 q 69 774 69 788 q 84 740 69 755 q 119 726 98 726 q 153 732 139 726 q 181 749 168 738 q 209 777 194 760 q 244 813 223 793 q 261 792 254 800 q 273 778 267 784 q 286 765 279 771 q 307 748 294 758 q 334 729 324 735 q 351 717 343 722 q 366 704 358 711 q 390 680 374 696 q 407 666 398 671 q 429 661 416 661 q 463 676 448 661 q 477 711 477 691 z "},"ü":{"ha":431,"x_min":0,"x_max":482,"o":"m 396 504 q 381 538 396 524 q 346 553 367 553 q 312 538 326 553 q 297 504 297 524 q 287 465 297 488 q 260 416 277 441 q 223 364 244 390 q 182 316 203 338 q 142 279 161 294 q 110 261 123 264 q 101 282 104 269 q 98 306 98 296 q 111 354 98 328 q 138 410 123 381 q 165 469 153 439 q 178 524 178 498 q 163 558 178 543 q 129 572 149 572 q 94 558 106 572 q 79 524 81 545 q 64 477 77 501 q 37 425 51 452 q 11 368 22 398 q 0 306 0 338 q 6 256 0 281 q 25 209 12 230 q 59 175 38 188 q 109 161 79 161 q 169 179 136 161 q 233 227 201 197 q 294 293 264 256 q 346 368 323 330 q 382 441 369 406 q 396 504 396 477 m 246 712 q 238 743 246 728 q 218 769 231 758 q 190 789 205 781 q 160 796 175 796 q 132 787 146 796 q 107 763 118 777 q 90 734 97 749 q 83 706 83 718 q 90 679 83 690 q 106 660 96 667 q 129 648 116 652 q 155 644 142 644 q 188 647 172 644 q 217 660 204 651 q 238 681 230 668 q 246 712 246 694 m 482 706 q 475 734 482 720 q 457 760 469 749 q 433 779 446 772 q 406 787 419 787 q 376 779 392 787 q 348 759 361 771 q 326 732 334 747 q 317 703 317 718 q 324 675 317 687 q 342 654 331 663 q 369 641 354 646 q 397 637 383 637 q 429 641 414 637 q 456 654 444 645 q 475 675 468 663 q 482 706 482 688 z "},"†":{"ha":376,"x_min":-39,"x_max":363,"o":"m 363 884 q 349 918 363 906 q 314 936 334 930 q 271 942 294 941 q 233 943 249 943 l 214 943 q 223 1041 217 992 q 241 1137 229 1089 q 243 1147 243 1143 q 244 1158 244 1152 q 230 1192 244 1178 q 196 1206 216 1206 q 174 1201 183 1206 q 155 1186 164 1196 q 143 1160 149 1179 q 134 1116 138 1141 q 127 1064 130 1092 q 122 1010 124 1036 q 119 964 120 985 q 117 932 117 943 q 78 928 97 930 q 39 926 58 926 q 25 928 31 926 q 11 929 18 929 q -24 915 -9 929 q -39 879 -39 900 q -32 852 -39 863 q -13 837 -24 842 q 12 830 -2 831 q 39 828 26 828 q 111 832 76 828 q 108 762 110 803 q 103 671 106 720 q 97 568 101 622 q 88 460 94 514 q 76 353 83 406 q 60 255 69 300 q 38 172 50 209 q 11 113 26 136 q 0 97 5 103 q -4 78 -4 90 q 0 59 -4 68 q 11 42 4 50 q 26 31 17 35 q 45 26 35 26 q 80 42 64 26 q 109 80 96 58 q 131 125 122 102 q 144 164 140 149 q 168 281 161 222 q 180 401 175 340 q 197 622 191 513 q 210 843 203 732 q 227 844 218 844 q 244 844 236 844 q 266 844 256 844 q 288 840 277 844 q 299 836 294 838 q 313 833 305 833 q 332 838 323 833 q 348 848 340 842 q 359 864 355 855 q 363 884 363 873 z "},"°":{"ha":298,"x_min":0,"x_max":319,"o":"m 221 1048 q 215 1023 221 1037 q 199 998 209 1010 q 176 979 189 987 q 151 971 163 971 q 121 982 136 971 q 98 1006 107 992 l 98 1008 q 105 1035 98 1019 q 120 1067 111 1051 q 140 1098 130 1084 q 158 1118 151 1112 q 182 1111 170 1118 q 202 1095 193 1105 q 216 1072 210 1084 q 221 1048 221 1060 m 319 1048 q 306 1111 319 1081 q 271 1165 293 1141 q 220 1202 249 1188 q 158 1217 191 1217 q 118 1206 138 1217 q 80 1178 98 1196 q 48 1139 62 1161 q 23 1093 33 1116 q 6 1047 12 1069 q 0 1006 0 1024 q 14 954 0 979 q 51 911 28 930 q 99 883 73 893 q 151 872 126 872 q 215 888 184 872 q 269 928 245 903 q 306 984 292 953 q 319 1048 319 1016 z "},"¢":{"ha":431,"x_min":0,"x_max":400,"o":"m 147 228 l 147 227 l 146 231 l 147 228 m 201 607 l 149 497 q 135 501 144 498 q 119 507 127 503 q 104 516 111 511 q 98 528 98 521 q 109 561 98 547 q 135 585 119 575 q 169 601 151 595 q 201 607 186 606 m 400 619 q 395 641 400 632 q 383 657 391 650 q 366 669 375 664 q 346 677 356 673 q 354 696 349 686 q 364 719 359 707 q 372 742 369 731 q 375 762 375 753 q 361 798 375 783 q 325 812 347 812 q 296 801 308 812 q 276 771 284 789 q 261 735 267 754 q 249 703 255 716 q 234 705 241 704 q 220 705 227 705 q 141 694 180 705 q 70 661 102 683 q 19 605 39 638 q 0 528 0 572 q 9 484 0 503 q 32 449 18 464 q 66 423 47 434 q 107 406 86 412 q 90 366 100 389 q 71 318 80 342 q 55 269 62 293 q 49 227 49 245 q 62 187 49 203 q 98 171 75 171 q 133 185 118 171 q 147 220 147 200 l 147 228 q 156 263 148 240 q 175 312 164 286 q 196 361 185 338 q 211 396 206 384 q 252 401 227 397 q 299 415 277 406 q 339 439 322 424 q 355 476 355 454 q 341 512 355 497 q 306 526 327 526 q 293 525 298 526 q 283 520 288 523 q 273 514 278 517 q 262 507 269 511 l 302 589 q 326 577 315 583 q 350 571 336 571 q 386 585 371 571 q 400 619 400 600 z "},"£":{"ha":707,"x_min":0,"x_max":758,"o":"m 240 416 q 221 398 232 408 q 197 380 210 389 q 170 365 184 371 q 144 359 157 359 q 132 361 140 359 q 116 367 123 363 q 104 376 109 371 q 98 387 98 381 q 111 417 98 401 q 139 449 123 434 q 174 476 156 465 q 204 492 192 488 q 224 455 216 476 q 240 416 233 434 m 659 814 q 636 749 659 775 q 581 707 613 724 q 618 762 600 735 q 659 814 637 789 m 758 814 q 754 856 758 833 q 742 896 751 878 q 716 926 732 914 q 676 939 701 939 q 633 923 656 939 q 587 882 610 907 q 541 825 564 857 q 497 764 517 794 q 461 708 477 734 q 436 668 446 682 q 419 667 428 667 q 401 667 410 667 q 371 671 385 667 q 343 676 358 676 q 308 662 322 676 q 293 628 293 648 q 300 602 293 612 q 318 585 307 591 q 342 574 329 578 q 368 570 356 571 q 341 534 355 552 q 314 498 328 516 q 297 531 307 514 q 275 561 288 547 q 247 584 262 574 q 212 593 232 593 q 142 573 179 593 q 73 524 104 554 q 21 457 41 494 q 0 386 0 420 q 13 335 0 359 q 45 295 25 312 q 92 269 66 279 q 143 260 117 260 q 216 277 182 260 q 279 318 250 295 q 297 276 286 301 q 322 228 307 251 q 356 189 337 205 q 399 172 376 172 q 418 176 409 172 q 435 185 428 179 q 447 200 443 191 q 452 218 452 208 q 442 251 452 237 q 414 269 433 265 q 399 293 407 277 q 382 329 391 310 q 367 366 374 348 q 355 395 359 385 q 427 484 394 437 q 493 576 460 530 q 588 603 541 585 q 673 649 635 621 q 734 718 711 677 q 758 814 758 759 z "},"§":{"ha":533,"x_min":0,"x_max":547,"o":"m 493 835 l 489 835 q 493 835 491 833 m 547 884 q 532 919 547 905 q 494 933 516 933 q 446 926 477 933 q 381 907 416 919 q 310 878 346 895 q 246 842 275 861 q 199 801 217 823 q 180 758 180 780 q 195 721 180 736 q 229 694 209 705 q 271 675 249 683 q 310 663 294 668 q 273 643 295 655 q 230 616 250 631 q 195 583 210 601 q 180 545 180 564 q 196 505 180 521 q 234 478 211 490 q 284 459 257 467 q 336 440 312 450 q 378 418 361 431 q 399 387 395 406 q 400 376 400 382 q 400 366 400 371 q 386 300 400 326 q 347 257 371 273 q 292 234 323 241 q 227 227 260 227 q 152 234 190 227 q 85 262 114 241 q 68 273 75 270 q 49 277 61 277 q 15 262 29 277 q 0 228 0 248 q 13 194 0 209 q 46 168 26 179 q 91 149 66 157 q 141 136 117 141 q 189 129 166 131 q 225 126 211 126 q 331 141 281 126 q 418 185 380 155 q 478 260 456 215 q 500 366 500 305 q 493 416 500 391 q 472 463 487 441 q 493 519 487 490 q 500 579 500 549 q 485 655 500 625 q 444 706 469 686 q 385 740 418 726 q 314 766 351 754 q 351 785 326 773 q 403 807 376 796 q 455 827 430 819 q 492 835 479 835 q 531 847 515 835 q 547 884 547 859 m 400 579 q 392 524 400 551 q 353 540 373 533 q 314 553 333 547 q 356 574 334 564 q 400 593 378 583 l 400 579 z "},"•":{"ha":380,"x_min":0,"x_max":350,"o":"m 150 521 l 143 521 l 142 521 q 123 526 131 521 q 109 538 115 530 q 101 555 104 546 q 98 575 98 565 l 98 576 l 98 583 q 106 565 101 574 q 119 547 112 555 q 134 531 125 538 q 150 521 142 524 m 250 600 q 241 574 250 585 q 222 553 233 562 l 222 564 q 216 588 222 578 q 197 607 210 597 q 210 624 201 616 q 225 637 218 631 l 232 640 q 244 622 238 634 q 250 600 250 610 m 350 600 q 336 661 350 631 q 300 713 321 692 q 302 721 301 717 q 302 729 302 725 q 289 761 302 748 q 257 782 276 774 q 218 794 238 790 q 183 798 197 798 q 109 778 142 798 q 51 726 75 758 q 13 655 26 694 q 0 578 0 616 q 10 518 0 547 q 39 468 20 490 q 84 434 58 447 q 143 421 111 421 q 214 435 178 421 q 281 473 251 449 q 331 530 311 497 q 350 600 350 563 z "},"¶":{"ha":618,"x_min":16,"x_max":604,"o":"m 604 703 q 585 834 604 779 q 529 925 566 889 q 434 977 491 960 q 302 994 378 994 q 292 994 296 994 q 281 994 287 993 q 255 1000 268 996 q 229 1003 241 1003 q 139 977 179 1003 q 72 912 100 951 q 30 824 45 872 q 16 732 16 776 q 51 614 16 662 q 154 549 87 566 q 190 543 172 544 q 227 541 209 542 q 263 538 245 540 q 298 530 281 536 q 312 524 306 527 q 326 521 319 521 l 336 521 q 325 454 332 487 q 307 389 317 421 q 288 323 298 356 q 269 258 277 291 q 255 205 262 233 q 249 150 249 177 q 264 117 249 130 q 298 104 279 104 q 321 110 310 104 q 339 126 332 116 q 346 142 345 134 q 349 158 347 151 q 367 252 356 205 q 388 344 377 298 q 411 436 399 390 q 431 528 422 481 l 484 517 q 454 404 470 460 q 427 293 438 349 q 410 222 419 258 q 401 150 401 186 q 406 132 401 140 q 417 117 410 123 q 433 108 425 111 q 452 104 442 104 q 474 110 463 104 q 492 126 486 116 q 498 142 497 134 q 501 158 500 151 q 530 294 512 227 q 564 429 547 361 q 592 565 581 496 q 604 703 604 633 m 510 713 q 508 658 510 685 q 501 606 506 631 l 444 611 q 450 666 448 638 q 453 722 453 694 q 451 760 453 741 q 445 796 448 778 q 440 832 442 814 q 437 868 437 850 q 461 859 450 868 q 479 837 471 850 q 493 805 487 823 q 503 770 499 787 q 508 738 507 753 q 510 713 510 722 m 357 737 q 354 676 357 707 q 347 615 351 646 q 304 630 328 626 q 254 635 279 633 q 203 640 228 637 q 159 651 178 642 q 127 679 139 661 q 115 730 115 698 q 118 765 115 746 q 128 803 121 784 q 144 840 134 822 q 167 872 154 858 q 196 894 180 886 q 231 903 212 903 q 289 888 265 903 q 328 850 313 873 q 350 797 343 826 q 357 737 357 767 z "},"ß":{"ha":606,"x_min":0,"x_max":589,"o":"m 589 581 q 574 662 589 628 q 534 718 560 696 q 470 750 507 740 q 387 761 433 761 q 307 743 342 761 q 243 697 271 726 q 198 630 216 668 q 172 551 180 592 q 160 500 167 526 q 144 449 153 474 q 105 454 125 451 q 66 464 85 456 q 56 467 61 465 q 46 468 52 468 q 13 453 26 468 q 0 418 0 437 q 11 387 0 398 q 38 369 22 375 q 72 360 54 363 q 104 355 90 357 q 87 321 97 339 q 67 284 78 302 q 43 250 56 266 q 18 221 31 233 q 5 203 9 212 q 0 180 0 193 q 13 146 0 161 q 46 131 26 131 q 76 143 60 131 q 107 176 91 156 q 138 220 123 195 q 165 268 153 244 q 188 311 178 291 q 203 343 197 332 q 221 342 212 343 q 240 342 231 342 q 267 344 254 342 q 291 352 280 346 q 308 368 301 357 q 314 395 314 378 q 301 428 314 413 q 268 443 288 443 q 253 441 260 443 q 239 440 246 440 q 252 486 246 463 q 262 533 257 509 q 282 588 269 563 q 316 632 296 614 q 363 662 336 651 q 421 672 389 672 q 446 669 435 672 q 465 660 457 667 q 479 642 473 653 q 489 612 485 630 q 489 585 493 596 q 475 565 484 574 q 454 548 467 555 q 429 530 441 540 q 404 507 416 520 q 383 476 391 494 q 371 429 371 454 q 383 393 371 408 q 413 365 395 377 q 451 345 431 353 q 486 329 471 336 q 465 304 479 315 q 434 283 451 292 q 400 270 418 275 q 367 265 382 265 q 353 268 359 265 q 340 273 347 270 q 328 278 334 276 q 314 281 321 281 q 295 277 304 281 q 279 266 286 273 q 268 250 272 258 q 264 231 264 241 q 275 200 264 212 q 301 180 286 187 q 335 169 317 172 q 367 165 353 165 q 438 178 399 165 q 511 214 477 191 q 566 269 544 237 q 589 336 589 300 q 577 379 589 363 q 548 406 566 395 q 510 425 531 416 q 472 443 490 433 q 486 464 475 456 q 509 479 496 472 q 536 494 522 486 q 562 513 550 502 q 581 540 573 524 q 589 581 589 556 z "},"®":{"ha":688,"x_min":7,"x_max":623,"o":"m 525 567 q 523 530 525 550 q 518 489 522 509 q 509 449 515 469 q 496 414 504 429 l 496 419 q 483 454 496 439 q 450 469 470 469 l 446 469 l 439 468 l 436 468 q 417 472 428 468 q 397 481 406 476 q 431 508 417 492 q 454 544 445 524 q 468 584 463 563 q 472 627 472 606 q 468 663 472 644 q 454 697 463 682 q 430 722 445 712 q 393 732 415 732 q 363 727 378 732 q 335 713 349 722 q 310 694 322 705 q 288 672 298 683 q 268 676 279 676 q 235 664 248 676 q 220 632 222 651 q 211 598 218 618 q 196 556 205 578 q 179 512 188 534 q 162 470 170 490 q 150 436 155 450 q 144 415 144 421 q 159 381 144 395 q 193 367 174 367 q 222 375 212 367 q 239 396 233 383 q 251 423 245 408 q 262 450 256 437 q 299 421 277 435 q 344 395 320 407 q 393 377 368 384 q 439 370 418 370 q 459 372 450 370 q 476 380 468 374 q 437 338 459 355 q 390 311 415 321 q 336 296 364 300 q 279 292 309 292 q 216 295 247 292 q 160 311 184 299 q 121 347 136 323 q 106 408 106 370 q 116 481 106 442 q 142 561 126 521 q 178 637 159 600 q 216 701 198 673 q 239 697 228 697 q 283 724 268 697 q 311 759 292 740 q 352 794 330 778 q 397 822 374 811 q 439 833 420 833 q 467 817 454 833 q 489 774 479 800 q 505 716 498 748 q 516 655 512 685 q 523 602 521 625 q 525 567 525 578 m 372 616 q 369 599 372 608 q 362 581 367 589 q 351 568 358 573 q 335 562 345 562 l 334 562 l 325 562 q 347 591 336 577 q 372 616 359 604 m 623 567 q 620 632 623 595 q 609 711 616 670 q 587 791 601 751 q 553 862 574 831 q 505 912 533 893 q 439 932 477 932 q 379 921 409 932 q 320 893 349 911 q 267 854 292 876 q 224 811 242 833 q 204 815 216 815 q 174 804 186 815 q 164 795 170 802 q 152 780 158 788 q 141 765 146 772 q 134 754 136 758 q 88 676 111 719 q 47 587 65 633 q 18 495 29 541 q 7 406 7 448 q 29 304 7 345 q 88 238 51 263 q 175 203 125 214 q 278 193 224 193 q 430 221 366 193 q 538 298 495 249 q 602 416 581 348 q 623 567 623 485 z "},"©":{"ha":646,"x_min":4,"x_max":615,"o":"m 517 571 q 508 509 517 536 q 482 452 498 481 q 465 481 479 469 q 432 493 451 493 q 415 490 424 493 q 400 482 406 488 q 386 475 394 478 q 369 471 378 473 q 351 470 359 470 q 335 469 342 469 q 316 470 327 469 q 295 472 306 471 q 275 476 285 473 q 257 482 265 478 q 289 514 271 501 q 332 528 308 528 q 363 521 349 528 q 393 514 378 514 q 427 528 413 514 q 441 562 441 543 q 430 593 441 581 q 400 613 418 606 q 364 624 383 621 q 330 627 345 627 q 271 615 302 627 q 214 583 240 603 q 171 535 188 562 q 154 478 154 508 q 173 425 154 446 q 219 392 191 404 q 277 376 246 380 q 334 371 309 371 q 387 375 359 371 q 437 390 414 378 q 402 355 421 372 q 361 325 383 338 q 315 304 339 312 q 265 297 291 297 q 210 307 239 297 q 158 335 182 317 q 118 377 134 353 q 103 431 103 402 q 114 487 103 458 q 140 542 124 515 q 177 594 157 569 q 215 637 197 618 q 244 628 227 628 q 268 635 254 628 q 297 653 282 643 q 327 673 313 663 q 351 689 341 684 q 371 672 361 682 q 392 652 381 661 q 414 635 403 642 q 437 628 425 628 q 472 642 457 628 q 486 676 486 656 l 486 686 q 510 631 503 663 q 517 571 517 599 m 615 571 q 605 656 615 613 q 572 734 595 699 q 515 790 550 768 q 432 812 481 812 q 393 809 412 812 q 354 799 373 805 q 332 805 344 803 q 309 807 320 807 q 249 791 279 807 q 188 750 218 776 q 130 692 157 725 q 79 626 102 660 q 39 560 56 592 q 16 503 23 528 q 4 431 4 467 q 27 338 4 380 q 87 264 50 296 q 171 216 124 233 q 264 199 217 199 q 354 214 310 199 q 436 256 397 229 q 508 319 475 283 q 565 396 541 355 q 602 482 589 437 q 615 571 615 527 z "},"™":{"ha":800,"x_min":0,"x_max":806,"o":"m 404 793 q 411 793 408 793 q 418 791 414 793 l 395 754 q 399 773 397 764 q 404 793 402 783 m 806 422 q 795 447 806 436 q 771 457 785 457 q 757 453 764 457 q 745 444 750 450 q 738 468 739 454 q 737 493 737 483 q 749 623 737 559 q 774 750 761 686 q 775 758 775 753 q 765 782 775 772 q 741 793 754 793 q 719 785 727 793 q 707 766 711 778 q 694 740 701 753 q 677 714 687 728 q 635 660 663 691 q 574 599 608 628 q 506 549 541 570 q 441 529 471 529 l 435 529 q 430 540 431 534 q 429 551 429 545 q 436 603 429 574 q 453 662 443 632 q 474 719 463 691 q 494 768 486 747 q 499 780 496 772 q 506 798 503 789 q 512 815 509 807 q 515 827 515 823 q 505 851 515 841 q 481 861 494 861 q 453 848 463 861 q 431 860 444 857 q 406 863 418 863 q 326 854 365 863 q 248 838 286 846 q 235 860 245 851 q 212 869 226 869 q 195 865 202 869 q 183 853 188 860 q 174 837 178 846 q 167 821 170 829 q 104 803 135 813 q 40 793 73 793 q 12 785 24 793 q 0 760 0 777 q 11 734 0 744 q 36 725 22 725 q 85 731 61 725 q 134 742 110 736 q 121 712 129 730 q 104 671 113 693 q 86 626 95 649 q 70 581 77 602 q 58 541 62 559 q 53 513 53 523 q 62 486 53 498 q 87 475 72 475 q 112 485 101 475 q 122 509 122 495 q 128 536 122 517 q 142 580 134 555 q 162 632 151 604 q 183 684 173 659 q 203 730 194 709 q 216 761 212 750 q 274 774 245 768 q 332 786 302 781 q 314 727 324 755 q 293 669 304 698 q 284 644 291 662 q 268 604 277 627 q 250 557 259 582 q 232 511 240 532 q 219 473 224 489 q 214 453 214 458 q 224 429 214 439 q 249 418 234 418 q 265 422 257 418 q 278 435 273 427 l 363 571 q 363 530 361 550 q 375 494 366 510 q 399 469 383 479 q 440 460 415 460 q 505 474 471 460 q 569 509 538 488 q 628 555 601 530 q 676 602 656 580 q 671 551 673 576 q 669 500 669 526 q 672 460 669 481 q 682 419 674 438 q 704 387 689 399 q 743 374 719 374 q 764 377 753 374 q 784 387 774 380 q 800 402 793 393 q 806 422 806 412 z "},"´":{"ha":281,"x_min":-4,"x_max":260,"o":"m 256 1156 q 210 1186 240 1186 q 197 1185 203 1186 q 184 1179 191 1183 q 142 1145 161 1168 q 107 1094 123 1122 q 78 1037 92 1066 q 52 986 64 1008 q 45 975 47 979 q 41 967 43 970 q 39 963 40 964 q 36 960 37 961 q 30 955 34 958 q 17 945 26 953 q -4 905 -4 930 q -2 891 -4 898 q 3 876 -1 884 q 19 860 9 865 q 41 856 30 856 q 57 858 50 856 q 72 863 64 859 q 102 888 88 871 q 127 926 115 905 q 151 972 140 948 q 174 1020 162 997 q 199 1061 186 1042 q 229 1092 213 1080 q 251 1110 241 1097 q 260 1137 260 1123 q 256 1156 260 1147 z "},"¨":{"ha":401,"x_min":0,"x_max":399,"o":"m 163 1086 q 155 1117 163 1102 q 135 1144 147 1132 q 107 1163 122 1156 q 77 1171 92 1171 q 48 1161 62 1171 q 24 1138 35 1152 q 7 1108 14 1124 q 0 1080 0 1093 q 6 1053 0 1065 q 22 1034 12 1042 q 45 1022 33 1026 q 72 1018 58 1018 q 104 1022 88 1018 q 134 1034 121 1025 q 155 1055 146 1042 q 163 1086 163 1068 m 399 1080 q 392 1108 399 1094 q 374 1135 385 1123 q 349 1154 363 1146 q 322 1161 336 1161 q 293 1153 309 1161 q 264 1134 277 1145 q 242 1107 251 1122 q 233 1078 233 1092 q 240 1049 233 1061 q 259 1028 248 1037 q 285 1016 271 1020 q 314 1011 300 1011 q 346 1015 330 1011 q 373 1028 361 1019 q 392 1050 385 1037 q 399 1080 399 1063 z "},"≠":{"ha":375,"x_min":0,"x_max":359,"o":"m 74 463 l 71 464 l 72 464 l 74 463 m 359 782 q 345 816 359 802 q 310 831 330 831 q 279 820 291 831 q 262 793 268 810 q 239 729 250 757 q 217 680 227 702 q 196 640 206 658 q 176 604 186 621 l 163 603 q 132 601 147 602 q 102 600 116 600 q 95 602 98 600 q 89 603 91 603 q 87 602 87 603 q 81 603 84 603 q 74 603 78 603 q 40 589 55 603 q 25 554 25 575 q 32 527 25 537 q 51 511 39 516 q 76 503 62 505 q 103 501 90 501 l 119 501 q 111 482 115 492 q 102 461 106 473 l 100 461 q 86 461 94 461 q 72 464 79 462 q 61 468 66 467 q 50 469 56 469 q 15 455 29 469 q 0 421 0 441 q 5 398 0 408 q 19 381 11 388 q 39 371 28 375 q 62 366 50 368 l 58 353 q 41 296 48 324 q 35 237 35 267 q 37 214 35 225 q 46 194 40 203 q 61 179 52 184 q 85 174 71 174 q 104 178 95 174 q 120 189 113 182 q 131 204 127 195 q 135 224 135 214 q 134 228 135 226 q 134 232 134 230 l 134 239 q 141 299 134 267 q 163 364 149 330 q 202 368 181 366 q 243 373 223 370 q 280 380 263 376 q 310 389 298 384 q 333 407 323 394 q 342 435 342 419 q 338 454 342 445 q 327 470 334 463 q 311 481 319 477 q 292 485 302 485 q 275 481 283 485 q 245 474 262 477 q 210 468 229 470 q 220 488 215 477 q 231 507 225 498 l 243 507 q 268 504 256 507 q 292 500 279 500 q 327 514 313 500 q 342 549 342 529 q 324 587 342 574 q 283 603 307 599 q 313 657 299 631 q 337 706 327 683 q 353 748 347 729 q 359 782 359 768 z "},"Æ":{"ha":860,"x_min":0,"x_max":825,"o":"m 489 749 q 487 641 489 694 q 481 533 485 588 q 360 475 421 503 q 239 422 300 448 q 267 484 250 447 q 304 563 283 521 q 348 650 325 606 q 395 734 372 694 q 440 805 418 774 q 479 852 462 836 q 485 827 483 838 q 488 806 487 816 q 489 785 489 795 q 489 762 489 775 l 489 749 m 612 542 q 595 513 604 528 q 575 482 585 498 l 581 553 q 596 547 589 549 q 612 542 604 544 m 825 292 q 811 327 825 313 q 775 342 796 342 q 745 335 764 342 q 703 321 726 329 q 656 308 680 314 q 610 301 631 301 q 604 301 606 301 q 599 302 602 301 q 610 343 600 321 q 633 387 620 365 q 663 433 647 410 q 691 478 678 456 q 713 520 705 500 q 722 558 722 541 q 709 599 722 585 q 676 622 695 613 q 635 636 656 630 q 599 653 614 642 q 625 686 606 668 q 667 722 644 704 q 711 754 689 739 q 747 779 733 770 q 764 798 758 787 q 771 821 771 808 q 756 856 771 842 q 721 871 742 871 q 696 864 711 871 q 664 846 682 858 q 626 819 646 835 q 587 786 606 804 q 583 845 587 814 q 570 901 580 876 q 541 944 559 927 q 489 961 522 961 q 429 942 458 961 q 375 895 400 922 q 330 837 349 867 q 298 785 310 806 l 297 785 q 273 778 283 785 q 254 758 262 771 q 227 711 243 742 q 191 642 210 681 q 149 557 171 603 q 106 465 127 512 q 65 373 85 418 q 32 289 46 328 q 8 220 17 250 q 0 175 0 191 q 15 129 0 148 q 58 110 30 110 q 87 121 73 110 q 113 150 100 132 q 137 189 126 168 q 158 232 149 211 q 175 271 168 253 q 186 300 182 290 l 189 300 q 221 307 199 300 q 271 327 243 315 q 331 353 300 338 q 390 380 362 367 q 440 404 418 393 q 471 418 462 414 q 466 375 469 397 q 459 331 463 353 q 454 287 456 309 q 452 245 452 265 q 466 211 452 225 q 500 196 480 196 q 525 202 515 196 q 542 220 535 209 q 576 207 557 211 q 614 203 594 203 q 658 207 634 203 q 706 216 682 210 q 753 231 730 222 q 794 248 776 239 q 817 265 808 254 q 825 292 825 277 z "},"Ø":{"ha":751,"x_min":0,"x_max":734,"o":"m 519 760 q 493 719 506 736 q 473 689 481 701 q 433 630 458 666 q 380 551 409 594 q 320 458 351 507 q 258 361 288 410 q 201 268 228 313 q 155 186 174 222 q 151 184 153 184 q 146 184 148 184 l 132 184 l 131 184 q 114 190 121 184 q 104 202 108 195 q 99 219 100 210 q 98 237 98 229 q 110 280 98 254 q 142 338 122 306 q 189 408 163 371 q 244 481 216 444 q 302 554 273 518 q 357 622 332 591 q 404 678 383 653 q 436 717 425 703 q 445 731 441 723 q 449 749 449 739 q 443 771 449 760 q 482 766 463 769 q 519 760 502 764 m 621 639 q 594 498 621 562 q 524 385 568 435 q 421 296 480 334 q 296 231 362 258 q 366 347 328 286 q 446 469 405 408 q 527 591 486 531 q 603 707 567 652 q 616 677 611 694 q 621 639 621 661 m 734 949 q 720 984 734 968 q 685 999 706 999 q 655 988 667 999 q 637 961 643 978 q 614 913 631 944 q 575 847 597 883 q 502 865 541 860 q 422 871 463 871 q 380 859 398 871 q 363 819 363 848 q 374 790 363 804 q 353 770 368 787 q 318 731 338 754 q 277 682 299 709 q 236 632 256 656 q 202 589 217 608 q 182 564 187 570 q 151 523 170 547 q 113 470 133 498 q 72 409 92 441 q 36 347 52 378 q 10 288 20 317 q 0 237 0 260 q 7 182 0 208 q 29 136 14 157 q 65 103 43 116 q 117 86 87 90 q 109 49 111 68 q 106 11 106 30 q 117 -34 106 -14 q 155 -53 127 -53 q 190 -38 175 -53 q 205 -4 205 -24 q 205 0 205 -2 q 204 4 204 2 l 204 12 q 210 50 204 28 q 229 100 216 73 q 329 137 277 113 q 430 189 381 161 q 519 249 478 218 q 587 309 560 280 q 686 460 652 376 q 720 639 720 545 q 704 730 720 691 q 659 796 688 768 q 714 891 693 851 q 734 949 734 931 z "},"∞":{"ha":924,"x_min":0,"x_max":892,"o":"m 298 533 q 282 516 288 525 q 275 492 275 507 q 276 484 275 488 q 278 476 277 481 q 241 454 262 460 q 199 447 220 447 q 165 452 182 447 q 132 468 147 458 q 108 492 117 477 q 98 525 98 507 q 109 544 98 537 q 134 555 119 551 q 165 559 149 558 q 192 559 181 559 l 200 559 q 222 556 209 559 q 250 549 235 553 q 277 541 264 545 q 298 533 290 536 m 793 574 q 786 545 793 557 q 769 527 780 534 q 745 518 759 521 q 717 515 731 515 q 664 520 692 515 q 607 533 636 525 q 551 550 578 541 q 500 567 524 559 q 578 599 538 593 q 663 606 617 606 q 692 605 673 606 q 729 602 710 604 q 766 595 749 600 q 791 583 783 591 q 792 578 791 581 q 793 574 793 576 m 892 572 q 881 624 892 602 q 853 660 871 645 q 813 684 836 675 q 765 697 790 692 q 714 704 739 702 q 665 705 688 705 q 582 701 617 705 q 515 685 546 696 q 455 654 485 673 q 387 607 425 635 q 345 623 369 614 q 295 640 321 632 q 244 654 269 648 q 200 660 220 660 q 130 655 165 660 q 66 635 95 650 q 18 594 37 621 q 0 525 0 568 q 17 454 0 486 q 62 398 34 421 q 125 361 90 374 q 199 349 161 349 q 271 359 241 349 q 326 389 302 370 q 372 434 351 408 q 416 490 393 460 q 487 465 450 478 q 564 441 525 452 q 642 424 603 431 q 718 416 682 416 q 784 427 753 416 q 840 456 816 437 q 878 505 864 476 q 892 572 892 534 z "},"±":{"ha":361,"x_min":0,"x_max":323,"o":"m 250 103 l 249 104 l 250 103 m 250 103 l 249 104 l 250 103 m 250 428 l 249 429 l 250 428 m 208 561 l 207 561 l 207 559 l 208 561 m 323 146 q 312 178 323 166 q 282 196 300 190 q 244 204 264 202 q 207 205 224 205 l 196 205 q 164 203 176 205 q 142 199 153 201 q 117 195 132 197 q 77 189 103 192 l 74 189 q 68 189 71 189 q 62 191 66 189 q 56 192 59 192 q 50 192 54 192 q 31 188 40 192 q 15 177 22 184 q 4 161 8 170 q 0 142 0 152 q 7 115 0 125 q 26 99 14 104 q 51 92 37 94 q 78 90 65 90 q 120 92 108 90 q 136 95 132 93 q 139 99 140 96 q 142 103 138 101 q 158 106 146 104 q 200 107 170 107 l 207 107 q 230 107 218 107 q 250 103 241 106 q 275 96 261 96 q 309 110 295 96 q 323 146 323 125 m 323 471 q 312 503 323 491 q 282 521 300 515 q 244 529 264 527 q 207 530 224 530 l 203 530 q 204 547 204 539 q 207 561 205 555 q 210 571 209 564 q 212 588 212 579 q 213 606 213 597 q 214 616 214 614 q 199 651 214 636 q 165 667 185 667 q 132 650 144 667 q 114 611 120 634 q 106 562 108 587 q 104 518 104 536 q 91 516 98 517 q 77 514 85 515 l 74 514 q 68 515 71 514 q 62 515 66 515 q 56 517 59 517 q 50 517 54 517 q 15 503 31 517 q 0 468 0 489 q 7 440 0 451 q 26 425 14 430 q 51 417 37 419 q 78 415 65 415 q 101 416 92 415 q 118 416 111 416 q 119 404 119 410 q 121 387 119 397 l 121 379 l 121 343 q 119 337 119 340 q 118 329 118 334 q 122 307 118 318 q 133 286 126 295 q 149 271 140 277 q 168 265 158 265 q 195 275 184 265 q 211 298 205 284 q 218 329 216 313 q 220 358 220 345 q 219 392 220 378 q 217 413 218 405 q 215 425 216 421 q 212 432 214 429 q 232 432 222 432 q 250 428 243 431 q 275 421 262 421 q 309 435 295 421 q 323 471 323 450 z "},"≤":{"ha":414,"x_min":-20,"x_max":385,"o":"m 281 57 l 279 58 l 281 57 m 281 57 l 279 58 l 281 57 m 354 100 q 342 132 354 120 q 313 150 330 144 q 275 158 295 157 q 237 160 254 160 l 227 160 q 195 158 206 159 q 173 154 184 156 q 148 149 162 151 q 107 143 134 146 l 104 143 q 99 143 101 143 q 93 144 96 143 q 87 146 90 146 q 81 146 84 146 q 62 142 71 146 q 46 131 53 138 q 35 115 39 124 q 31 96 31 106 q 38 69 31 79 q 57 54 45 59 q 82 46 68 48 q 109 45 96 45 q 151 46 138 45 q 166 49 163 47 q 170 53 170 51 q 173 57 169 55 q 189 60 176 58 q 231 61 201 61 l 237 61 q 260 61 248 61 q 281 57 272 60 q 306 50 292 50 q 340 64 326 50 q 354 100 354 79 m 378 610 q 383 622 382 616 q 385 636 385 629 q 379 660 385 649 q 363 677 374 670 q 338 686 350 686 q 322 684 330 686 q 309 677 315 682 q 224 627 264 651 q 149 580 185 604 q 79 531 113 556 q 11 475 45 505 q -12 444 -5 460 q -20 412 -20 428 q -1 359 -20 385 q 49 314 18 334 q 115 272 87 290 q 170 241 142 255 q 228 216 197 227 q 302 192 259 204 q 311 190 307 190 q 318 189 314 189 q 341 194 331 189 q 359 211 352 199 q 366 224 364 218 q 367 237 367 230 q 345 279 367 264 q 340 282 342 281 q 334 285 337 283 q 264 309 292 299 q 213 331 237 319 q 163 358 189 343 q 102 397 138 374 q 87 407 93 401 q 90 416 89 411 q 94 424 91 420 q 139 455 113 439 q 194 490 165 472 q 254 525 224 507 q 309 558 283 542 q 353 587 334 574 q 378 610 372 600 z "},"≥":{"ha":443,"x_min":4,"x_max":408,"o":"m 281 57 l 279 58 l 281 57 m 281 57 l 279 58 l 281 57 m 354 100 q 342 132 354 120 q 313 150 330 144 q 275 158 295 157 q 237 160 254 160 l 227 160 q 195 158 206 159 q 173 154 184 156 q 148 149 162 151 q 107 143 134 146 l 104 143 q 99 143 101 143 q 93 144 96 143 q 87 146 90 146 q 81 146 84 146 q 62 142 71 146 q 46 131 53 138 q 35 115 39 124 q 31 96 31 106 q 38 69 31 79 q 57 54 45 59 q 82 46 68 48 q 109 45 96 45 q 151 46 138 45 q 166 49 163 47 q 170 53 170 51 q 173 57 169 55 q 189 60 176 58 q 231 61 201 61 l 237 61 q 260 61 248 61 q 281 57 272 60 q 306 50 292 50 q 340 64 326 50 q 354 100 354 79 m 378 395 q 408 457 408 422 q 390 509 408 484 q 340 554 371 534 q 274 596 302 578 q 219 628 246 614 q 161 653 192 642 q 86 677 130 665 q 79 680 83 679 q 71 681 75 681 q 47 675 58 681 q 29 659 37 669 q 22 632 22 644 q 45 589 22 605 q 50 586 48 587 q 56 583 52 585 q 125 559 97 570 q 177 537 153 549 q 226 511 201 526 q 288 472 251 496 q 295 467 292 470 q 301 461 298 465 q 299 453 300 457 q 294 446 298 448 q 250 414 277 431 q 194 380 224 397 q 135 345 165 362 q 80 312 105 328 q 36 282 54 296 q 11 260 17 269 q 4 233 4 246 q 10 209 4 220 q 26 192 16 198 q 53 183 38 183 q 81 192 68 183 q 165 241 125 218 q 241 289 205 264 q 311 338 277 313 q 378 395 345 364 z "}}}
